G04 #@! TF.GenerationSoftware,KiCad,Pcbnew,6.0.9-8da3e8f707~116~ubuntu20.04.1*
G04 #@! TF.CreationDate,2022-12-06T17:06:51+01:00*
G04 #@! TF.ProjectId,iqdac,69716461-632e-46b6-9963-61645f706362,rev?*
G04 #@! TF.SameCoordinates,Original*
G04 #@! TF.FileFunction,Legend,Bot*
G04 #@! TF.FilePolarity,Positive*
%FSLAX46Y46*%
G04 Gerber Fmt 4.6, Leading zero omitted, Abs format (unit mm)*
G04 Created by KiCad (PCBNEW 6.0.9-8da3e8f707~116~ubuntu20.04.1) date 2022-12-06 17:06:51*
%MOMM*%
%LPD*%
G01*
G04 APERTURE LIST*
G04 Aperture macros list*
%AMRoundRect*
0 Rectangle with rounded corners*
0 $1 Rounding radius*
0 $2 $3 $4 $5 $6 $7 $8 $9 X,Y pos of 4 corners*
0 Add a 4 corners polygon primitive as box body*
4,1,4,$2,$3,$4,$5,$6,$7,$8,$9,$2,$3,0*
0 Add four circle primitives for the rounded corners*
1,1,$1+$1,$2,$3*
1,1,$1+$1,$4,$5*
1,1,$1+$1,$6,$7*
1,1,$1+$1,$8,$9*
0 Add four rect primitives between the rounded corners*
20,1,$1+$1,$2,$3,$4,$5,0*
20,1,$1+$1,$4,$5,$6,$7,0*
20,1,$1+$1,$6,$7,$8,$9,0*
20,1,$1+$1,$8,$9,$2,$3,0*%
G04 Aperture macros list end*
%ADD10C,0.200000*%
%ADD11C,0.150000*%
%ADD12C,0.120000*%
%ADD13C,2.050000*%
%ADD14C,2.250000*%
%ADD15C,2.500000*%
%ADD16R,1.700000X1.700000*%
%ADD17O,1.700000X1.700000*%
%ADD18RoundRect,0.237500X0.300000X0.237500X-0.300000X0.237500X-0.300000X-0.237500X0.300000X-0.237500X0*%
%ADD19RoundRect,0.237500X0.237500X-0.300000X0.237500X0.300000X-0.237500X0.300000X-0.237500X-0.300000X0*%
%ADD20RoundRect,0.237500X-0.237500X0.300000X-0.237500X-0.300000X0.237500X-0.300000X0.237500X0.300000X0*%
%ADD21RoundRect,0.237500X-0.300000X-0.237500X0.300000X-0.237500X0.300000X0.237500X-0.300000X0.237500X0*%
G04 APERTURE END LIST*
D10*
X182713619Y-78444095D02*
X183146952Y-77825047D01*
X183456476Y-78444095D02*
X183456476Y-77144095D01*
X182961238Y-77144095D01*
X182837428Y-77206000D01*
X182775523Y-77267904D01*
X182713619Y-77391714D01*
X182713619Y-77577428D01*
X182775523Y-77701238D01*
X182837428Y-77763142D01*
X182961238Y-77825047D01*
X183456476Y-77825047D01*
X181661238Y-78382190D02*
X181785047Y-78444095D01*
X182032666Y-78444095D01*
X182156476Y-78382190D01*
X182218380Y-78258380D01*
X182218380Y-77763142D01*
X182156476Y-77639333D01*
X182032666Y-77577428D01*
X181785047Y-77577428D01*
X181661238Y-77639333D01*
X181599333Y-77763142D01*
X181599333Y-77886952D01*
X182218380Y-78010761D01*
X181166000Y-77577428D02*
X180856476Y-78444095D01*
X180546952Y-77577428D01*
X180051714Y-78320285D02*
X179989809Y-78382190D01*
X180051714Y-78444095D01*
X180113619Y-78382190D01*
X180051714Y-78320285D01*
X180051714Y-78444095D01*
X180051714Y-77639333D02*
X179989809Y-77701238D01*
X180051714Y-77763142D01*
X180113619Y-77701238D01*
X180051714Y-77639333D01*
X180051714Y-77763142D01*
X177761238Y-78444095D02*
X178504095Y-78444095D01*
X178132666Y-78444095D02*
X178132666Y-77144095D01*
X178256476Y-77329809D01*
X178380285Y-77453619D01*
X178504095Y-77515523D01*
X177204095Y-78320285D02*
X177142190Y-78382190D01*
X177204095Y-78444095D01*
X177266000Y-78382190D01*
X177204095Y-78320285D01*
X177204095Y-78444095D01*
X176337428Y-77144095D02*
X176213619Y-77144095D01*
X176089809Y-77206000D01*
X176027904Y-77267904D01*
X175966000Y-77391714D01*
X175904095Y-77639333D01*
X175904095Y-77948857D01*
X175966000Y-78196476D01*
X176027904Y-78320285D01*
X176089809Y-78382190D01*
X176213619Y-78444095D01*
X176337428Y-78444095D01*
X176461238Y-78382190D01*
X176523142Y-78320285D01*
X176585047Y-78196476D01*
X176646952Y-77948857D01*
X176646952Y-77639333D01*
X176585047Y-77391714D01*
X176523142Y-77267904D01*
X176461238Y-77206000D01*
X176337428Y-77144095D01*
X183456476Y-80537095D02*
X183456476Y-79237095D01*
X183146952Y-79237095D01*
X182961238Y-79299000D01*
X182837428Y-79422809D01*
X182775523Y-79546619D01*
X182713619Y-79794238D01*
X182713619Y-79979952D01*
X182775523Y-80227571D01*
X182837428Y-80351380D01*
X182961238Y-80475190D01*
X183146952Y-80537095D01*
X183456476Y-80537095D01*
X181599333Y-80537095D02*
X181599333Y-79856142D01*
X181661238Y-79732333D01*
X181785047Y-79670428D01*
X182032666Y-79670428D01*
X182156476Y-79732333D01*
X181599333Y-80475190D02*
X181723142Y-80537095D01*
X182032666Y-80537095D01*
X182156476Y-80475190D01*
X182218380Y-80351380D01*
X182218380Y-80227571D01*
X182156476Y-80103761D01*
X182032666Y-80041857D01*
X181723142Y-80041857D01*
X181599333Y-79979952D01*
X181166000Y-79670428D02*
X180670761Y-79670428D01*
X180980285Y-79237095D02*
X180980285Y-80351380D01*
X180918380Y-80475190D01*
X180794571Y-80537095D01*
X180670761Y-80537095D01*
X179742190Y-80475190D02*
X179866000Y-80537095D01*
X180113619Y-80537095D01*
X180237428Y-80475190D01*
X180299333Y-80351380D01*
X180299333Y-79856142D01*
X180237428Y-79732333D01*
X180113619Y-79670428D01*
X179866000Y-79670428D01*
X179742190Y-79732333D01*
X179680285Y-79856142D01*
X179680285Y-79979952D01*
X180299333Y-80103761D01*
X179123142Y-80413285D02*
X179061238Y-80475190D01*
X179123142Y-80537095D01*
X179185047Y-80475190D01*
X179123142Y-80413285D01*
X179123142Y-80537095D01*
X179123142Y-79732333D02*
X179061238Y-79794238D01*
X179123142Y-79856142D01*
X179185047Y-79794238D01*
X179123142Y-79732333D01*
X179123142Y-79856142D01*
X177637428Y-79237095D02*
X176832666Y-79237095D01*
X177266000Y-79732333D01*
X177080285Y-79732333D01*
X176956476Y-79794238D01*
X176894571Y-79856142D01*
X176832666Y-79979952D01*
X176832666Y-80289476D01*
X176894571Y-80413285D01*
X176956476Y-80475190D01*
X177080285Y-80537095D01*
X177451714Y-80537095D01*
X177575523Y-80475190D01*
X177637428Y-80413285D01*
X176275523Y-80413285D02*
X176213619Y-80475190D01*
X176275523Y-80537095D01*
X176337428Y-80475190D01*
X176275523Y-80413285D01*
X176275523Y-80537095D01*
X174975523Y-80537095D02*
X175718380Y-80537095D01*
X175346952Y-80537095D02*
X175346952Y-79237095D01*
X175470761Y-79422809D01*
X175594571Y-79546619D01*
X175718380Y-79608523D01*
X174480285Y-79360904D02*
X174418380Y-79299000D01*
X174294571Y-79237095D01*
X173985047Y-79237095D01*
X173861238Y-79299000D01*
X173799333Y-79360904D01*
X173737428Y-79484714D01*
X173737428Y-79608523D01*
X173799333Y-79794238D01*
X174542190Y-80537095D01*
X173737428Y-80537095D01*
X173180285Y-80413285D02*
X173118380Y-80475190D01*
X173180285Y-80537095D01*
X173242190Y-80475190D01*
X173180285Y-80413285D01*
X173180285Y-80537095D01*
X172623142Y-79360904D02*
X172561238Y-79299000D01*
X172437428Y-79237095D01*
X172127904Y-79237095D01*
X172004095Y-79299000D01*
X171942190Y-79360904D01*
X171880285Y-79484714D01*
X171880285Y-79608523D01*
X171942190Y-79794238D01*
X172685047Y-80537095D01*
X171880285Y-80537095D01*
X171385047Y-79360904D02*
X171323142Y-79299000D01*
X171199333Y-79237095D01*
X170889809Y-79237095D01*
X170766000Y-79299000D01*
X170704095Y-79360904D01*
X170642190Y-79484714D01*
X170642190Y-79608523D01*
X170704095Y-79794238D01*
X171446952Y-80537095D01*
X170642190Y-80537095D01*
X183518380Y-84351666D02*
X182899333Y-84351666D01*
X183642190Y-84723095D02*
X183208857Y-83423095D01*
X182775523Y-84723095D01*
X182342190Y-84723095D02*
X182342190Y-83423095D01*
X182032666Y-83423095D01*
X181846952Y-83485000D01*
X181723142Y-83608809D01*
X181661238Y-83732619D01*
X181599333Y-83980238D01*
X181599333Y-84165952D01*
X181661238Y-84413571D01*
X181723142Y-84537380D01*
X181846952Y-84661190D01*
X182032666Y-84723095D01*
X182342190Y-84723095D01*
X180980285Y-84723095D02*
X180732666Y-84723095D01*
X180608857Y-84661190D01*
X180546952Y-84599285D01*
X180423142Y-84413571D01*
X180361238Y-84165952D01*
X180361238Y-83670714D01*
X180423142Y-83546904D01*
X180485047Y-83485000D01*
X180608857Y-83423095D01*
X180856476Y-83423095D01*
X180980285Y-83485000D01*
X181042190Y-83546904D01*
X181104095Y-83670714D01*
X181104095Y-83980238D01*
X181042190Y-84104047D01*
X180980285Y-84165952D01*
X180856476Y-84227857D01*
X180608857Y-84227857D01*
X180485047Y-84165952D01*
X180423142Y-84104047D01*
X180361238Y-83980238D01*
X179742190Y-84723095D02*
X179494571Y-84723095D01*
X179370761Y-84661190D01*
X179308857Y-84599285D01*
X179185047Y-84413571D01*
X179123142Y-84165952D01*
X179123142Y-83670714D01*
X179185047Y-83546904D01*
X179246952Y-83485000D01*
X179370761Y-83423095D01*
X179618380Y-83423095D01*
X179742190Y-83485000D01*
X179804095Y-83546904D01*
X179866000Y-83670714D01*
X179866000Y-83980238D01*
X179804095Y-84104047D01*
X179742190Y-84165952D01*
X179618380Y-84227857D01*
X179370761Y-84227857D01*
X179246952Y-84165952D01*
X179185047Y-84104047D01*
X179123142Y-83980238D01*
X177946952Y-83423095D02*
X178566000Y-83423095D01*
X178627904Y-84042142D01*
X178566000Y-83980238D01*
X178442190Y-83918333D01*
X178132666Y-83918333D01*
X178008857Y-83980238D01*
X177946952Y-84042142D01*
X177885047Y-84165952D01*
X177885047Y-84475476D01*
X177946952Y-84599285D01*
X178008857Y-84661190D01*
X178132666Y-84723095D01*
X178442190Y-84723095D01*
X178566000Y-84661190D01*
X178627904Y-84599285D01*
X177451714Y-83423095D02*
X176585047Y-83423095D01*
X177142190Y-84723095D01*
X174604095Y-84661190D02*
X174727904Y-84723095D01*
X174975523Y-84723095D01*
X175099333Y-84661190D01*
X175161238Y-84537380D01*
X175161238Y-84042142D01*
X175099333Y-83918333D01*
X174975523Y-83856428D01*
X174727904Y-83856428D01*
X174604095Y-83918333D01*
X174542190Y-84042142D01*
X174542190Y-84165952D01*
X175161238Y-84289761D01*
X174108857Y-84723095D02*
X173427904Y-83856428D01*
X174108857Y-83856428D02*
X173427904Y-84723095D01*
X173118380Y-83856428D02*
X172623142Y-83856428D01*
X172932666Y-83423095D02*
X172932666Y-84537380D01*
X172870761Y-84661190D01*
X172746952Y-84723095D01*
X172623142Y-84723095D01*
X171694571Y-84661190D02*
X171818380Y-84723095D01*
X172066000Y-84723095D01*
X172189809Y-84661190D01*
X172251714Y-84537380D01*
X172251714Y-84042142D01*
X172189809Y-83918333D01*
X172066000Y-83856428D01*
X171818380Y-83856428D01*
X171694571Y-83918333D01*
X171632666Y-84042142D01*
X171632666Y-84165952D01*
X172251714Y-84289761D01*
X171075523Y-83856428D02*
X171075523Y-84723095D01*
X171075523Y-83980238D02*
X171013619Y-83918333D01*
X170889809Y-83856428D01*
X170704095Y-83856428D01*
X170580285Y-83918333D01*
X170518380Y-84042142D01*
X170518380Y-84723095D01*
X169961238Y-84661190D02*
X169837428Y-84723095D01*
X169589809Y-84723095D01*
X169466000Y-84661190D01*
X169404095Y-84537380D01*
X169404095Y-84475476D01*
X169466000Y-84351666D01*
X169589809Y-84289761D01*
X169775523Y-84289761D01*
X169899333Y-84227857D01*
X169961238Y-84104047D01*
X169961238Y-84042142D01*
X169899333Y-83918333D01*
X169775523Y-83856428D01*
X169589809Y-83856428D01*
X169466000Y-83918333D01*
X168846952Y-84723095D02*
X168846952Y-83856428D01*
X168846952Y-83423095D02*
X168908857Y-83485000D01*
X168846952Y-83546904D01*
X168785047Y-83485000D01*
X168846952Y-83423095D01*
X168846952Y-83546904D01*
X168042190Y-84723095D02*
X168166000Y-84661190D01*
X168227904Y-84599285D01*
X168289809Y-84475476D01*
X168289809Y-84104047D01*
X168227904Y-83980238D01*
X168166000Y-83918333D01*
X168042190Y-83856428D01*
X167856476Y-83856428D01*
X167732666Y-83918333D01*
X167670761Y-83980238D01*
X167608857Y-84104047D01*
X167608857Y-84475476D01*
X167670761Y-84599285D01*
X167732666Y-84661190D01*
X167856476Y-84723095D01*
X168042190Y-84723095D01*
X167051714Y-83856428D02*
X167051714Y-84723095D01*
X167051714Y-83980238D02*
X166989809Y-83918333D01*
X166866000Y-83856428D01*
X166680285Y-83856428D01*
X166556476Y-83918333D01*
X166494571Y-84042142D01*
X166494571Y-84723095D01*
X164885047Y-84723095D02*
X164885047Y-83856428D01*
X164885047Y-83980238D02*
X164823142Y-83918333D01*
X164699333Y-83856428D01*
X164513619Y-83856428D01*
X164389809Y-83918333D01*
X164327904Y-84042142D01*
X164327904Y-84723095D01*
X164327904Y-84042142D02*
X164266000Y-83918333D01*
X164142190Y-83856428D01*
X163956476Y-83856428D01*
X163832666Y-83918333D01*
X163770761Y-84042142D01*
X163770761Y-84723095D01*
X162966000Y-84723095D02*
X163089809Y-84661190D01*
X163151714Y-84599285D01*
X163213619Y-84475476D01*
X163213619Y-84104047D01*
X163151714Y-83980238D01*
X163089809Y-83918333D01*
X162966000Y-83856428D01*
X162780285Y-83856428D01*
X162656476Y-83918333D01*
X162594571Y-83980238D01*
X162532666Y-84104047D01*
X162532666Y-84475476D01*
X162594571Y-84599285D01*
X162656476Y-84661190D01*
X162780285Y-84723095D01*
X162966000Y-84723095D01*
X161418380Y-84723095D02*
X161418380Y-83423095D01*
X161418380Y-84661190D02*
X161542190Y-84723095D01*
X161789809Y-84723095D01*
X161913619Y-84661190D01*
X161975523Y-84599285D01*
X162037428Y-84475476D01*
X162037428Y-84104047D01*
X161975523Y-83980238D01*
X161913619Y-83918333D01*
X161789809Y-83856428D01*
X161542190Y-83856428D01*
X161418380Y-83918333D01*
X160242190Y-83856428D02*
X160242190Y-84723095D01*
X160799333Y-83856428D02*
X160799333Y-84537380D01*
X160737428Y-84661190D01*
X160613619Y-84723095D01*
X160427904Y-84723095D01*
X160304095Y-84661190D01*
X160242190Y-84599285D01*
X159437428Y-84723095D02*
X159561238Y-84661190D01*
X159623142Y-84537380D01*
X159623142Y-83423095D01*
X158446952Y-84661190D02*
X158570761Y-84723095D01*
X158818380Y-84723095D01*
X158942190Y-84661190D01*
X159004095Y-84537380D01*
X159004095Y-84042142D01*
X158942190Y-83918333D01*
X158818380Y-83856428D01*
X158570761Y-83856428D01*
X158446952Y-83918333D01*
X158385047Y-84042142D01*
X158385047Y-84165952D01*
X159004095Y-84289761D01*
X183642190Y-85949428D02*
X183146952Y-85949428D01*
X183456476Y-86816095D02*
X183456476Y-85701809D01*
X183394571Y-85578000D01*
X183270761Y-85516095D01*
X183146952Y-85516095D01*
X182527904Y-86816095D02*
X182651714Y-86754190D01*
X182713619Y-86692285D01*
X182775523Y-86568476D01*
X182775523Y-86197047D01*
X182713619Y-86073238D01*
X182651714Y-86011333D01*
X182527904Y-85949428D01*
X182342190Y-85949428D01*
X182218380Y-86011333D01*
X182156476Y-86073238D01*
X182094571Y-86197047D01*
X182094571Y-86568476D01*
X182156476Y-86692285D01*
X182218380Y-86754190D01*
X182342190Y-86816095D01*
X182527904Y-86816095D01*
X181537428Y-86816095D02*
X181537428Y-85949428D01*
X181537428Y-86197047D02*
X181475523Y-86073238D01*
X181413619Y-86011333D01*
X181289809Y-85949428D01*
X181166000Y-85949428D01*
X179866000Y-85516095D02*
X178999333Y-85516095D01*
X179866000Y-86816095D01*
X178999333Y-86816095D01*
X178504095Y-86320857D02*
X177513619Y-86320857D01*
X177080285Y-85516095D02*
X176337428Y-85516095D01*
X176708857Y-86816095D02*
X176708857Y-85516095D01*
X175346952Y-85949428D02*
X175346952Y-86816095D01*
X175904095Y-85949428D02*
X175904095Y-86630380D01*
X175842190Y-86754190D01*
X175718380Y-86816095D01*
X175532666Y-86816095D01*
X175408857Y-86754190D01*
X175346952Y-86692285D01*
X174727904Y-86816095D02*
X174727904Y-85949428D01*
X174727904Y-86197047D02*
X174666000Y-86073238D01*
X174604095Y-86011333D01*
X174480285Y-85949428D01*
X174356476Y-85949428D01*
X173923142Y-85949428D02*
X173923142Y-86816095D01*
X173923142Y-86073238D02*
X173861238Y-86011333D01*
X173737428Y-85949428D01*
X173551714Y-85949428D01*
X173427904Y-86011333D01*
X173366000Y-86135142D01*
X173366000Y-86816095D01*
X171756476Y-86816095D02*
X171756476Y-85516095D01*
X170208857Y-85454190D02*
X171323142Y-87125619D01*
X169527904Y-85516095D02*
X169280285Y-85516095D01*
X169156476Y-85578000D01*
X169032666Y-85701809D01*
X168970761Y-85949428D01*
X168970761Y-86382761D01*
X169032666Y-86630380D01*
X169156476Y-86754190D01*
X169280285Y-86816095D01*
X169527904Y-86816095D01*
X169651714Y-86754190D01*
X169775523Y-86630380D01*
X169837428Y-86382761D01*
X169837428Y-85949428D01*
X169775523Y-85701809D01*
X169651714Y-85578000D01*
X169527904Y-85516095D01*
X167423142Y-86816095D02*
X167423142Y-85516095D01*
X167423142Y-86011333D02*
X167299333Y-85949428D01*
X167051714Y-85949428D01*
X166927904Y-86011333D01*
X166866000Y-86073238D01*
X166804095Y-86197047D01*
X166804095Y-86568476D01*
X166866000Y-86692285D01*
X166927904Y-86754190D01*
X167051714Y-86816095D01*
X167299333Y-86816095D01*
X167423142Y-86754190D01*
X166061238Y-86816095D02*
X166185047Y-86754190D01*
X166246952Y-86692285D01*
X166308857Y-86568476D01*
X166308857Y-86197047D01*
X166246952Y-86073238D01*
X166185047Y-86011333D01*
X166061238Y-85949428D01*
X165875523Y-85949428D01*
X165751714Y-86011333D01*
X165689809Y-86073238D01*
X165627904Y-86197047D01*
X165627904Y-86568476D01*
X165689809Y-86692285D01*
X165751714Y-86754190D01*
X165875523Y-86816095D01*
X166061238Y-86816095D01*
X164513619Y-86816095D02*
X164513619Y-86135142D01*
X164575523Y-86011333D01*
X164699333Y-85949428D01*
X164946952Y-85949428D01*
X165070761Y-86011333D01*
X164513619Y-86754190D02*
X164637428Y-86816095D01*
X164946952Y-86816095D01*
X165070761Y-86754190D01*
X165132666Y-86630380D01*
X165132666Y-86506571D01*
X165070761Y-86382761D01*
X164946952Y-86320857D01*
X164637428Y-86320857D01*
X164513619Y-86258952D01*
X163894571Y-86816095D02*
X163894571Y-85949428D01*
X163894571Y-86197047D02*
X163832666Y-86073238D01*
X163770761Y-86011333D01*
X163646952Y-85949428D01*
X163523142Y-85949428D01*
X162532666Y-86816095D02*
X162532666Y-85516095D01*
X162532666Y-86754190D02*
X162656476Y-86816095D01*
X162904095Y-86816095D01*
X163027904Y-86754190D01*
X163089809Y-86692285D01*
X163151714Y-86568476D01*
X163151714Y-86197047D01*
X163089809Y-86073238D01*
X163027904Y-86011333D01*
X162904095Y-85949428D01*
X162656476Y-85949428D01*
X162532666Y-86011333D01*
D11*
X142573333Y-58126380D02*
X142573333Y-58840666D01*
X142620952Y-58983523D01*
X142716190Y-59078761D01*
X142859047Y-59126380D01*
X142954285Y-59126380D01*
X141573333Y-59126380D02*
X142144761Y-59126380D01*
X141859047Y-59126380D02*
X141859047Y-58126380D01*
X141954285Y-58269238D01*
X142049523Y-58364476D01*
X142144761Y-58412095D01*
X176156857Y-69031142D02*
X176204476Y-69078761D01*
X176347333Y-69126380D01*
X176442571Y-69126380D01*
X176585428Y-69078761D01*
X176680666Y-68983523D01*
X176728285Y-68888285D01*
X176775904Y-68697809D01*
X176775904Y-68554952D01*
X176728285Y-68364476D01*
X176680666Y-68269238D01*
X176585428Y-68174000D01*
X176442571Y-68126380D01*
X176347333Y-68126380D01*
X176204476Y-68174000D01*
X176156857Y-68221619D01*
X175775904Y-68221619D02*
X175728285Y-68174000D01*
X175633047Y-68126380D01*
X175394952Y-68126380D01*
X175299714Y-68174000D01*
X175252095Y-68221619D01*
X175204476Y-68316857D01*
X175204476Y-68412095D01*
X175252095Y-68554952D01*
X175823523Y-69126380D01*
X175204476Y-69126380D01*
X174347333Y-68126380D02*
X174537809Y-68126380D01*
X174633047Y-68174000D01*
X174680666Y-68221619D01*
X174775904Y-68364476D01*
X174823523Y-68554952D01*
X174823523Y-68935904D01*
X174775904Y-69031142D01*
X174728285Y-69078761D01*
X174633047Y-69126380D01*
X174442571Y-69126380D01*
X174347333Y-69078761D01*
X174299714Y-69031142D01*
X174252095Y-68935904D01*
X174252095Y-68697809D01*
X174299714Y-68602571D01*
X174347333Y-68554952D01*
X174442571Y-68507333D01*
X174633047Y-68507333D01*
X174728285Y-68554952D01*
X174775904Y-68602571D01*
X174823523Y-68697809D01*
X160123142Y-76573142D02*
X160170761Y-76525523D01*
X160218380Y-76382666D01*
X160218380Y-76287428D01*
X160170761Y-76144571D01*
X160075523Y-76049333D01*
X159980285Y-76001714D01*
X159789809Y-75954095D01*
X159646952Y-75954095D01*
X159456476Y-76001714D01*
X159361238Y-76049333D01*
X159266000Y-76144571D01*
X159218380Y-76287428D01*
X159218380Y-76382666D01*
X159266000Y-76525523D01*
X159313619Y-76573142D01*
X159313619Y-76954095D02*
X159266000Y-77001714D01*
X159218380Y-77096952D01*
X159218380Y-77335047D01*
X159266000Y-77430285D01*
X159313619Y-77477904D01*
X159408857Y-77525523D01*
X159504095Y-77525523D01*
X159646952Y-77477904D01*
X160218380Y-76906476D01*
X160218380Y-77525523D01*
X160218380Y-78001714D02*
X160218380Y-78192190D01*
X160170761Y-78287428D01*
X160123142Y-78335047D01*
X159980285Y-78430285D01*
X159789809Y-78477904D01*
X159408857Y-78477904D01*
X159313619Y-78430285D01*
X159266000Y-78382666D01*
X159218380Y-78287428D01*
X159218380Y-78096952D01*
X159266000Y-78001714D01*
X159313619Y-77954095D01*
X159408857Y-77906476D01*
X159646952Y-77906476D01*
X159742190Y-77954095D01*
X159789809Y-78001714D01*
X159837428Y-78096952D01*
X159837428Y-78287428D01*
X159789809Y-78382666D01*
X159742190Y-78430285D01*
X159646952Y-78477904D01*
X164601142Y-73932642D02*
X164648761Y-73885023D01*
X164696380Y-73742166D01*
X164696380Y-73646928D01*
X164648761Y-73504071D01*
X164553523Y-73408833D01*
X164458285Y-73361214D01*
X164267809Y-73313595D01*
X164124952Y-73313595D01*
X163934476Y-73361214D01*
X163839238Y-73408833D01*
X163744000Y-73504071D01*
X163696380Y-73646928D01*
X163696380Y-73742166D01*
X163744000Y-73885023D01*
X163791619Y-73932642D01*
X163791619Y-74313595D02*
X163744000Y-74361214D01*
X163696380Y-74456452D01*
X163696380Y-74694547D01*
X163744000Y-74789785D01*
X163791619Y-74837404D01*
X163886857Y-74885023D01*
X163982095Y-74885023D01*
X164124952Y-74837404D01*
X164696380Y-74265976D01*
X164696380Y-74885023D01*
X164029714Y-75742166D02*
X164696380Y-75742166D01*
X163648761Y-75504071D02*
X164363047Y-75265976D01*
X164363047Y-75885023D01*
X169775142Y-75811142D02*
X169822761Y-75763523D01*
X169870380Y-75620666D01*
X169870380Y-75525428D01*
X169822761Y-75382571D01*
X169727523Y-75287333D01*
X169632285Y-75239714D01*
X169441809Y-75192095D01*
X169298952Y-75192095D01*
X169108476Y-75239714D01*
X169013238Y-75287333D01*
X168918000Y-75382571D01*
X168870380Y-75525428D01*
X168870380Y-75620666D01*
X168918000Y-75763523D01*
X168965619Y-75811142D01*
X168965619Y-76192095D02*
X168918000Y-76239714D01*
X168870380Y-76334952D01*
X168870380Y-76573047D01*
X168918000Y-76668285D01*
X168965619Y-76715904D01*
X169060857Y-76763523D01*
X169156095Y-76763523D01*
X169298952Y-76715904D01*
X169870380Y-76144476D01*
X169870380Y-76763523D01*
X169298952Y-77334952D02*
X169251333Y-77239714D01*
X169203714Y-77192095D01*
X169108476Y-77144476D01*
X169060857Y-77144476D01*
X168965619Y-77192095D01*
X168918000Y-77239714D01*
X168870380Y-77334952D01*
X168870380Y-77525428D01*
X168918000Y-77620666D01*
X168965619Y-77668285D01*
X169060857Y-77715904D01*
X169108476Y-77715904D01*
X169203714Y-77668285D01*
X169251333Y-77620666D01*
X169298952Y-77525428D01*
X169298952Y-77334952D01*
X169346571Y-77239714D01*
X169394190Y-77192095D01*
X169489428Y-77144476D01*
X169679904Y-77144476D01*
X169775142Y-77192095D01*
X169822761Y-77239714D01*
X169870380Y-77334952D01*
X169870380Y-77525428D01*
X169822761Y-77620666D01*
X169775142Y-77668285D01*
X169679904Y-77715904D01*
X169489428Y-77715904D01*
X169394190Y-77668285D01*
X169346571Y-77620666D01*
X169298952Y-77525428D01*
X168599142Y-64280642D02*
X168646761Y-64233023D01*
X168694380Y-64090166D01*
X168694380Y-63994928D01*
X168646761Y-63852071D01*
X168551523Y-63756833D01*
X168456285Y-63709214D01*
X168265809Y-63661595D01*
X168122952Y-63661595D01*
X167932476Y-63709214D01*
X167837238Y-63756833D01*
X167742000Y-63852071D01*
X167694380Y-63994928D01*
X167694380Y-64090166D01*
X167742000Y-64233023D01*
X167789619Y-64280642D01*
X167789619Y-64661595D02*
X167742000Y-64709214D01*
X167694380Y-64804452D01*
X167694380Y-65042547D01*
X167742000Y-65137785D01*
X167789619Y-65185404D01*
X167884857Y-65233023D01*
X167980095Y-65233023D01*
X168122952Y-65185404D01*
X168694380Y-64613976D01*
X168694380Y-65233023D01*
X167694380Y-65566357D02*
X167694380Y-66233023D01*
X168694380Y-65804452D01*
X163075857Y-69793142D02*
X163123476Y-69840761D01*
X163266333Y-69888380D01*
X163361571Y-69888380D01*
X163504428Y-69840761D01*
X163599666Y-69745523D01*
X163647285Y-69650285D01*
X163694904Y-69459809D01*
X163694904Y-69316952D01*
X163647285Y-69126476D01*
X163599666Y-69031238D01*
X163504428Y-68936000D01*
X163361571Y-68888380D01*
X163266333Y-68888380D01*
X163123476Y-68936000D01*
X163075857Y-68983619D01*
X162742523Y-68888380D02*
X162123476Y-68888380D01*
X162456809Y-69269333D01*
X162313952Y-69269333D01*
X162218714Y-69316952D01*
X162171095Y-69364571D01*
X162123476Y-69459809D01*
X162123476Y-69697904D01*
X162171095Y-69793142D01*
X162218714Y-69840761D01*
X162313952Y-69888380D01*
X162599666Y-69888380D01*
X162694904Y-69840761D01*
X162742523Y-69793142D01*
X161171095Y-69888380D02*
X161742523Y-69888380D01*
X161456809Y-69888380D02*
X161456809Y-68888380D01*
X161552047Y-69031238D01*
X161647285Y-69126476D01*
X161742523Y-69174095D01*
X170568857Y-70621142D02*
X170616476Y-70668761D01*
X170759333Y-70716380D01*
X170854571Y-70716380D01*
X170997428Y-70668761D01*
X171092666Y-70573523D01*
X171140285Y-70478285D01*
X171187904Y-70287809D01*
X171187904Y-70144952D01*
X171140285Y-69954476D01*
X171092666Y-69859238D01*
X170997428Y-69764000D01*
X170854571Y-69716380D01*
X170759333Y-69716380D01*
X170616476Y-69764000D01*
X170568857Y-69811619D01*
X170235523Y-69716380D02*
X169616476Y-69716380D01*
X169949809Y-70097333D01*
X169806952Y-70097333D01*
X169711714Y-70144952D01*
X169664095Y-70192571D01*
X169616476Y-70287809D01*
X169616476Y-70525904D01*
X169664095Y-70621142D01*
X169711714Y-70668761D01*
X169806952Y-70716380D01*
X170092666Y-70716380D01*
X170187904Y-70668761D01*
X170235523Y-70621142D01*
X168997428Y-69716380D02*
X168902190Y-69716380D01*
X168806952Y-69764000D01*
X168759333Y-69811619D01*
X168711714Y-69906857D01*
X168664095Y-70097333D01*
X168664095Y-70335428D01*
X168711714Y-70525904D01*
X168759333Y-70621142D01*
X168806952Y-70668761D01*
X168902190Y-70716380D01*
X168997428Y-70716380D01*
X169092666Y-70668761D01*
X169140285Y-70621142D01*
X169187904Y-70525904D01*
X169235523Y-70335428D01*
X169235523Y-70097333D01*
X169187904Y-69906857D01*
X169140285Y-69811619D01*
X169092666Y-69764000D01*
X168997428Y-69716380D01*
X167649142Y-67582642D02*
X167696761Y-67535023D01*
X167744380Y-67392166D01*
X167744380Y-67296928D01*
X167696761Y-67154071D01*
X167601523Y-67058833D01*
X167506285Y-67011214D01*
X167315809Y-66963595D01*
X167172952Y-66963595D01*
X166982476Y-67011214D01*
X166887238Y-67058833D01*
X166792000Y-67154071D01*
X166744380Y-67296928D01*
X166744380Y-67392166D01*
X166792000Y-67535023D01*
X166839619Y-67582642D01*
X166839619Y-67963595D02*
X166792000Y-68011214D01*
X166744380Y-68106452D01*
X166744380Y-68344547D01*
X166792000Y-68439785D01*
X166839619Y-68487404D01*
X166934857Y-68535023D01*
X167030095Y-68535023D01*
X167172952Y-68487404D01*
X167744380Y-67915976D01*
X167744380Y-68535023D01*
X166744380Y-69439785D02*
X166744380Y-68963595D01*
X167220571Y-68915976D01*
X167172952Y-68963595D01*
X167125333Y-69058833D01*
X167125333Y-69296928D01*
X167172952Y-69392166D01*
X167220571Y-69439785D01*
X167315809Y-69487404D01*
X167553904Y-69487404D01*
X167649142Y-69439785D01*
X167696761Y-69392166D01*
X167744380Y-69296928D01*
X167744380Y-69058833D01*
X167696761Y-68963595D01*
X167649142Y-68915976D01*
D12*
X135830000Y-52010000D02*
X135830000Y-54610000D01*
X138430000Y-57210000D02*
X186750000Y-57210000D01*
X135830000Y-55880000D02*
X135830000Y-57210000D01*
X135830000Y-52010000D02*
X186750000Y-52010000D01*
X138430000Y-54610000D02*
X138430000Y-57210000D01*
X135830000Y-54610000D02*
X138430000Y-54610000D01*
X135830000Y-57210000D02*
X137160000Y-57210000D01*
X186750000Y-52010000D02*
X186750000Y-57210000D01*
X175660267Y-69594000D02*
X175367733Y-69594000D01*
X175660267Y-70614000D02*
X175367733Y-70614000D01*
X160780000Y-77642767D02*
X160780000Y-77350233D01*
X161800000Y-77642767D02*
X161800000Y-77350233D01*
X162304000Y-74721767D02*
X162304000Y-74429233D01*
X163324000Y-74721767D02*
X163324000Y-74429233D01*
X171452000Y-75176767D02*
X171452000Y-74884233D01*
X170432000Y-75176767D02*
X170432000Y-74884233D01*
X170182000Y-64777233D02*
X170182000Y-65069767D01*
X169162000Y-64777233D02*
X169162000Y-65069767D01*
X161790767Y-70356000D02*
X161498233Y-70356000D01*
X161790767Y-71376000D02*
X161498233Y-71376000D01*
X169779733Y-69344000D02*
X170072267Y-69344000D01*
X169779733Y-68324000D02*
X170072267Y-68324000D01*
X166372000Y-68371767D02*
X166372000Y-68079233D01*
X165352000Y-68371767D02*
X165352000Y-68079233D01*
%LPC*%
D13*
X182880000Y-93980000D03*
D14*
X180340000Y-91440000D03*
X185420000Y-91440000D03*
X185420000Y-96520000D03*
X180340000Y-96520000D03*
D15*
X182880000Y-104140000D03*
X139700000Y-104140000D03*
D13*
X170942000Y-104140000D03*
D14*
X173482000Y-106680000D03*
X168402000Y-101600000D03*
X173482000Y-101600000D03*
X168402000Y-106680000D03*
D16*
X137160000Y-55880000D03*
D17*
X137160000Y-53340000D03*
X139700000Y-55880000D03*
X139700000Y-53340000D03*
X142240000Y-55880000D03*
X142240000Y-53340000D03*
X144780000Y-55880000D03*
X144780000Y-53340000D03*
X147320000Y-55880000D03*
X147320000Y-53340000D03*
X149860000Y-55880000D03*
X149860000Y-53340000D03*
X152400000Y-55880000D03*
X152400000Y-53340000D03*
X154940000Y-55880000D03*
X154940000Y-53340000D03*
X157480000Y-55880000D03*
X157480000Y-53340000D03*
X160020000Y-55880000D03*
X160020000Y-53340000D03*
X162560000Y-55880000D03*
X162560000Y-53340000D03*
X165100000Y-55880000D03*
X165100000Y-53340000D03*
X167640000Y-55880000D03*
X167640000Y-53340000D03*
X170180000Y-55880000D03*
X170180000Y-53340000D03*
X172720000Y-55880000D03*
X172720000Y-53340000D03*
X175260000Y-55880000D03*
X175260000Y-53340000D03*
X177800000Y-55880000D03*
X177800000Y-53340000D03*
X180340000Y-55880000D03*
X180340000Y-53340000D03*
X182880000Y-55880000D03*
X182880000Y-53340000D03*
X185420000Y-55880000D03*
X185420000Y-53340000D03*
D18*
X176376500Y-70104000D03*
X174651500Y-70104000D03*
D19*
X161290000Y-78359000D03*
X161290000Y-76634000D03*
X162814000Y-75438000D03*
X162814000Y-73713000D03*
X170942000Y-75893000D03*
X170942000Y-74168000D03*
D20*
X169672000Y-64061000D03*
X169672000Y-65786000D03*
D18*
X162507000Y-70866000D03*
X160782000Y-70866000D03*
D21*
X169063500Y-68834000D03*
X170788500Y-68834000D03*
D19*
X165862000Y-69088000D03*
X165862000Y-67363000D03*
M02*
