G04 #@! TF.GenerationSoftware,KiCad,Pcbnew,6.0.9-8da3e8f707~116~ubuntu20.04.1*
G04 #@! TF.CreationDate,2022-12-06T17:06:51+01:00*
G04 #@! TF.ProjectId,iqdac,69716461-632e-46b6-9963-61645f706362,rev?*
G04 #@! TF.SameCoordinates,Original*
G04 #@! TF.FileFunction,Copper,L2,Bot*
G04 #@! TF.FilePolarity,Positive*
%FSLAX46Y46*%
G04 Gerber Fmt 4.6, Leading zero omitted, Abs format (unit mm)*
G04 Created by KiCad (PCBNEW 6.0.9-8da3e8f707~116~ubuntu20.04.1) date 2022-12-06 17:06:51*
%MOMM*%
%LPD*%
G01*
G04 APERTURE LIST*
G04 Aperture macros list*
%AMRoundRect*
0 Rectangle with rounded corners*
0 $1 Rounding radius*
0 $2 $3 $4 $5 $6 $7 $8 $9 X,Y pos of 4 corners*
0 Add a 4 corners polygon primitive as box body*
4,1,4,$2,$3,$4,$5,$6,$7,$8,$9,$2,$3,0*
0 Add four circle primitives for the rounded corners*
1,1,$1+$1,$2,$3*
1,1,$1+$1,$4,$5*
1,1,$1+$1,$6,$7*
1,1,$1+$1,$8,$9*
0 Add four rect primitives between the rounded corners*
20,1,$1+$1,$2,$3,$4,$5,0*
20,1,$1+$1,$4,$5,$6,$7,0*
20,1,$1+$1,$6,$7,$8,$9,0*
20,1,$1+$1,$8,$9,$2,$3,0*%
G04 Aperture macros list end*
G04 #@! TA.AperFunction,ComponentPad*
%ADD10C,2.050000*%
G04 #@! TD*
G04 #@! TA.AperFunction,ComponentPad*
%ADD11C,2.250000*%
G04 #@! TD*
G04 #@! TA.AperFunction,ComponentPad*
%ADD12R,1.700000X1.700000*%
G04 #@! TD*
G04 #@! TA.AperFunction,ComponentPad*
%ADD13O,1.700000X1.700000*%
G04 #@! TD*
G04 #@! TA.AperFunction,SMDPad,CuDef*
%ADD14RoundRect,0.237500X0.300000X0.237500X-0.300000X0.237500X-0.300000X-0.237500X0.300000X-0.237500X0*%
G04 #@! TD*
G04 #@! TA.AperFunction,SMDPad,CuDef*
%ADD15RoundRect,0.237500X0.237500X-0.300000X0.237500X0.300000X-0.237500X0.300000X-0.237500X-0.300000X0*%
G04 #@! TD*
G04 #@! TA.AperFunction,SMDPad,CuDef*
%ADD16RoundRect,0.237500X-0.237500X0.300000X-0.237500X-0.300000X0.237500X-0.300000X0.237500X0.300000X0*%
G04 #@! TD*
G04 #@! TA.AperFunction,SMDPad,CuDef*
%ADD17RoundRect,0.237500X-0.300000X-0.237500X0.300000X-0.237500X0.300000X0.237500X-0.300000X0.237500X0*%
G04 #@! TD*
G04 #@! TA.AperFunction,ViaPad*
%ADD18C,0.800000*%
G04 #@! TD*
G04 #@! TA.AperFunction,Conductor*
%ADD19C,0.750000*%
G04 #@! TD*
G04 #@! TA.AperFunction,Conductor*
%ADD20C,0.420000*%
G04 #@! TD*
G04 #@! TA.AperFunction,Conductor*
%ADD21C,0.250000*%
G04 #@! TD*
G04 APERTURE END LIST*
D10*
X182880000Y-93980000D03*
D11*
X180340000Y-91440000D03*
X185420000Y-91440000D03*
X185420000Y-96520000D03*
X180340000Y-96520000D03*
D10*
X170942000Y-104140000D03*
D11*
X173482000Y-106680000D03*
X168402000Y-101600000D03*
X173482000Y-101600000D03*
X168402000Y-106680000D03*
D12*
X137160000Y-55880000D03*
D13*
X137160000Y-53340000D03*
X139700000Y-55880000D03*
X139700000Y-53340000D03*
X142240000Y-55880000D03*
X142240000Y-53340000D03*
X144780000Y-55880000D03*
X144780000Y-53340000D03*
X147320000Y-55880000D03*
X147320000Y-53340000D03*
X149860000Y-55880000D03*
X149860000Y-53340000D03*
X152400000Y-55880000D03*
X152400000Y-53340000D03*
X154940000Y-55880000D03*
X154940000Y-53340000D03*
X157480000Y-55880000D03*
X157480000Y-53340000D03*
X160020000Y-55880000D03*
X160020000Y-53340000D03*
X162560000Y-55880000D03*
X162560000Y-53340000D03*
X165100000Y-55880000D03*
X165100000Y-53340000D03*
X167640000Y-55880000D03*
X167640000Y-53340000D03*
X170180000Y-55880000D03*
X170180000Y-53340000D03*
X172720000Y-55880000D03*
X172720000Y-53340000D03*
X175260000Y-55880000D03*
X175260000Y-53340000D03*
X177800000Y-55880000D03*
X177800000Y-53340000D03*
X180340000Y-55880000D03*
X180340000Y-53340000D03*
X182880000Y-55880000D03*
X182880000Y-53340000D03*
X185420000Y-55880000D03*
X185420000Y-53340000D03*
D14*
X176376500Y-70104000D03*
X174651500Y-70104000D03*
D15*
X161290000Y-78359000D03*
X161290000Y-76634000D03*
X162814000Y-75438000D03*
X162814000Y-73713000D03*
X170942000Y-75893000D03*
X170942000Y-74168000D03*
D16*
X169672000Y-64061000D03*
X169672000Y-65786000D03*
D14*
X162507000Y-70866000D03*
X160782000Y-70866000D03*
D17*
X169063500Y-68834000D03*
X170788500Y-68834000D03*
D15*
X165862000Y-69088000D03*
X165862000Y-67363000D03*
D18*
X137160000Y-78232000D03*
X150876000Y-87884000D03*
X172593000Y-74295000D03*
X160778300Y-69584100D03*
X161290000Y-74900000D03*
X172158450Y-68887550D03*
X153924000Y-78740000D03*
X150622000Y-64008000D03*
X144272000Y-63246000D03*
X164585200Y-68376700D03*
X153083200Y-103480000D03*
X170942000Y-77470000D03*
X168402000Y-74676000D03*
X176126600Y-72136200D03*
X147396200Y-103721100D03*
X149987000Y-73837800D03*
X159258000Y-85598000D03*
X163322000Y-98298000D03*
X139446000Y-87630000D03*
X165862000Y-72136000D03*
X159258000Y-82550000D03*
X163068000Y-89154000D03*
X165862000Y-74676000D03*
X157648000Y-78400000D03*
X157353000Y-72644000D03*
X158239400Y-103480000D03*
X142240000Y-98806000D03*
X140970000Y-62484000D03*
X175768000Y-97536000D03*
X171600000Y-63500000D03*
X156843500Y-98285500D03*
X176107200Y-67375100D03*
X145542000Y-82550000D03*
X146812000Y-69850000D03*
X177850800Y-88519000D03*
X168402000Y-72136000D03*
X150876000Y-98298000D03*
X147066000Y-85598000D03*
X180594000Y-79756000D03*
X163322000Y-103492500D03*
X162814000Y-77724000D03*
X167100000Y-73400000D03*
X148913800Y-72871500D03*
X162099500Y-72644000D03*
X169616200Y-67364400D03*
X173393900Y-68140500D03*
X173414800Y-70130000D03*
X162132600Y-68357600D03*
X172764200Y-82945100D03*
X173418300Y-73125300D03*
X185420000Y-63754000D03*
X169854300Y-82524200D03*
D19*
X137160000Y-55880000D02*
X137160000Y-78232000D01*
X137160000Y-90932000D02*
X140208000Y-93980000D01*
X140208000Y-93980000D02*
X148082000Y-93980000D01*
X150876000Y-91186000D02*
X150876000Y-87884000D01*
X148082000Y-93980000D02*
X150876000Y-91186000D01*
X137160000Y-78232000D02*
X137160000Y-90932000D01*
D20*
X163377800Y-69584100D02*
X164585200Y-68376700D01*
X160782000Y-70866000D02*
X160782000Y-73025000D01*
X157764000Y-74900000D02*
X161290000Y-74900000D01*
X160778300Y-70862300D02*
X160782000Y-70866000D01*
X137160000Y-53340000D02*
X138440000Y-54620000D01*
X160778300Y-69584100D02*
X163377800Y-69584100D01*
X172158450Y-68887550D02*
X170842050Y-68887550D01*
X161290000Y-73533000D02*
X161290000Y-74900000D01*
X138440000Y-57414000D02*
X144272000Y-63246000D01*
X153924000Y-78740000D02*
X157764000Y-74900000D01*
X144272000Y-63246000D02*
X145161000Y-63246000D01*
X145923000Y-64008000D02*
X150622000Y-64008000D01*
X153924000Y-78740000D02*
X146304000Y-78740000D01*
X160782000Y-73025000D02*
X161290000Y-73533000D01*
X145161000Y-63246000D02*
X145923000Y-64008000D01*
X146304000Y-78740000D02*
X144272000Y-76708000D01*
X160778300Y-69584100D02*
X160778300Y-70862300D01*
X161290000Y-76353500D02*
X161036000Y-76607500D01*
X161290000Y-74900000D02*
X161290000Y-76353500D01*
X171042500Y-74295000D02*
X172593000Y-74295000D01*
X170842050Y-68887550D02*
X170788500Y-68834000D01*
X138440000Y-54620000D02*
X138440000Y-57414000D01*
X144272000Y-76708000D02*
X144272000Y-63246000D01*
D21*
X162306000Y-78359000D02*
X161290000Y-78359000D01*
D19*
X146558000Y-62738000D02*
X139700000Y-55880000D01*
D21*
X176107200Y-68411200D02*
X176403000Y-68707000D01*
X167132000Y-69088000D02*
X167386000Y-68834000D01*
X170942000Y-75893000D02*
X169873000Y-75893000D01*
X176403000Y-68707000D02*
X176403000Y-70077500D01*
X169672000Y-64061000D02*
X169672000Y-62738000D01*
D19*
X171600000Y-63500000D02*
X174498000Y-63500000D01*
X170838000Y-62738000D02*
X169672000Y-62738000D01*
D21*
X162814000Y-77851000D02*
X162306000Y-78359000D01*
X176126600Y-72136200D02*
X169799200Y-72136200D01*
X169317500Y-75337500D02*
X169317500Y-71654500D01*
X176403000Y-71247000D02*
X176403000Y-70130500D01*
X176126600Y-71523400D02*
X176403000Y-71247000D01*
D19*
X169672000Y-62738000D02*
X146558000Y-62738000D01*
X176107200Y-65109200D02*
X176107200Y-67375100D01*
D21*
X162507000Y-70866000D02*
X165354000Y-70866000D01*
X169799200Y-72136200D02*
X169418000Y-71755000D01*
X176126600Y-71523400D02*
X176126600Y-72136200D01*
X169037000Y-68860500D02*
X169063500Y-68834000D01*
X167386000Y-68834000D02*
X169063500Y-68834000D01*
X176403000Y-70077500D02*
X176376500Y-70104000D01*
X169317500Y-71654500D02*
X169037000Y-71374000D01*
D19*
X174498000Y-63500000D02*
X176107200Y-65109200D01*
D21*
X165862000Y-70358000D02*
X165862000Y-69088000D01*
X176403000Y-70130500D02*
X176376500Y-70104000D01*
X162814000Y-75438000D02*
X162814000Y-77851000D01*
X169873000Y-75893000D02*
X169317500Y-75337500D01*
D19*
X171600000Y-63500000D02*
X170838000Y-62738000D01*
D21*
X165354000Y-70866000D02*
X165862000Y-70358000D01*
X176107200Y-67375100D02*
X176107200Y-68411200D01*
X169037000Y-71374000D02*
X169037000Y-68860500D01*
X165862000Y-69088000D02*
X167132000Y-69088000D01*
D19*
X148913800Y-72871500D02*
X148913800Y-71558200D01*
X162101000Y-68326000D02*
X162132600Y-68357600D01*
D20*
X162560000Y-72644000D02*
X162814000Y-72898000D01*
D19*
X169616200Y-67364400D02*
X172617800Y-67364400D01*
X173393900Y-70109100D02*
X173414800Y-70130000D01*
D20*
X169616200Y-65841800D02*
X169672000Y-65786000D01*
X162814000Y-72898000D02*
X162814000Y-73713000D01*
D19*
X152146000Y-68326000D02*
X162101000Y-68326000D01*
D20*
X162099500Y-72644000D02*
X162560000Y-72644000D01*
D19*
X148913800Y-71558200D02*
X152146000Y-68326000D01*
D20*
X173388800Y-70104000D02*
X173414800Y-70130000D01*
X169616200Y-67364400D02*
X169616200Y-65841800D01*
D19*
X172617800Y-67364400D02*
X173393900Y-68140500D01*
X162132600Y-68357600D02*
X163125800Y-67364400D01*
X173393900Y-68140500D02*
X173393900Y-70109100D01*
X174651500Y-70104000D02*
X173440800Y-70104000D01*
X173440800Y-70104000D02*
X173414800Y-70130000D01*
X163125800Y-67364400D02*
X169616200Y-67364400D01*
D21*
X186609500Y-69099800D02*
X172764200Y-82945100D01*
X185420000Y-54515300D02*
X185787300Y-54515300D01*
X186609500Y-55337500D02*
X186609500Y-69099800D01*
X185420000Y-53340000D02*
X185420000Y-54515300D01*
X185787300Y-54515300D02*
X186609500Y-55337500D01*
X182880000Y-53340000D02*
X182880000Y-54515300D01*
X182880000Y-54515300D02*
X183177001Y-54515300D01*
X184055000Y-70381508D02*
X179288254Y-75148254D01*
X179288254Y-75148254D02*
X175441254Y-75148254D01*
X184055000Y-55393299D02*
X184055000Y-70381508D01*
X175441254Y-75148254D02*
X173418300Y-73125300D01*
X183177001Y-54515300D02*
X184055000Y-55393299D01*
X170844500Y-81534000D02*
X169854300Y-82524200D01*
X173510452Y-81562452D02*
X171605452Y-81562452D01*
X185420000Y-63754000D02*
X185420000Y-69652904D01*
X171605452Y-81562452D02*
X171577000Y-81534000D01*
X185420000Y-69652904D02*
X173510452Y-81562452D01*
X171577000Y-81534000D02*
X170844500Y-81534000D01*
G04 #@! TA.AperFunction,Conductor*
G36*
X187140121Y-51582002D02*
G01*
X187186614Y-51635658D01*
X187198000Y-51688000D01*
X187198000Y-54725905D01*
X187177998Y-54794026D01*
X187124342Y-54840519D01*
X187054068Y-54850623D01*
X186989488Y-54821129D01*
X186982905Y-54815000D01*
X186505899Y-54337994D01*
X186471873Y-54275682D01*
X186476938Y-54204867D01*
X186492671Y-54175373D01*
X186585435Y-54046277D01*
X186588453Y-54042077D01*
X186601995Y-54014678D01*
X186685136Y-53846453D01*
X186685137Y-53846451D01*
X186687430Y-53841811D01*
X186752370Y-53628069D01*
X186781529Y-53406590D01*
X186783156Y-53340000D01*
X186764852Y-53117361D01*
X186710431Y-52900702D01*
X186621354Y-52695840D01*
X186500014Y-52508277D01*
X186349670Y-52343051D01*
X186345619Y-52339852D01*
X186345615Y-52339848D01*
X186178414Y-52207800D01*
X186178410Y-52207798D01*
X186174359Y-52204598D01*
X186138028Y-52184542D01*
X186122136Y-52175769D01*
X185978789Y-52096638D01*
X185973920Y-52094914D01*
X185973916Y-52094912D01*
X185773087Y-52023795D01*
X185773083Y-52023794D01*
X185768212Y-52022069D01*
X185763119Y-52021162D01*
X185763116Y-52021161D01*
X185553373Y-51983800D01*
X185553367Y-51983799D01*
X185548284Y-51982894D01*
X185474452Y-51981992D01*
X185330081Y-51980228D01*
X185330079Y-51980228D01*
X185324911Y-51980165D01*
X185104091Y-52013955D01*
X184891756Y-52083357D01*
X184693607Y-52186507D01*
X184689474Y-52189610D01*
X184689471Y-52189612D01*
X184519100Y-52317530D01*
X184514965Y-52320635D01*
X184360629Y-52482138D01*
X184253201Y-52639621D01*
X184198293Y-52684621D01*
X184127768Y-52692792D01*
X184064021Y-52661538D01*
X184043324Y-52637054D01*
X183962822Y-52512617D01*
X183962820Y-52512614D01*
X183960014Y-52508277D01*
X183809670Y-52343051D01*
X183805619Y-52339852D01*
X183805615Y-52339848D01*
X183638414Y-52207800D01*
X183638410Y-52207798D01*
X183634359Y-52204598D01*
X183598028Y-52184542D01*
X183582136Y-52175769D01*
X183438789Y-52096638D01*
X183433920Y-52094914D01*
X183433916Y-52094912D01*
X183233087Y-52023795D01*
X183233083Y-52023794D01*
X183228212Y-52022069D01*
X183223119Y-52021162D01*
X183223116Y-52021161D01*
X183013373Y-51983800D01*
X183013367Y-51983799D01*
X183008284Y-51982894D01*
X182934452Y-51981992D01*
X182790081Y-51980228D01*
X182790079Y-51980228D01*
X182784911Y-51980165D01*
X182564091Y-52013955D01*
X182351756Y-52083357D01*
X182153607Y-52186507D01*
X182149474Y-52189610D01*
X182149471Y-52189612D01*
X181979100Y-52317530D01*
X181974965Y-52320635D01*
X181820629Y-52482138D01*
X181713201Y-52639621D01*
X181658293Y-52684621D01*
X181587768Y-52692792D01*
X181524021Y-52661538D01*
X181503324Y-52637054D01*
X181422822Y-52512617D01*
X181422820Y-52512614D01*
X181420014Y-52508277D01*
X181269670Y-52343051D01*
X181265619Y-52339852D01*
X181265615Y-52339848D01*
X181098414Y-52207800D01*
X181098410Y-52207798D01*
X181094359Y-52204598D01*
X181058028Y-52184542D01*
X181042136Y-52175769D01*
X180898789Y-52096638D01*
X180893920Y-52094914D01*
X180893916Y-52094912D01*
X180693087Y-52023795D01*
X180693083Y-52023794D01*
X180688212Y-52022069D01*
X180683119Y-52021162D01*
X180683116Y-52021161D01*
X180473373Y-51983800D01*
X180473367Y-51983799D01*
X180468284Y-51982894D01*
X180394452Y-51981992D01*
X180250081Y-51980228D01*
X180250079Y-51980228D01*
X180244911Y-51980165D01*
X180024091Y-52013955D01*
X179811756Y-52083357D01*
X179613607Y-52186507D01*
X179609474Y-52189610D01*
X179609471Y-52189612D01*
X179439100Y-52317530D01*
X179434965Y-52320635D01*
X179280629Y-52482138D01*
X179173201Y-52639621D01*
X179118293Y-52684621D01*
X179047768Y-52692792D01*
X178984021Y-52661538D01*
X178963324Y-52637054D01*
X178882822Y-52512617D01*
X178882820Y-52512614D01*
X178880014Y-52508277D01*
X178729670Y-52343051D01*
X178725619Y-52339852D01*
X178725615Y-52339848D01*
X178558414Y-52207800D01*
X178558410Y-52207798D01*
X178554359Y-52204598D01*
X178518028Y-52184542D01*
X178502136Y-52175769D01*
X178358789Y-52096638D01*
X178353920Y-52094914D01*
X178353916Y-52094912D01*
X178153087Y-52023795D01*
X178153083Y-52023794D01*
X178148212Y-52022069D01*
X178143119Y-52021162D01*
X178143116Y-52021161D01*
X177933373Y-51983800D01*
X177933367Y-51983799D01*
X177928284Y-51982894D01*
X177854452Y-51981992D01*
X177710081Y-51980228D01*
X177710079Y-51980228D01*
X177704911Y-51980165D01*
X177484091Y-52013955D01*
X177271756Y-52083357D01*
X177073607Y-52186507D01*
X177069474Y-52189610D01*
X177069471Y-52189612D01*
X176899100Y-52317530D01*
X176894965Y-52320635D01*
X176740629Y-52482138D01*
X176633201Y-52639621D01*
X176578293Y-52684621D01*
X176507768Y-52692792D01*
X176444021Y-52661538D01*
X176423324Y-52637054D01*
X176342822Y-52512617D01*
X176342820Y-52512614D01*
X176340014Y-52508277D01*
X176189670Y-52343051D01*
X176185619Y-52339852D01*
X176185615Y-52339848D01*
X176018414Y-52207800D01*
X176018410Y-52207798D01*
X176014359Y-52204598D01*
X175978028Y-52184542D01*
X175962136Y-52175769D01*
X175818789Y-52096638D01*
X175813920Y-52094914D01*
X175813916Y-52094912D01*
X175613087Y-52023795D01*
X175613083Y-52023794D01*
X175608212Y-52022069D01*
X175603119Y-52021162D01*
X175603116Y-52021161D01*
X175393373Y-51983800D01*
X175393367Y-51983799D01*
X175388284Y-51982894D01*
X175314452Y-51981992D01*
X175170081Y-51980228D01*
X175170079Y-51980228D01*
X175164911Y-51980165D01*
X174944091Y-52013955D01*
X174731756Y-52083357D01*
X174533607Y-52186507D01*
X174529474Y-52189610D01*
X174529471Y-52189612D01*
X174359100Y-52317530D01*
X174354965Y-52320635D01*
X174200629Y-52482138D01*
X174093201Y-52639621D01*
X174038293Y-52684621D01*
X173967768Y-52692792D01*
X173904021Y-52661538D01*
X173883324Y-52637054D01*
X173802822Y-52512617D01*
X173802820Y-52512614D01*
X173800014Y-52508277D01*
X173649670Y-52343051D01*
X173645619Y-52339852D01*
X173645615Y-52339848D01*
X173478414Y-52207800D01*
X173478410Y-52207798D01*
X173474359Y-52204598D01*
X173438028Y-52184542D01*
X173422136Y-52175769D01*
X173278789Y-52096638D01*
X173273920Y-52094914D01*
X173273916Y-52094912D01*
X173073087Y-52023795D01*
X173073083Y-52023794D01*
X173068212Y-52022069D01*
X173063119Y-52021162D01*
X173063116Y-52021161D01*
X172853373Y-51983800D01*
X172853367Y-51983799D01*
X172848284Y-51982894D01*
X172774452Y-51981992D01*
X172630081Y-51980228D01*
X172630079Y-51980228D01*
X172624911Y-51980165D01*
X172404091Y-52013955D01*
X172191756Y-52083357D01*
X171993607Y-52186507D01*
X171989474Y-52189610D01*
X171989471Y-52189612D01*
X171819100Y-52317530D01*
X171814965Y-52320635D01*
X171660629Y-52482138D01*
X171553201Y-52639621D01*
X171498293Y-52684621D01*
X171427768Y-52692792D01*
X171364021Y-52661538D01*
X171343324Y-52637054D01*
X171262822Y-52512617D01*
X171262820Y-52512614D01*
X171260014Y-52508277D01*
X171109670Y-52343051D01*
X171105619Y-52339852D01*
X171105615Y-52339848D01*
X170938414Y-52207800D01*
X170938410Y-52207798D01*
X170934359Y-52204598D01*
X170898028Y-52184542D01*
X170882136Y-52175769D01*
X170738789Y-52096638D01*
X170733920Y-52094914D01*
X170733916Y-52094912D01*
X170533087Y-52023795D01*
X170533083Y-52023794D01*
X170528212Y-52022069D01*
X170523119Y-52021162D01*
X170523116Y-52021161D01*
X170313373Y-51983800D01*
X170313367Y-51983799D01*
X170308284Y-51982894D01*
X170234452Y-51981992D01*
X170090081Y-51980228D01*
X170090079Y-51980228D01*
X170084911Y-51980165D01*
X169864091Y-52013955D01*
X169651756Y-52083357D01*
X169453607Y-52186507D01*
X169449474Y-52189610D01*
X169449471Y-52189612D01*
X169279100Y-52317530D01*
X169274965Y-52320635D01*
X169120629Y-52482138D01*
X169013201Y-52639621D01*
X168958293Y-52684621D01*
X168887768Y-52692792D01*
X168824021Y-52661538D01*
X168803324Y-52637054D01*
X168722822Y-52512617D01*
X168722820Y-52512614D01*
X168720014Y-52508277D01*
X168569670Y-52343051D01*
X168565619Y-52339852D01*
X168565615Y-52339848D01*
X168398414Y-52207800D01*
X168398410Y-52207798D01*
X168394359Y-52204598D01*
X168358028Y-52184542D01*
X168342136Y-52175769D01*
X168198789Y-52096638D01*
X168193920Y-52094914D01*
X168193916Y-52094912D01*
X167993087Y-52023795D01*
X167993083Y-52023794D01*
X167988212Y-52022069D01*
X167983119Y-52021162D01*
X167983116Y-52021161D01*
X167773373Y-51983800D01*
X167773367Y-51983799D01*
X167768284Y-51982894D01*
X167694452Y-51981992D01*
X167550081Y-51980228D01*
X167550079Y-51980228D01*
X167544911Y-51980165D01*
X167324091Y-52013955D01*
X167111756Y-52083357D01*
X166913607Y-52186507D01*
X166909474Y-52189610D01*
X166909471Y-52189612D01*
X166739100Y-52317530D01*
X166734965Y-52320635D01*
X166580629Y-52482138D01*
X166473201Y-52639621D01*
X166418293Y-52684621D01*
X166347768Y-52692792D01*
X166284021Y-52661538D01*
X166263324Y-52637054D01*
X166182822Y-52512617D01*
X166182820Y-52512614D01*
X166180014Y-52508277D01*
X166029670Y-52343051D01*
X166025619Y-52339852D01*
X166025615Y-52339848D01*
X165858414Y-52207800D01*
X165858410Y-52207798D01*
X165854359Y-52204598D01*
X165818028Y-52184542D01*
X165802136Y-52175769D01*
X165658789Y-52096638D01*
X165653920Y-52094914D01*
X165653916Y-52094912D01*
X165453087Y-52023795D01*
X165453083Y-52023794D01*
X165448212Y-52022069D01*
X165443119Y-52021162D01*
X165443116Y-52021161D01*
X165233373Y-51983800D01*
X165233367Y-51983799D01*
X165228284Y-51982894D01*
X165154452Y-51981992D01*
X165010081Y-51980228D01*
X165010079Y-51980228D01*
X165004911Y-51980165D01*
X164784091Y-52013955D01*
X164571756Y-52083357D01*
X164373607Y-52186507D01*
X164369474Y-52189610D01*
X164369471Y-52189612D01*
X164199100Y-52317530D01*
X164194965Y-52320635D01*
X164040629Y-52482138D01*
X163933201Y-52639621D01*
X163878293Y-52684621D01*
X163807768Y-52692792D01*
X163744021Y-52661538D01*
X163723324Y-52637054D01*
X163642822Y-52512617D01*
X163642820Y-52512614D01*
X163640014Y-52508277D01*
X163489670Y-52343051D01*
X163485619Y-52339852D01*
X163485615Y-52339848D01*
X163318414Y-52207800D01*
X163318410Y-52207798D01*
X163314359Y-52204598D01*
X163278028Y-52184542D01*
X163262136Y-52175769D01*
X163118789Y-52096638D01*
X163113920Y-52094914D01*
X163113916Y-52094912D01*
X162913087Y-52023795D01*
X162913083Y-52023794D01*
X162908212Y-52022069D01*
X162903119Y-52021162D01*
X162903116Y-52021161D01*
X162693373Y-51983800D01*
X162693367Y-51983799D01*
X162688284Y-51982894D01*
X162614452Y-51981992D01*
X162470081Y-51980228D01*
X162470079Y-51980228D01*
X162464911Y-51980165D01*
X162244091Y-52013955D01*
X162031756Y-52083357D01*
X161833607Y-52186507D01*
X161829474Y-52189610D01*
X161829471Y-52189612D01*
X161659100Y-52317530D01*
X161654965Y-52320635D01*
X161500629Y-52482138D01*
X161393201Y-52639621D01*
X161338293Y-52684621D01*
X161267768Y-52692792D01*
X161204021Y-52661538D01*
X161183324Y-52637054D01*
X161102822Y-52512617D01*
X161102820Y-52512614D01*
X161100014Y-52508277D01*
X160949670Y-52343051D01*
X160945619Y-52339852D01*
X160945615Y-52339848D01*
X160778414Y-52207800D01*
X160778410Y-52207798D01*
X160774359Y-52204598D01*
X160738028Y-52184542D01*
X160722136Y-52175769D01*
X160578789Y-52096638D01*
X160573920Y-52094914D01*
X160573916Y-52094912D01*
X160373087Y-52023795D01*
X160373083Y-52023794D01*
X160368212Y-52022069D01*
X160363119Y-52021162D01*
X160363116Y-52021161D01*
X160153373Y-51983800D01*
X160153367Y-51983799D01*
X160148284Y-51982894D01*
X160074452Y-51981992D01*
X159930081Y-51980228D01*
X159930079Y-51980228D01*
X159924911Y-51980165D01*
X159704091Y-52013955D01*
X159491756Y-52083357D01*
X159293607Y-52186507D01*
X159289474Y-52189610D01*
X159289471Y-52189612D01*
X159119100Y-52317530D01*
X159114965Y-52320635D01*
X158960629Y-52482138D01*
X158853201Y-52639621D01*
X158798293Y-52684621D01*
X158727768Y-52692792D01*
X158664021Y-52661538D01*
X158643324Y-52637054D01*
X158562822Y-52512617D01*
X158562820Y-52512614D01*
X158560014Y-52508277D01*
X158409670Y-52343051D01*
X158405619Y-52339852D01*
X158405615Y-52339848D01*
X158238414Y-52207800D01*
X158238410Y-52207798D01*
X158234359Y-52204598D01*
X158198028Y-52184542D01*
X158182136Y-52175769D01*
X158038789Y-52096638D01*
X158033920Y-52094914D01*
X158033916Y-52094912D01*
X157833087Y-52023795D01*
X157833083Y-52023794D01*
X157828212Y-52022069D01*
X157823119Y-52021162D01*
X157823116Y-52021161D01*
X157613373Y-51983800D01*
X157613367Y-51983799D01*
X157608284Y-51982894D01*
X157534452Y-51981992D01*
X157390081Y-51980228D01*
X157390079Y-51980228D01*
X157384911Y-51980165D01*
X157164091Y-52013955D01*
X156951756Y-52083357D01*
X156753607Y-52186507D01*
X156749474Y-52189610D01*
X156749471Y-52189612D01*
X156579100Y-52317530D01*
X156574965Y-52320635D01*
X156420629Y-52482138D01*
X156313201Y-52639621D01*
X156258293Y-52684621D01*
X156187768Y-52692792D01*
X156124021Y-52661538D01*
X156103324Y-52637054D01*
X156022822Y-52512617D01*
X156022820Y-52512614D01*
X156020014Y-52508277D01*
X155869670Y-52343051D01*
X155865619Y-52339852D01*
X155865615Y-52339848D01*
X155698414Y-52207800D01*
X155698410Y-52207798D01*
X155694359Y-52204598D01*
X155658028Y-52184542D01*
X155642136Y-52175769D01*
X155498789Y-52096638D01*
X155493920Y-52094914D01*
X155493916Y-52094912D01*
X155293087Y-52023795D01*
X155293083Y-52023794D01*
X155288212Y-52022069D01*
X155283119Y-52021162D01*
X155283116Y-52021161D01*
X155073373Y-51983800D01*
X155073367Y-51983799D01*
X155068284Y-51982894D01*
X154994452Y-51981992D01*
X154850081Y-51980228D01*
X154850079Y-51980228D01*
X154844911Y-51980165D01*
X154624091Y-52013955D01*
X154411756Y-52083357D01*
X154213607Y-52186507D01*
X154209474Y-52189610D01*
X154209471Y-52189612D01*
X154039100Y-52317530D01*
X154034965Y-52320635D01*
X153880629Y-52482138D01*
X153773201Y-52639621D01*
X153718293Y-52684621D01*
X153647768Y-52692792D01*
X153584021Y-52661538D01*
X153563324Y-52637054D01*
X153482822Y-52512617D01*
X153482820Y-52512614D01*
X153480014Y-52508277D01*
X153329670Y-52343051D01*
X153325619Y-52339852D01*
X153325615Y-52339848D01*
X153158414Y-52207800D01*
X153158410Y-52207798D01*
X153154359Y-52204598D01*
X153118028Y-52184542D01*
X153102136Y-52175769D01*
X152958789Y-52096638D01*
X152953920Y-52094914D01*
X152953916Y-52094912D01*
X152753087Y-52023795D01*
X152753083Y-52023794D01*
X152748212Y-52022069D01*
X152743119Y-52021162D01*
X152743116Y-52021161D01*
X152533373Y-51983800D01*
X152533367Y-51983799D01*
X152528284Y-51982894D01*
X152454452Y-51981992D01*
X152310081Y-51980228D01*
X152310079Y-51980228D01*
X152304911Y-51980165D01*
X152084091Y-52013955D01*
X151871756Y-52083357D01*
X151673607Y-52186507D01*
X151669474Y-52189610D01*
X151669471Y-52189612D01*
X151499100Y-52317530D01*
X151494965Y-52320635D01*
X151340629Y-52482138D01*
X151233201Y-52639621D01*
X151178293Y-52684621D01*
X151107768Y-52692792D01*
X151044021Y-52661538D01*
X151023324Y-52637054D01*
X150942822Y-52512617D01*
X150942820Y-52512614D01*
X150940014Y-52508277D01*
X150789670Y-52343051D01*
X150785619Y-52339852D01*
X150785615Y-52339848D01*
X150618414Y-52207800D01*
X150618410Y-52207798D01*
X150614359Y-52204598D01*
X150578028Y-52184542D01*
X150562136Y-52175769D01*
X150418789Y-52096638D01*
X150413920Y-52094914D01*
X150413916Y-52094912D01*
X150213087Y-52023795D01*
X150213083Y-52023794D01*
X150208212Y-52022069D01*
X150203119Y-52021162D01*
X150203116Y-52021161D01*
X149993373Y-51983800D01*
X149993367Y-51983799D01*
X149988284Y-51982894D01*
X149914452Y-51981992D01*
X149770081Y-51980228D01*
X149770079Y-51980228D01*
X149764911Y-51980165D01*
X149544091Y-52013955D01*
X149331756Y-52083357D01*
X149133607Y-52186507D01*
X149129474Y-52189610D01*
X149129471Y-52189612D01*
X148959100Y-52317530D01*
X148954965Y-52320635D01*
X148800629Y-52482138D01*
X148693201Y-52639621D01*
X148638293Y-52684621D01*
X148567768Y-52692792D01*
X148504021Y-52661538D01*
X148483324Y-52637054D01*
X148402822Y-52512617D01*
X148402820Y-52512614D01*
X148400014Y-52508277D01*
X148249670Y-52343051D01*
X148245619Y-52339852D01*
X148245615Y-52339848D01*
X148078414Y-52207800D01*
X148078410Y-52207798D01*
X148074359Y-52204598D01*
X148038028Y-52184542D01*
X148022136Y-52175769D01*
X147878789Y-52096638D01*
X147873920Y-52094914D01*
X147873916Y-52094912D01*
X147673087Y-52023795D01*
X147673083Y-52023794D01*
X147668212Y-52022069D01*
X147663119Y-52021162D01*
X147663116Y-52021161D01*
X147453373Y-51983800D01*
X147453367Y-51983799D01*
X147448284Y-51982894D01*
X147374452Y-51981992D01*
X147230081Y-51980228D01*
X147230079Y-51980228D01*
X147224911Y-51980165D01*
X147004091Y-52013955D01*
X146791756Y-52083357D01*
X146593607Y-52186507D01*
X146589474Y-52189610D01*
X146589471Y-52189612D01*
X146419100Y-52317530D01*
X146414965Y-52320635D01*
X146260629Y-52482138D01*
X146153201Y-52639621D01*
X146098293Y-52684621D01*
X146027768Y-52692792D01*
X145964021Y-52661538D01*
X145943324Y-52637054D01*
X145862822Y-52512617D01*
X145862820Y-52512614D01*
X145860014Y-52508277D01*
X145709670Y-52343051D01*
X145705619Y-52339852D01*
X145705615Y-52339848D01*
X145538414Y-52207800D01*
X145538410Y-52207798D01*
X145534359Y-52204598D01*
X145498028Y-52184542D01*
X145482136Y-52175769D01*
X145338789Y-52096638D01*
X145333920Y-52094914D01*
X145333916Y-52094912D01*
X145133087Y-52023795D01*
X145133083Y-52023794D01*
X145128212Y-52022069D01*
X145123119Y-52021162D01*
X145123116Y-52021161D01*
X144913373Y-51983800D01*
X144913367Y-51983799D01*
X144908284Y-51982894D01*
X144834452Y-51981992D01*
X144690081Y-51980228D01*
X144690079Y-51980228D01*
X144684911Y-51980165D01*
X144464091Y-52013955D01*
X144251756Y-52083357D01*
X144053607Y-52186507D01*
X144049474Y-52189610D01*
X144049471Y-52189612D01*
X143879100Y-52317530D01*
X143874965Y-52320635D01*
X143720629Y-52482138D01*
X143613201Y-52639621D01*
X143558293Y-52684621D01*
X143487768Y-52692792D01*
X143424021Y-52661538D01*
X143403324Y-52637054D01*
X143322822Y-52512617D01*
X143322820Y-52512614D01*
X143320014Y-52508277D01*
X143169670Y-52343051D01*
X143165619Y-52339852D01*
X143165615Y-52339848D01*
X142998414Y-52207800D01*
X142998410Y-52207798D01*
X142994359Y-52204598D01*
X142958028Y-52184542D01*
X142942136Y-52175769D01*
X142798789Y-52096638D01*
X142793920Y-52094914D01*
X142793916Y-52094912D01*
X142593087Y-52023795D01*
X142593083Y-52023794D01*
X142588212Y-52022069D01*
X142583119Y-52021162D01*
X142583116Y-52021161D01*
X142373373Y-51983800D01*
X142373367Y-51983799D01*
X142368284Y-51982894D01*
X142294452Y-51981992D01*
X142150081Y-51980228D01*
X142150079Y-51980228D01*
X142144911Y-51980165D01*
X141924091Y-52013955D01*
X141711756Y-52083357D01*
X141513607Y-52186507D01*
X141509474Y-52189610D01*
X141509471Y-52189612D01*
X141339100Y-52317530D01*
X141334965Y-52320635D01*
X141180629Y-52482138D01*
X141073204Y-52639618D01*
X141072898Y-52640066D01*
X141017987Y-52685069D01*
X140947462Y-52693240D01*
X140883715Y-52661986D01*
X140863018Y-52637502D01*
X140782426Y-52512926D01*
X140776136Y-52504757D01*
X140632806Y-52347240D01*
X140625273Y-52340215D01*
X140458139Y-52208222D01*
X140449552Y-52202517D01*
X140263117Y-52099599D01*
X140253705Y-52095369D01*
X140052959Y-52024280D01*
X140042988Y-52021646D01*
X139971837Y-52008972D01*
X139958540Y-52010432D01*
X139954000Y-52024989D01*
X139954000Y-57198517D01*
X139958064Y-57212359D01*
X139971478Y-57214393D01*
X139978184Y-57213534D01*
X139988262Y-57211392D01*
X140192255Y-57150191D01*
X140201842Y-57146433D01*
X140393095Y-57052739D01*
X140401945Y-57047464D01*
X140575328Y-56923792D01*
X140583200Y-56917139D01*
X140734052Y-56766812D01*
X140740730Y-56758965D01*
X140868022Y-56581819D01*
X140869279Y-56582722D01*
X140916373Y-56539362D01*
X140986311Y-56527145D01*
X141051751Y-56554678D01*
X141079579Y-56586511D01*
X141139987Y-56685088D01*
X141286250Y-56853938D01*
X141458126Y-56996632D01*
X141651000Y-57109338D01*
X141655825Y-57111180D01*
X141655826Y-57111181D01*
X141698724Y-57127562D01*
X141859692Y-57189030D01*
X141864760Y-57190061D01*
X141864763Y-57190062D01*
X141969604Y-57211392D01*
X142078597Y-57233567D01*
X142083772Y-57233757D01*
X142083774Y-57233757D01*
X142296673Y-57241564D01*
X142296677Y-57241564D01*
X142301837Y-57241753D01*
X142306957Y-57241097D01*
X142306959Y-57241097D01*
X142518288Y-57214025D01*
X142518289Y-57214025D01*
X142523416Y-57213368D01*
X142528376Y-57211880D01*
X142732429Y-57150661D01*
X142732434Y-57150659D01*
X142737384Y-57149174D01*
X142937994Y-57050896D01*
X143119860Y-56921173D01*
X143278096Y-56763489D01*
X143408453Y-56582077D01*
X143409776Y-56583028D01*
X143456645Y-56539857D01*
X143526580Y-56527625D01*
X143592026Y-56555144D01*
X143619875Y-56586994D01*
X143679987Y-56685088D01*
X143826250Y-56853938D01*
X143998126Y-56996632D01*
X144191000Y-57109338D01*
X144195825Y-57111180D01*
X144195826Y-57111181D01*
X144238724Y-57127562D01*
X144399692Y-57189030D01*
X144404760Y-57190061D01*
X144404763Y-57190062D01*
X144509604Y-57211392D01*
X144618597Y-57233567D01*
X144623772Y-57233757D01*
X144623774Y-57233757D01*
X144836673Y-57241564D01*
X144836677Y-57241564D01*
X144841837Y-57241753D01*
X144846957Y-57241097D01*
X144846959Y-57241097D01*
X145058288Y-57214025D01*
X145058289Y-57214025D01*
X145063416Y-57213368D01*
X145068376Y-57211880D01*
X145272429Y-57150661D01*
X145272434Y-57150659D01*
X145277384Y-57149174D01*
X145477994Y-57050896D01*
X145659860Y-56921173D01*
X145818096Y-56763489D01*
X145948453Y-56582077D01*
X145949776Y-56583028D01*
X145996645Y-56539857D01*
X146066580Y-56527625D01*
X146132026Y-56555144D01*
X146159875Y-56586994D01*
X146219987Y-56685088D01*
X146366250Y-56853938D01*
X146538126Y-56996632D01*
X146731000Y-57109338D01*
X146735825Y-57111180D01*
X146735826Y-57111181D01*
X146778724Y-57127562D01*
X146939692Y-57189030D01*
X146944760Y-57190061D01*
X146944763Y-57190062D01*
X147049604Y-57211392D01*
X147158597Y-57233567D01*
X147163772Y-57233757D01*
X147163774Y-57233757D01*
X147376673Y-57241564D01*
X147376677Y-57241564D01*
X147381837Y-57241753D01*
X147386957Y-57241097D01*
X147386959Y-57241097D01*
X147598288Y-57214025D01*
X147598289Y-57214025D01*
X147603416Y-57213368D01*
X147608376Y-57211880D01*
X147812429Y-57150661D01*
X147812434Y-57150659D01*
X147817384Y-57149174D01*
X148017994Y-57050896D01*
X148199860Y-56921173D01*
X148358096Y-56763489D01*
X148488453Y-56582077D01*
X148489776Y-56583028D01*
X148536645Y-56539857D01*
X148606580Y-56527625D01*
X148672026Y-56555144D01*
X148699875Y-56586994D01*
X148759987Y-56685088D01*
X148906250Y-56853938D01*
X149078126Y-56996632D01*
X149271000Y-57109338D01*
X149275825Y-57111180D01*
X149275826Y-57111181D01*
X149318724Y-57127562D01*
X149479692Y-57189030D01*
X149484760Y-57190061D01*
X149484763Y-57190062D01*
X149589604Y-57211392D01*
X149698597Y-57233567D01*
X149703772Y-57233757D01*
X149703774Y-57233757D01*
X149916673Y-57241564D01*
X149916677Y-57241564D01*
X149921837Y-57241753D01*
X149926957Y-57241097D01*
X149926959Y-57241097D01*
X150138288Y-57214025D01*
X150138289Y-57214025D01*
X150143416Y-57213368D01*
X150148376Y-57211880D01*
X150352429Y-57150661D01*
X150352434Y-57150659D01*
X150357384Y-57149174D01*
X150557994Y-57050896D01*
X150739860Y-56921173D01*
X150898096Y-56763489D01*
X151028453Y-56582077D01*
X151029776Y-56583028D01*
X151076645Y-56539857D01*
X151146580Y-56527625D01*
X151212026Y-56555144D01*
X151239875Y-56586994D01*
X151299987Y-56685088D01*
X151446250Y-56853938D01*
X151618126Y-56996632D01*
X151811000Y-57109338D01*
X151815825Y-57111180D01*
X151815826Y-57111181D01*
X151858724Y-57127562D01*
X152019692Y-57189030D01*
X152024760Y-57190061D01*
X152024763Y-57190062D01*
X152129604Y-57211392D01*
X152238597Y-57233567D01*
X152243772Y-57233757D01*
X152243774Y-57233757D01*
X152456673Y-57241564D01*
X152456677Y-57241564D01*
X152461837Y-57241753D01*
X152466957Y-57241097D01*
X152466959Y-57241097D01*
X152678288Y-57214025D01*
X152678289Y-57214025D01*
X152683416Y-57213368D01*
X152688376Y-57211880D01*
X152892429Y-57150661D01*
X152892434Y-57150659D01*
X152897384Y-57149174D01*
X153097994Y-57050896D01*
X153279860Y-56921173D01*
X153438096Y-56763489D01*
X153568453Y-56582077D01*
X153569776Y-56583028D01*
X153616645Y-56539857D01*
X153686580Y-56527625D01*
X153752026Y-56555144D01*
X153779875Y-56586994D01*
X153839987Y-56685088D01*
X153986250Y-56853938D01*
X154158126Y-56996632D01*
X154351000Y-57109338D01*
X154355825Y-57111180D01*
X154355826Y-57111181D01*
X154398724Y-57127562D01*
X154559692Y-57189030D01*
X154564760Y-57190061D01*
X154564763Y-57190062D01*
X154669604Y-57211392D01*
X154778597Y-57233567D01*
X154783772Y-57233757D01*
X154783774Y-57233757D01*
X154996673Y-57241564D01*
X154996677Y-57241564D01*
X155001837Y-57241753D01*
X155006957Y-57241097D01*
X155006959Y-57241097D01*
X155218288Y-57214025D01*
X155218289Y-57214025D01*
X155223416Y-57213368D01*
X155228376Y-57211880D01*
X155432429Y-57150661D01*
X155432434Y-57150659D01*
X155437384Y-57149174D01*
X155637994Y-57050896D01*
X155819860Y-56921173D01*
X155978096Y-56763489D01*
X156108453Y-56582077D01*
X156109776Y-56583028D01*
X156156645Y-56539857D01*
X156226580Y-56527625D01*
X156292026Y-56555144D01*
X156319875Y-56586994D01*
X156379987Y-56685088D01*
X156526250Y-56853938D01*
X156698126Y-56996632D01*
X156891000Y-57109338D01*
X156895825Y-57111180D01*
X156895826Y-57111181D01*
X156938724Y-57127562D01*
X157099692Y-57189030D01*
X157104760Y-57190061D01*
X157104763Y-57190062D01*
X157209604Y-57211392D01*
X157318597Y-57233567D01*
X157323772Y-57233757D01*
X157323774Y-57233757D01*
X157536673Y-57241564D01*
X157536677Y-57241564D01*
X157541837Y-57241753D01*
X157546957Y-57241097D01*
X157546959Y-57241097D01*
X157758288Y-57214025D01*
X157758289Y-57214025D01*
X157763416Y-57213368D01*
X157768376Y-57211880D01*
X157972429Y-57150661D01*
X157972434Y-57150659D01*
X157977384Y-57149174D01*
X158177994Y-57050896D01*
X158359860Y-56921173D01*
X158518096Y-56763489D01*
X158648453Y-56582077D01*
X158649776Y-56583028D01*
X158696645Y-56539857D01*
X158766580Y-56527625D01*
X158832026Y-56555144D01*
X158859875Y-56586994D01*
X158919987Y-56685088D01*
X159066250Y-56853938D01*
X159238126Y-56996632D01*
X159431000Y-57109338D01*
X159435825Y-57111180D01*
X159435826Y-57111181D01*
X159478724Y-57127562D01*
X159639692Y-57189030D01*
X159644760Y-57190061D01*
X159644763Y-57190062D01*
X159749604Y-57211392D01*
X159858597Y-57233567D01*
X159863772Y-57233757D01*
X159863774Y-57233757D01*
X160076673Y-57241564D01*
X160076677Y-57241564D01*
X160081837Y-57241753D01*
X160086957Y-57241097D01*
X160086959Y-57241097D01*
X160298288Y-57214025D01*
X160298289Y-57214025D01*
X160303416Y-57213368D01*
X160308376Y-57211880D01*
X160512429Y-57150661D01*
X160512434Y-57150659D01*
X160517384Y-57149174D01*
X160717994Y-57050896D01*
X160899860Y-56921173D01*
X161058096Y-56763489D01*
X161188453Y-56582077D01*
X161189776Y-56583028D01*
X161236645Y-56539857D01*
X161306580Y-56527625D01*
X161372026Y-56555144D01*
X161399875Y-56586994D01*
X161459987Y-56685088D01*
X161606250Y-56853938D01*
X161778126Y-56996632D01*
X161971000Y-57109338D01*
X161975825Y-57111180D01*
X161975826Y-57111181D01*
X162018724Y-57127562D01*
X162179692Y-57189030D01*
X162184760Y-57190061D01*
X162184763Y-57190062D01*
X162289604Y-57211392D01*
X162398597Y-57233567D01*
X162403772Y-57233757D01*
X162403774Y-57233757D01*
X162616673Y-57241564D01*
X162616677Y-57241564D01*
X162621837Y-57241753D01*
X162626957Y-57241097D01*
X162626959Y-57241097D01*
X162838288Y-57214025D01*
X162838289Y-57214025D01*
X162843416Y-57213368D01*
X162848376Y-57211880D01*
X163052429Y-57150661D01*
X163052434Y-57150659D01*
X163057384Y-57149174D01*
X163257994Y-57050896D01*
X163439860Y-56921173D01*
X163598096Y-56763489D01*
X163728453Y-56582077D01*
X163729776Y-56583028D01*
X163776645Y-56539857D01*
X163846580Y-56527625D01*
X163912026Y-56555144D01*
X163939875Y-56586994D01*
X163999987Y-56685088D01*
X164146250Y-56853938D01*
X164318126Y-56996632D01*
X164511000Y-57109338D01*
X164515825Y-57111180D01*
X164515826Y-57111181D01*
X164558724Y-57127562D01*
X164719692Y-57189030D01*
X164724760Y-57190061D01*
X164724763Y-57190062D01*
X164829604Y-57211392D01*
X164938597Y-57233567D01*
X164943772Y-57233757D01*
X164943774Y-57233757D01*
X165156673Y-57241564D01*
X165156677Y-57241564D01*
X165161837Y-57241753D01*
X165166957Y-57241097D01*
X165166959Y-57241097D01*
X165378288Y-57214025D01*
X165378289Y-57214025D01*
X165383416Y-57213368D01*
X165388376Y-57211880D01*
X165592429Y-57150661D01*
X165592434Y-57150659D01*
X165597384Y-57149174D01*
X165797994Y-57050896D01*
X165979860Y-56921173D01*
X166138096Y-56763489D01*
X166268453Y-56582077D01*
X166269776Y-56583028D01*
X166316645Y-56539857D01*
X166386580Y-56527625D01*
X166452026Y-56555144D01*
X166479875Y-56586994D01*
X166539987Y-56685088D01*
X166686250Y-56853938D01*
X166858126Y-56996632D01*
X167051000Y-57109338D01*
X167055825Y-57111180D01*
X167055826Y-57111181D01*
X167098724Y-57127562D01*
X167259692Y-57189030D01*
X167264760Y-57190061D01*
X167264763Y-57190062D01*
X167369604Y-57211392D01*
X167478597Y-57233567D01*
X167483772Y-57233757D01*
X167483774Y-57233757D01*
X167696673Y-57241564D01*
X167696677Y-57241564D01*
X167701837Y-57241753D01*
X167706957Y-57241097D01*
X167706959Y-57241097D01*
X167918288Y-57214025D01*
X167918289Y-57214025D01*
X167923416Y-57213368D01*
X167928376Y-57211880D01*
X168132429Y-57150661D01*
X168132434Y-57150659D01*
X168137384Y-57149174D01*
X168337994Y-57050896D01*
X168519860Y-56921173D01*
X168678096Y-56763489D01*
X168808453Y-56582077D01*
X168809776Y-56583028D01*
X168856645Y-56539857D01*
X168926580Y-56527625D01*
X168992026Y-56555144D01*
X169019875Y-56586994D01*
X169079987Y-56685088D01*
X169226250Y-56853938D01*
X169398126Y-56996632D01*
X169591000Y-57109338D01*
X169595825Y-57111180D01*
X169595826Y-57111181D01*
X169638724Y-57127562D01*
X169799692Y-57189030D01*
X169804760Y-57190061D01*
X169804763Y-57190062D01*
X169909604Y-57211392D01*
X170018597Y-57233567D01*
X170023772Y-57233757D01*
X170023774Y-57233757D01*
X170236673Y-57241564D01*
X170236677Y-57241564D01*
X170241837Y-57241753D01*
X170246957Y-57241097D01*
X170246959Y-57241097D01*
X170458288Y-57214025D01*
X170458289Y-57214025D01*
X170463416Y-57213368D01*
X170468376Y-57211880D01*
X170672429Y-57150661D01*
X170672434Y-57150659D01*
X170677384Y-57149174D01*
X170877994Y-57050896D01*
X171059860Y-56921173D01*
X171218096Y-56763489D01*
X171348453Y-56582077D01*
X171349776Y-56583028D01*
X171396645Y-56539857D01*
X171466580Y-56527625D01*
X171532026Y-56555144D01*
X171559875Y-56586994D01*
X171619987Y-56685088D01*
X171766250Y-56853938D01*
X171938126Y-56996632D01*
X172131000Y-57109338D01*
X172135825Y-57111180D01*
X172135826Y-57111181D01*
X172178724Y-57127562D01*
X172339692Y-57189030D01*
X172344760Y-57190061D01*
X172344763Y-57190062D01*
X172449604Y-57211392D01*
X172558597Y-57233567D01*
X172563772Y-57233757D01*
X172563774Y-57233757D01*
X172776673Y-57241564D01*
X172776677Y-57241564D01*
X172781837Y-57241753D01*
X172786957Y-57241097D01*
X172786959Y-57241097D01*
X172998288Y-57214025D01*
X172998289Y-57214025D01*
X173003416Y-57213368D01*
X173008376Y-57211880D01*
X173212429Y-57150661D01*
X173212434Y-57150659D01*
X173217384Y-57149174D01*
X173417994Y-57050896D01*
X173599860Y-56921173D01*
X173758096Y-56763489D01*
X173888453Y-56582077D01*
X173889776Y-56583028D01*
X173936645Y-56539857D01*
X174006580Y-56527625D01*
X174072026Y-56555144D01*
X174099875Y-56586994D01*
X174159987Y-56685088D01*
X174306250Y-56853938D01*
X174478126Y-56996632D01*
X174671000Y-57109338D01*
X174675825Y-57111180D01*
X174675826Y-57111181D01*
X174718724Y-57127562D01*
X174879692Y-57189030D01*
X174884760Y-57190061D01*
X174884763Y-57190062D01*
X174989604Y-57211392D01*
X175098597Y-57233567D01*
X175103772Y-57233757D01*
X175103774Y-57233757D01*
X175316673Y-57241564D01*
X175316677Y-57241564D01*
X175321837Y-57241753D01*
X175326957Y-57241097D01*
X175326959Y-57241097D01*
X175538288Y-57214025D01*
X175538289Y-57214025D01*
X175543416Y-57213368D01*
X175548376Y-57211880D01*
X175752429Y-57150661D01*
X175752434Y-57150659D01*
X175757384Y-57149174D01*
X175957994Y-57050896D01*
X176139860Y-56921173D01*
X176298096Y-56763489D01*
X176428453Y-56582077D01*
X176429776Y-56583028D01*
X176476645Y-56539857D01*
X176546580Y-56527625D01*
X176612026Y-56555144D01*
X176639875Y-56586994D01*
X176699987Y-56685088D01*
X176846250Y-56853938D01*
X177018126Y-56996632D01*
X177211000Y-57109338D01*
X177215825Y-57111180D01*
X177215826Y-57111181D01*
X177258724Y-57127562D01*
X177419692Y-57189030D01*
X177424760Y-57190061D01*
X177424763Y-57190062D01*
X177529604Y-57211392D01*
X177638597Y-57233567D01*
X177643772Y-57233757D01*
X177643774Y-57233757D01*
X177856673Y-57241564D01*
X177856677Y-57241564D01*
X177861837Y-57241753D01*
X177866957Y-57241097D01*
X177866959Y-57241097D01*
X178078288Y-57214025D01*
X178078289Y-57214025D01*
X178083416Y-57213368D01*
X178088376Y-57211880D01*
X178292429Y-57150661D01*
X178292434Y-57150659D01*
X178297384Y-57149174D01*
X178497994Y-57050896D01*
X178679860Y-56921173D01*
X178838096Y-56763489D01*
X178968453Y-56582077D01*
X178969776Y-56583028D01*
X179016645Y-56539857D01*
X179086580Y-56527625D01*
X179152026Y-56555144D01*
X179179875Y-56586994D01*
X179239987Y-56685088D01*
X179386250Y-56853938D01*
X179558126Y-56996632D01*
X179751000Y-57109338D01*
X179755825Y-57111180D01*
X179755826Y-57111181D01*
X179798724Y-57127562D01*
X179959692Y-57189030D01*
X179964760Y-57190061D01*
X179964763Y-57190062D01*
X180069604Y-57211392D01*
X180178597Y-57233567D01*
X180183772Y-57233757D01*
X180183774Y-57233757D01*
X180396673Y-57241564D01*
X180396677Y-57241564D01*
X180401837Y-57241753D01*
X180406957Y-57241097D01*
X180406959Y-57241097D01*
X180618288Y-57214025D01*
X180618289Y-57214025D01*
X180623416Y-57213368D01*
X180628376Y-57211880D01*
X180832429Y-57150661D01*
X180832434Y-57150659D01*
X180837384Y-57149174D01*
X181037994Y-57050896D01*
X181219860Y-56921173D01*
X181378096Y-56763489D01*
X181508453Y-56582077D01*
X181509776Y-56583028D01*
X181556645Y-56539857D01*
X181626580Y-56527625D01*
X181692026Y-56555144D01*
X181719875Y-56586994D01*
X181779987Y-56685088D01*
X181926250Y-56853938D01*
X182098126Y-56996632D01*
X182291000Y-57109338D01*
X182295825Y-57111180D01*
X182295826Y-57111181D01*
X182338724Y-57127562D01*
X182499692Y-57189030D01*
X182504760Y-57190061D01*
X182504763Y-57190062D01*
X182609604Y-57211392D01*
X182718597Y-57233567D01*
X182723772Y-57233757D01*
X182723774Y-57233757D01*
X182936673Y-57241564D01*
X182936677Y-57241564D01*
X182941837Y-57241753D01*
X182946957Y-57241097D01*
X182946959Y-57241097D01*
X183158288Y-57214025D01*
X183158289Y-57214025D01*
X183163416Y-57213368D01*
X183168367Y-57211883D01*
X183168370Y-57211882D01*
X183259293Y-57184604D01*
X183330288Y-57184188D01*
X183390239Y-57222220D01*
X183420110Y-57286627D01*
X183421500Y-57305290D01*
X183421500Y-70066914D01*
X183401498Y-70135035D01*
X183384595Y-70156009D01*
X179062754Y-74477849D01*
X179000442Y-74511875D01*
X178973659Y-74514754D01*
X175755848Y-74514754D01*
X175687727Y-74494752D01*
X175666753Y-74477849D01*
X174365422Y-73176517D01*
X174331396Y-73114205D01*
X174329207Y-73100592D01*
X174328556Y-73094393D01*
X174313663Y-72952695D01*
X174312532Y-72941935D01*
X174312532Y-72941933D01*
X174311842Y-72935372D01*
X174252827Y-72753744D01*
X174247311Y-72744189D01*
X174160641Y-72594074D01*
X174157340Y-72588356D01*
X174144500Y-72574095D01*
X174033975Y-72451345D01*
X174033974Y-72451344D01*
X174029553Y-72446434D01*
X173875052Y-72334182D01*
X173869024Y-72331498D01*
X173869022Y-72331497D01*
X173706619Y-72259191D01*
X173706618Y-72259191D01*
X173700588Y-72256506D01*
X173607188Y-72236653D01*
X173520244Y-72218172D01*
X173520239Y-72218172D01*
X173513787Y-72216800D01*
X173322813Y-72216800D01*
X173316361Y-72218172D01*
X173316356Y-72218172D01*
X173229412Y-72236653D01*
X173136012Y-72256506D01*
X173129982Y-72259191D01*
X173129981Y-72259191D01*
X172967578Y-72331497D01*
X172967576Y-72331498D01*
X172961548Y-72334182D01*
X172807047Y-72446434D01*
X172802626Y-72451344D01*
X172802625Y-72451345D01*
X172692101Y-72574095D01*
X172679260Y-72588356D01*
X172675959Y-72594074D01*
X172589290Y-72744189D01*
X172583773Y-72753744D01*
X172524758Y-72935372D01*
X172524068Y-72941933D01*
X172524068Y-72941935D01*
X172510929Y-73066951D01*
X172504796Y-73125300D01*
X172505486Y-73131865D01*
X172519631Y-73266449D01*
X172506859Y-73336287D01*
X172458357Y-73388134D01*
X172420519Y-73402866D01*
X172310712Y-73426206D01*
X172304682Y-73428891D01*
X172304681Y-73428891D01*
X172142278Y-73501197D01*
X172142276Y-73501198D01*
X172136248Y-73503882D01*
X172130907Y-73507762D01*
X172130906Y-73507763D01*
X172069419Y-73552436D01*
X171995358Y-73576500D01*
X171946631Y-73576500D01*
X171878510Y-73556498D01*
X171839487Y-73516803D01*
X171771970Y-73407697D01*
X171768116Y-73401469D01*
X171733280Y-73366694D01*
X171650184Y-73283742D01*
X171650179Y-73283738D01*
X171645003Y-73278571D01*
X171615685Y-73260499D01*
X171503150Y-73191131D01*
X171503148Y-73191130D01*
X171496920Y-73187291D01*
X171331809Y-73132526D01*
X171324973Y-73131826D01*
X171324970Y-73131825D01*
X171273474Y-73126549D01*
X171229072Y-73122000D01*
X170654928Y-73122000D01*
X170651682Y-73122337D01*
X170651678Y-73122337D01*
X170557765Y-73132081D01*
X170557761Y-73132082D01*
X170550907Y-73132793D01*
X170544371Y-73134974D01*
X170544369Y-73134974D01*
X170525633Y-73141225D01*
X170385893Y-73187846D01*
X170237969Y-73279384D01*
X170232796Y-73284566D01*
X170120242Y-73397316D01*
X170120238Y-73397321D01*
X170115071Y-73402497D01*
X170111231Y-73408727D01*
X170111230Y-73408728D01*
X170029222Y-73541770D01*
X170023791Y-73550580D01*
X169969026Y-73715691D01*
X169958500Y-73818428D01*
X169958500Y-74517572D01*
X169958837Y-74520818D01*
X169958837Y-74520822D01*
X169967328Y-74602651D01*
X169969293Y-74621593D01*
X169971474Y-74628129D01*
X169971474Y-74628131D01*
X169993168Y-74693154D01*
X170024346Y-74786607D01*
X170115884Y-74934531D01*
X170121065Y-74939703D01*
X170123139Y-74941773D01*
X170124105Y-74943538D01*
X170125613Y-74945441D01*
X170125287Y-74945699D01*
X170157219Y-75004054D01*
X170152218Y-75074875D01*
X170123292Y-75119970D01*
X170120636Y-75122631D01*
X170111625Y-75134040D01*
X170028088Y-75269563D01*
X170021944Y-75282741D01*
X169971685Y-75434266D01*
X169968819Y-75447632D01*
X169959328Y-75540270D01*
X169959000Y-75546685D01*
X169959000Y-75620885D01*
X169963475Y-75636124D01*
X169964865Y-75637329D01*
X169972548Y-75639000D01*
X171906885Y-75639000D01*
X171922124Y-75634525D01*
X171923329Y-75633135D01*
X171925000Y-75625452D01*
X171925000Y-75546734D01*
X171924663Y-75540218D01*
X171914925Y-75446368D01*
X171912032Y-75432972D01*
X171861512Y-75281547D01*
X171855347Y-75268385D01*
X171816620Y-75205802D01*
X171797783Y-75137350D01*
X171818945Y-75069580D01*
X171873386Y-75024010D01*
X171923765Y-75013500D01*
X171995358Y-75013500D01*
X172069419Y-75037564D01*
X172136248Y-75086118D01*
X172142276Y-75088802D01*
X172142278Y-75088803D01*
X172276830Y-75148709D01*
X172310712Y-75163794D01*
X172404113Y-75183647D01*
X172491056Y-75202128D01*
X172491061Y-75202128D01*
X172497513Y-75203500D01*
X172688487Y-75203500D01*
X172694939Y-75202128D01*
X172694944Y-75202128D01*
X172781887Y-75183647D01*
X172875288Y-75163794D01*
X172909170Y-75148709D01*
X173043722Y-75088803D01*
X173043724Y-75088802D01*
X173049752Y-75086118D01*
X173204253Y-74973866D01*
X173229847Y-74945441D01*
X173327621Y-74836852D01*
X173327622Y-74836851D01*
X173332040Y-74831944D01*
X173427527Y-74666556D01*
X173486542Y-74484928D01*
X173496543Y-74389776D01*
X173523556Y-74324119D01*
X173581778Y-74283490D01*
X173652723Y-74280787D01*
X173710948Y-74313852D01*
X174325399Y-74928304D01*
X174937602Y-75540507D01*
X174945142Y-75548793D01*
X174949254Y-75555272D01*
X174955031Y-75560697D01*
X174998905Y-75601897D01*
X175001747Y-75604652D01*
X175021484Y-75624389D01*
X175024681Y-75626869D01*
X175033701Y-75634572D01*
X175065933Y-75664840D01*
X175072879Y-75668659D01*
X175072882Y-75668661D01*
X175083688Y-75674602D01*
X175100207Y-75685453D01*
X175116213Y-75697868D01*
X175123482Y-75701013D01*
X175123486Y-75701016D01*
X175156791Y-75715428D01*
X175167441Y-75720645D01*
X175206194Y-75741949D01*
X175213869Y-75743920D01*
X175213870Y-75743920D01*
X175225816Y-75746987D01*
X175244521Y-75753391D01*
X175263109Y-75761435D01*
X175270932Y-75762674D01*
X175270942Y-75762677D01*
X175306778Y-75768353D01*
X175318398Y-75770759D01*
X175353543Y-75779782D01*
X175361224Y-75781754D01*
X175381478Y-75781754D01*
X175401188Y-75783305D01*
X175421197Y-75786474D01*
X175429089Y-75785728D01*
X175465215Y-75782313D01*
X175477073Y-75781754D01*
X178091055Y-75781754D01*
X178159176Y-75801756D01*
X178205669Y-75855412D01*
X178215773Y-75925686D01*
X178186279Y-75990266D01*
X178180150Y-75996849D01*
X173284952Y-80892047D01*
X173222640Y-80926073D01*
X173195857Y-80928952D01*
X171797511Y-80928952D01*
X171762385Y-80923952D01*
X171755145Y-80920819D01*
X171747321Y-80919580D01*
X171747315Y-80919578D01*
X171711476Y-80913901D01*
X171699856Y-80911495D01*
X171664711Y-80902472D01*
X171664710Y-80902472D01*
X171657030Y-80900500D01*
X171636776Y-80900500D01*
X171617065Y-80898949D01*
X171604886Y-80897020D01*
X171597057Y-80895780D01*
X171567786Y-80898547D01*
X171553039Y-80899941D01*
X171541181Y-80900500D01*
X170923267Y-80900500D01*
X170912084Y-80899973D01*
X170904591Y-80898298D01*
X170896665Y-80898547D01*
X170896664Y-80898547D01*
X170836514Y-80900438D01*
X170832555Y-80900500D01*
X170804644Y-80900500D01*
X170800710Y-80900997D01*
X170800709Y-80900997D01*
X170800644Y-80901005D01*
X170788807Y-80901938D01*
X170756990Y-80902938D01*
X170752529Y-80903078D01*
X170744610Y-80903327D01*
X170726954Y-80908456D01*
X170725158Y-80908978D01*
X170705806Y-80912986D01*
X170698735Y-80913880D01*
X170685703Y-80915526D01*
X170678334Y-80918443D01*
X170678332Y-80918444D01*
X170644597Y-80931800D01*
X170633369Y-80935645D01*
X170590907Y-80947982D01*
X170584085Y-80952016D01*
X170584079Y-80952019D01*
X170573468Y-80958294D01*
X170555718Y-80966990D01*
X170544256Y-80971528D01*
X170544251Y-80971531D01*
X170536883Y-80974448D01*
X170530468Y-80979109D01*
X170501125Y-81000427D01*
X170491207Y-81006943D01*
X170472519Y-81017995D01*
X170453137Y-81029458D01*
X170438813Y-81043782D01*
X170423781Y-81056621D01*
X170407393Y-81068528D01*
X170379212Y-81102593D01*
X170371222Y-81111373D01*
X169903800Y-81578795D01*
X169841488Y-81612821D01*
X169814705Y-81615700D01*
X169758813Y-81615700D01*
X169752361Y-81617072D01*
X169752356Y-81617072D01*
X169665413Y-81635553D01*
X169572012Y-81655406D01*
X169565982Y-81658091D01*
X169565981Y-81658091D01*
X169403578Y-81730397D01*
X169403576Y-81730398D01*
X169397548Y-81733082D01*
X169243047Y-81845334D01*
X169115260Y-81987256D01*
X169019773Y-82152644D01*
X168960758Y-82334272D01*
X168960068Y-82340833D01*
X168960068Y-82340835D01*
X168946179Y-82472982D01*
X168940796Y-82524200D01*
X168960758Y-82714128D01*
X169019773Y-82895756D01*
X169023076Y-82901478D01*
X169023077Y-82901479D01*
X169048262Y-82945100D01*
X169115260Y-83061144D01*
X169243047Y-83203066D01*
X169397548Y-83315318D01*
X169403576Y-83318002D01*
X169403578Y-83318003D01*
X169413407Y-83322379D01*
X169572012Y-83392994D01*
X169665412Y-83412847D01*
X169752356Y-83431328D01*
X169752361Y-83431328D01*
X169758813Y-83432700D01*
X169949787Y-83432700D01*
X169956239Y-83431328D01*
X169956244Y-83431328D01*
X170043187Y-83412847D01*
X170136588Y-83392994D01*
X170295193Y-83322379D01*
X170305022Y-83318003D01*
X170305024Y-83318002D01*
X170311052Y-83315318D01*
X170465553Y-83203066D01*
X170593340Y-83061144D01*
X170660338Y-82945100D01*
X170685523Y-82901479D01*
X170685524Y-82901478D01*
X170688827Y-82895756D01*
X170747842Y-82714128D01*
X170765207Y-82548906D01*
X170792220Y-82483250D01*
X170801422Y-82472982D01*
X171069999Y-82204405D01*
X171132311Y-82170379D01*
X171159094Y-82167500D01*
X171384941Y-82167500D01*
X171420067Y-82172500D01*
X171427307Y-82175633D01*
X171435131Y-82176872D01*
X171435137Y-82176874D01*
X171470976Y-82182551D01*
X171482596Y-82184957D01*
X171517741Y-82193980D01*
X171525422Y-82195952D01*
X171545676Y-82195952D01*
X171565386Y-82197503D01*
X171585395Y-82200672D01*
X171593287Y-82199926D01*
X171629413Y-82196511D01*
X171641271Y-82195952D01*
X171933229Y-82195952D01*
X172001350Y-82215954D01*
X172047843Y-82269610D01*
X172057947Y-82339884D01*
X172031460Y-82396456D01*
X172033459Y-82397908D01*
X172029580Y-82403248D01*
X172025160Y-82408156D01*
X172021859Y-82413874D01*
X171954372Y-82530765D01*
X171929673Y-82573544D01*
X171870658Y-82755172D01*
X171850696Y-82945100D01*
X171851386Y-82951665D01*
X171862893Y-83061144D01*
X171870658Y-83135028D01*
X171929673Y-83316656D01*
X172025160Y-83482044D01*
X172152947Y-83623966D01*
X172307448Y-83736218D01*
X172313476Y-83738902D01*
X172313478Y-83738903D01*
X172475881Y-83811209D01*
X172481912Y-83813894D01*
X172575313Y-83833747D01*
X172662256Y-83852228D01*
X172662261Y-83852228D01*
X172668713Y-83853600D01*
X172859687Y-83853600D01*
X172866139Y-83852228D01*
X172866144Y-83852228D01*
X172953087Y-83833747D01*
X173046488Y-83813894D01*
X173052519Y-83811209D01*
X173214922Y-83738903D01*
X173214924Y-83738902D01*
X173220952Y-83736218D01*
X173375453Y-83623966D01*
X173503240Y-83482044D01*
X173598727Y-83316656D01*
X173657742Y-83135028D01*
X173675107Y-82969806D01*
X173702120Y-82904150D01*
X173711322Y-82893882D01*
X186982905Y-69622300D01*
X187045217Y-69588274D01*
X187116032Y-69593339D01*
X187172868Y-69635886D01*
X187197679Y-69702406D01*
X187198000Y-69711395D01*
X187198000Y-90831791D01*
X187177998Y-90899912D01*
X187124342Y-90946405D01*
X187054068Y-90956509D01*
X186989488Y-90927015D01*
X186955591Y-90880009D01*
X186881408Y-90700915D01*
X186876927Y-90692121D01*
X186750660Y-90486072D01*
X186742599Y-90480810D01*
X186732393Y-90486817D01*
X185792022Y-91427188D01*
X185784408Y-91441132D01*
X185784539Y-91442965D01*
X185788790Y-91449580D01*
X186730934Y-92391724D01*
X186744471Y-92399116D01*
X186749740Y-92395430D01*
X186876927Y-92187879D01*
X186881408Y-92179085D01*
X186955591Y-91999991D01*
X187000139Y-91944710D01*
X187067503Y-91922289D01*
X187136294Y-91939847D01*
X187184672Y-91991809D01*
X187198000Y-92048209D01*
X187198000Y-95911791D01*
X187177998Y-95979912D01*
X187124342Y-96026405D01*
X187054068Y-96036509D01*
X186989488Y-96007015D01*
X186955591Y-95960009D01*
X186881408Y-95780915D01*
X186876927Y-95772121D01*
X186750660Y-95566072D01*
X186742599Y-95560810D01*
X186732393Y-95566817D01*
X185792022Y-96507188D01*
X185784408Y-96521132D01*
X185784539Y-96522965D01*
X185788790Y-96529580D01*
X186730934Y-97471724D01*
X186744471Y-97479116D01*
X186749740Y-97475430D01*
X186876927Y-97267879D01*
X186881408Y-97259085D01*
X186955591Y-97079991D01*
X187000139Y-97024710D01*
X187067503Y-97002289D01*
X187136294Y-97019847D01*
X187184672Y-97071809D01*
X187198000Y-97128209D01*
X187198000Y-108332000D01*
X187177998Y-108400121D01*
X187124342Y-108446614D01*
X187072000Y-108458000D01*
X174090209Y-108458000D01*
X174022088Y-108437998D01*
X173975595Y-108384342D01*
X173965491Y-108314068D01*
X173994985Y-108249488D01*
X174041991Y-108215591D01*
X174221085Y-108141408D01*
X174229879Y-108136927D01*
X174435928Y-108010660D01*
X174441190Y-108002599D01*
X174435183Y-107992393D01*
X173494812Y-107052022D01*
X173480868Y-107044408D01*
X173479035Y-107044539D01*
X173472420Y-107048790D01*
X172530276Y-107990934D01*
X172522884Y-108004471D01*
X172526570Y-108009740D01*
X172734121Y-108136927D01*
X172742915Y-108141408D01*
X172922009Y-108215591D01*
X172977290Y-108260139D01*
X172999711Y-108327503D01*
X172982153Y-108396294D01*
X172930191Y-108444672D01*
X172873791Y-108458000D01*
X169010209Y-108458000D01*
X168942088Y-108437998D01*
X168895595Y-108384342D01*
X168885491Y-108314068D01*
X168914985Y-108249488D01*
X168961991Y-108215591D01*
X169141085Y-108141408D01*
X169149879Y-108136927D01*
X169355928Y-108010660D01*
X169361190Y-108002599D01*
X169355183Y-107992393D01*
X168414812Y-107052022D01*
X168400868Y-107044408D01*
X168399035Y-107044539D01*
X168392420Y-107048790D01*
X167450276Y-107990934D01*
X167442884Y-108004471D01*
X167446570Y-108009740D01*
X167654121Y-108136927D01*
X167662915Y-108141408D01*
X167842009Y-108215591D01*
X167897290Y-108260139D01*
X167919711Y-108327503D01*
X167902153Y-108396294D01*
X167850191Y-108444672D01*
X167793791Y-108458000D01*
X135508000Y-108458000D01*
X135439879Y-108437998D01*
X135393386Y-108384342D01*
X135382000Y-108332000D01*
X135382000Y-106684930D01*
X166764338Y-106684930D01*
X166783729Y-106931313D01*
X166785272Y-106941060D01*
X166842967Y-107181373D01*
X166846016Y-107190758D01*
X166940592Y-107419085D01*
X166945073Y-107427879D01*
X167071340Y-107633928D01*
X167079401Y-107639190D01*
X167089607Y-107633183D01*
X168029978Y-106692812D01*
X168036356Y-106681132D01*
X168766408Y-106681132D01*
X168766539Y-106682965D01*
X168770790Y-106689580D01*
X169712934Y-107631724D01*
X169726471Y-107639116D01*
X169731740Y-107635430D01*
X169858927Y-107427879D01*
X169863408Y-107419085D01*
X169957984Y-107190758D01*
X169961033Y-107181373D01*
X170018728Y-106941060D01*
X170020271Y-106931313D01*
X170039662Y-106684930D01*
X171844338Y-106684930D01*
X171863729Y-106931313D01*
X171865272Y-106941060D01*
X171922967Y-107181373D01*
X171926016Y-107190758D01*
X172020592Y-107419085D01*
X172025073Y-107427879D01*
X172151340Y-107633928D01*
X172159401Y-107639190D01*
X172169607Y-107633183D01*
X173109978Y-106692812D01*
X173116356Y-106681132D01*
X173846408Y-106681132D01*
X173846539Y-106682965D01*
X173850790Y-106689580D01*
X174792934Y-107631724D01*
X174806471Y-107639116D01*
X174811740Y-107635430D01*
X174938927Y-107427879D01*
X174943408Y-107419085D01*
X175037984Y-107190758D01*
X175041033Y-107181373D01*
X175098728Y-106941060D01*
X175100271Y-106931313D01*
X175119662Y-106684930D01*
X175119662Y-106675070D01*
X175100271Y-106428687D01*
X175098728Y-106418940D01*
X175041033Y-106178627D01*
X175037984Y-106169242D01*
X174943408Y-105940915D01*
X174938927Y-105932121D01*
X174812660Y-105726072D01*
X174804599Y-105720810D01*
X174794393Y-105726817D01*
X173854022Y-106667188D01*
X173846408Y-106681132D01*
X173116356Y-106681132D01*
X173117592Y-106678868D01*
X173117461Y-106677035D01*
X173113210Y-106670420D01*
X172171066Y-105728276D01*
X172157529Y-105720884D01*
X172152260Y-105724570D01*
X172025073Y-105932121D01*
X172020592Y-105940915D01*
X171926016Y-106169242D01*
X171922967Y-106178627D01*
X171865272Y-106418940D01*
X171863729Y-106428687D01*
X171844338Y-106675070D01*
X171844338Y-106684930D01*
X170039662Y-106684930D01*
X170039662Y-106675070D01*
X170020271Y-106428687D01*
X170018728Y-106418940D01*
X169961033Y-106178627D01*
X169957984Y-106169242D01*
X169863408Y-105940915D01*
X169858927Y-105932121D01*
X169732660Y-105726072D01*
X169724599Y-105720810D01*
X169714393Y-105726817D01*
X168774022Y-106667188D01*
X168766408Y-106681132D01*
X168036356Y-106681132D01*
X168037592Y-106678868D01*
X168037461Y-106677035D01*
X168033210Y-106670420D01*
X167091066Y-105728276D01*
X167077529Y-105720884D01*
X167072260Y-105724570D01*
X166945073Y-105932121D01*
X166940592Y-105940915D01*
X166846016Y-106169242D01*
X166842967Y-106178627D01*
X166785272Y-106418940D01*
X166783729Y-106428687D01*
X166764338Y-106675070D01*
X166764338Y-106684930D01*
X135382000Y-106684930D01*
X135382000Y-104247655D01*
X137939858Y-104247655D01*
X137975104Y-104506638D01*
X137976412Y-104511124D01*
X137976412Y-104511126D01*
X137996098Y-104578664D01*
X138048243Y-104757567D01*
X138157668Y-104994928D01*
X138160231Y-104998837D01*
X138298410Y-105209596D01*
X138298414Y-105209601D01*
X138300976Y-105213509D01*
X138475018Y-105408506D01*
X138675970Y-105575637D01*
X138679973Y-105578066D01*
X138895422Y-105708804D01*
X138895426Y-105708806D01*
X138899419Y-105711229D01*
X139140455Y-105812303D01*
X139393783Y-105876641D01*
X139398434Y-105877109D01*
X139398438Y-105877110D01*
X139591308Y-105896531D01*
X139610867Y-105898500D01*
X139766354Y-105898500D01*
X139768679Y-105898327D01*
X139768685Y-105898327D01*
X139956000Y-105884407D01*
X139956004Y-105884406D01*
X139960652Y-105884061D01*
X139965200Y-105883032D01*
X139965206Y-105883031D01*
X140151601Y-105840853D01*
X140215577Y-105826377D01*
X140251769Y-105812303D01*
X140454824Y-105733340D01*
X140454827Y-105733339D01*
X140459177Y-105731647D01*
X140468932Y-105726072D01*
X140587772Y-105658149D01*
X140686098Y-105601951D01*
X140891357Y-105440138D01*
X140969188Y-105357401D01*
X167442810Y-105357401D01*
X167448817Y-105367607D01*
X168389188Y-106307978D01*
X168403132Y-106315592D01*
X168404965Y-106315461D01*
X168411580Y-106311210D01*
X169353724Y-105369066D01*
X169361116Y-105355529D01*
X169357430Y-105350260D01*
X169149879Y-105223073D01*
X169141085Y-105218592D01*
X168912758Y-105124016D01*
X168903373Y-105120967D01*
X168663060Y-105063272D01*
X168653313Y-105061729D01*
X168406930Y-105042338D01*
X168397070Y-105042338D01*
X168150687Y-105061729D01*
X168140940Y-105063272D01*
X167900627Y-105120967D01*
X167891242Y-105124016D01*
X167662915Y-105218592D01*
X167654121Y-105223073D01*
X167448072Y-105349340D01*
X167442810Y-105357401D01*
X140969188Y-105357401D01*
X141070443Y-105249763D01*
X141210471Y-105047915D01*
X141216759Y-105038851D01*
X141216761Y-105038848D01*
X141219424Y-105035009D01*
X141316407Y-104838347D01*
X141332960Y-104804781D01*
X141332961Y-104804778D01*
X141335025Y-104800593D01*
X141414707Y-104551665D01*
X141456721Y-104293693D01*
X141458733Y-104140000D01*
X169403758Y-104140000D01*
X169422696Y-104380634D01*
X169423850Y-104385441D01*
X169423851Y-104385447D01*
X169459267Y-104532961D01*
X169479045Y-104615343D01*
X169480938Y-104619914D01*
X169480939Y-104619916D01*
X169557513Y-104804781D01*
X169571416Y-104838347D01*
X169697536Y-105044156D01*
X169854299Y-105227701D01*
X170037844Y-105384464D01*
X170243653Y-105510584D01*
X170248223Y-105512477D01*
X170248227Y-105512479D01*
X170400705Y-105575637D01*
X170466657Y-105602955D01*
X170549039Y-105622733D01*
X170696553Y-105658149D01*
X170696559Y-105658150D01*
X170701366Y-105659304D01*
X170942000Y-105678242D01*
X171182634Y-105659304D01*
X171187441Y-105658150D01*
X171187447Y-105658149D01*
X171334961Y-105622733D01*
X171417343Y-105602955D01*
X171483295Y-105575637D01*
X171635773Y-105512479D01*
X171635777Y-105512477D01*
X171640347Y-105510584D01*
X171846156Y-105384464D01*
X171877843Y-105357401D01*
X172522810Y-105357401D01*
X172528817Y-105367607D01*
X173469188Y-106307978D01*
X173483132Y-106315592D01*
X173484965Y-106315461D01*
X173491580Y-106311210D01*
X174433724Y-105369066D01*
X174441116Y-105355529D01*
X174437430Y-105350260D01*
X174229879Y-105223073D01*
X174221085Y-105218592D01*
X173992758Y-105124016D01*
X173983373Y-105120967D01*
X173743060Y-105063272D01*
X173733313Y-105061729D01*
X173486930Y-105042338D01*
X173477070Y-105042338D01*
X173230687Y-105061729D01*
X173220940Y-105063272D01*
X172980627Y-105120967D01*
X172971242Y-105124016D01*
X172742915Y-105218592D01*
X172734121Y-105223073D01*
X172528072Y-105349340D01*
X172522810Y-105357401D01*
X171877843Y-105357401D01*
X172029701Y-105227701D01*
X172186464Y-105044156D01*
X172312584Y-104838347D01*
X172326488Y-104804781D01*
X172403061Y-104619916D01*
X172403062Y-104619914D01*
X172404955Y-104615343D01*
X172424733Y-104532961D01*
X172460149Y-104385447D01*
X172460150Y-104385441D01*
X172461304Y-104380634D01*
X172471770Y-104247655D01*
X181119858Y-104247655D01*
X181155104Y-104506638D01*
X181156412Y-104511124D01*
X181156412Y-104511126D01*
X181176098Y-104578664D01*
X181228243Y-104757567D01*
X181337668Y-104994928D01*
X181340231Y-104998837D01*
X181478410Y-105209596D01*
X181478414Y-105209601D01*
X181480976Y-105213509D01*
X181655018Y-105408506D01*
X181855970Y-105575637D01*
X181859973Y-105578066D01*
X182075422Y-105708804D01*
X182075426Y-105708806D01*
X182079419Y-105711229D01*
X182320455Y-105812303D01*
X182573783Y-105876641D01*
X182578434Y-105877109D01*
X182578438Y-105877110D01*
X182771308Y-105896531D01*
X182790867Y-105898500D01*
X182946354Y-105898500D01*
X182948679Y-105898327D01*
X182948685Y-105898327D01*
X183136000Y-105884407D01*
X183136004Y-105884406D01*
X183140652Y-105884061D01*
X183145200Y-105883032D01*
X183145206Y-105883031D01*
X183331601Y-105840853D01*
X183395577Y-105826377D01*
X183431769Y-105812303D01*
X183634824Y-105733340D01*
X183634827Y-105733339D01*
X183639177Y-105731647D01*
X183648932Y-105726072D01*
X183767772Y-105658149D01*
X183866098Y-105601951D01*
X184071357Y-105440138D01*
X184250443Y-105249763D01*
X184390471Y-105047915D01*
X184396759Y-105038851D01*
X184396761Y-105038848D01*
X184399424Y-105035009D01*
X184496407Y-104838347D01*
X184512960Y-104804781D01*
X184512961Y-104804778D01*
X184515025Y-104800593D01*
X184594707Y-104551665D01*
X184636721Y-104293693D01*
X184640142Y-104032345D01*
X184604896Y-103773362D01*
X184590473Y-103723877D01*
X184573211Y-103664657D01*
X184531757Y-103522433D01*
X184422332Y-103285072D01*
X184337698Y-103155984D01*
X184281590Y-103070404D01*
X184281586Y-103070399D01*
X184279024Y-103066491D01*
X184104982Y-102871494D01*
X183904030Y-102704363D01*
X183865432Y-102680941D01*
X183684578Y-102571196D01*
X183684574Y-102571194D01*
X183680581Y-102568771D01*
X183439545Y-102467697D01*
X183186217Y-102403359D01*
X183181566Y-102402891D01*
X183181562Y-102402890D01*
X182972271Y-102381816D01*
X182969133Y-102381500D01*
X182813646Y-102381500D01*
X182811321Y-102381673D01*
X182811315Y-102381673D01*
X182624000Y-102395593D01*
X182623996Y-102395594D01*
X182619348Y-102395939D01*
X182614800Y-102396968D01*
X182614794Y-102396969D01*
X182428399Y-102439147D01*
X182364423Y-102453623D01*
X182360071Y-102455315D01*
X182360069Y-102455316D01*
X182125176Y-102546660D01*
X182125173Y-102546661D01*
X182120823Y-102548353D01*
X182116769Y-102550670D01*
X182116767Y-102550671D01*
X182101862Y-102559190D01*
X181893902Y-102678049D01*
X181688643Y-102839862D01*
X181509557Y-103030237D01*
X181422323Y-103155984D01*
X181366922Y-103235844D01*
X181360576Y-103244991D01*
X181358510Y-103249181D01*
X181358508Y-103249184D01*
X181261338Y-103446227D01*
X181244975Y-103479407D01*
X181165293Y-103728335D01*
X181123279Y-103986307D01*
X181119858Y-104247655D01*
X172471770Y-104247655D01*
X172480242Y-104140000D01*
X172461304Y-103899366D01*
X172460150Y-103894559D01*
X172460149Y-103894553D01*
X172420243Y-103728335D01*
X172404955Y-103664657D01*
X172344282Y-103518179D01*
X172314479Y-103446227D01*
X172314477Y-103446223D01*
X172312584Y-103441653D01*
X172186464Y-103235844D01*
X172029701Y-103052299D01*
X171880034Y-102924471D01*
X172522884Y-102924471D01*
X172526570Y-102929740D01*
X172734121Y-103056927D01*
X172742915Y-103061408D01*
X172971242Y-103155984D01*
X172980627Y-103159033D01*
X173220940Y-103216728D01*
X173230687Y-103218271D01*
X173477070Y-103237662D01*
X173486930Y-103237662D01*
X173733313Y-103218271D01*
X173743060Y-103216728D01*
X173983373Y-103159033D01*
X173992758Y-103155984D01*
X174221085Y-103061408D01*
X174229879Y-103056927D01*
X174435928Y-102930660D01*
X174441190Y-102922599D01*
X174435183Y-102912393D01*
X173494812Y-101972022D01*
X173480868Y-101964408D01*
X173479035Y-101964539D01*
X173472420Y-101968790D01*
X172530276Y-102910934D01*
X172522884Y-102924471D01*
X171880034Y-102924471D01*
X171846156Y-102895536D01*
X171640347Y-102769416D01*
X171635777Y-102767523D01*
X171635773Y-102767521D01*
X171421916Y-102678939D01*
X171421914Y-102678938D01*
X171417343Y-102677045D01*
X171334961Y-102657267D01*
X171187447Y-102621851D01*
X171187441Y-102621850D01*
X171182634Y-102620696D01*
X170942000Y-102601758D01*
X170701366Y-102620696D01*
X170696559Y-102621850D01*
X170696553Y-102621851D01*
X170549039Y-102657267D01*
X170466657Y-102677045D01*
X170462086Y-102678938D01*
X170462084Y-102678939D01*
X170248227Y-102767521D01*
X170248223Y-102767523D01*
X170243653Y-102769416D01*
X170037844Y-102895536D01*
X169854299Y-103052299D01*
X169697536Y-103235844D01*
X169571416Y-103441653D01*
X169569523Y-103446223D01*
X169569521Y-103446227D01*
X169539718Y-103518179D01*
X169479045Y-103664657D01*
X169463757Y-103728335D01*
X169423851Y-103894553D01*
X169423850Y-103894559D01*
X169422696Y-103899366D01*
X169403758Y-104140000D01*
X141458733Y-104140000D01*
X141460142Y-104032345D01*
X141424896Y-103773362D01*
X141410473Y-103723877D01*
X141393211Y-103664657D01*
X141351757Y-103522433D01*
X141242332Y-103285072D01*
X141157698Y-103155984D01*
X141101590Y-103070404D01*
X141101586Y-103070399D01*
X141099024Y-103066491D01*
X140972266Y-102924471D01*
X167442884Y-102924471D01*
X167446570Y-102929740D01*
X167654121Y-103056927D01*
X167662915Y-103061408D01*
X167891242Y-103155984D01*
X167900627Y-103159033D01*
X168140940Y-103216728D01*
X168150687Y-103218271D01*
X168397070Y-103237662D01*
X168406930Y-103237662D01*
X168653313Y-103218271D01*
X168663060Y-103216728D01*
X168903373Y-103159033D01*
X168912758Y-103155984D01*
X169141085Y-103061408D01*
X169149879Y-103056927D01*
X169355928Y-102930660D01*
X169361190Y-102922599D01*
X169355183Y-102912393D01*
X168414812Y-101972022D01*
X168400868Y-101964408D01*
X168399035Y-101964539D01*
X168392420Y-101968790D01*
X167450276Y-102910934D01*
X167442884Y-102924471D01*
X140972266Y-102924471D01*
X140924982Y-102871494D01*
X140724030Y-102704363D01*
X140685432Y-102680941D01*
X140504578Y-102571196D01*
X140504574Y-102571194D01*
X140500581Y-102568771D01*
X140259545Y-102467697D01*
X140006217Y-102403359D01*
X140001566Y-102402891D01*
X140001562Y-102402890D01*
X139792271Y-102381816D01*
X139789133Y-102381500D01*
X139633646Y-102381500D01*
X139631321Y-102381673D01*
X139631315Y-102381673D01*
X139444000Y-102395593D01*
X139443996Y-102395594D01*
X139439348Y-102395939D01*
X139434800Y-102396968D01*
X139434794Y-102396969D01*
X139248399Y-102439147D01*
X139184423Y-102453623D01*
X139180071Y-102455315D01*
X139180069Y-102455316D01*
X138945176Y-102546660D01*
X138945173Y-102546661D01*
X138940823Y-102548353D01*
X138936769Y-102550670D01*
X138936767Y-102550671D01*
X138921862Y-102559190D01*
X138713902Y-102678049D01*
X138508643Y-102839862D01*
X138329557Y-103030237D01*
X138242323Y-103155984D01*
X138186922Y-103235844D01*
X138180576Y-103244991D01*
X138178510Y-103249181D01*
X138178508Y-103249184D01*
X138081338Y-103446227D01*
X138064975Y-103479407D01*
X137985293Y-103728335D01*
X137943279Y-103986307D01*
X137939858Y-104247655D01*
X135382000Y-104247655D01*
X135382000Y-101604930D01*
X166764338Y-101604930D01*
X166783729Y-101851313D01*
X166785272Y-101861060D01*
X166842967Y-102101373D01*
X166846016Y-102110758D01*
X166940592Y-102339085D01*
X166945073Y-102347879D01*
X167071340Y-102553928D01*
X167079401Y-102559190D01*
X167089607Y-102553183D01*
X168029978Y-101612812D01*
X168036356Y-101601132D01*
X168766408Y-101601132D01*
X168766539Y-101602965D01*
X168770790Y-101609580D01*
X169712934Y-102551724D01*
X169726471Y-102559116D01*
X169731740Y-102555430D01*
X169858927Y-102347879D01*
X169863408Y-102339085D01*
X169957984Y-102110758D01*
X169961033Y-102101373D01*
X170018728Y-101861060D01*
X170020271Y-101851313D01*
X170039662Y-101604930D01*
X171844338Y-101604930D01*
X171863729Y-101851313D01*
X171865272Y-101861060D01*
X171922967Y-102101373D01*
X171926016Y-102110758D01*
X172020592Y-102339085D01*
X172025073Y-102347879D01*
X172151340Y-102553928D01*
X172159401Y-102559190D01*
X172169607Y-102553183D01*
X173109978Y-101612812D01*
X173116356Y-101601132D01*
X173846408Y-101601132D01*
X173846539Y-101602965D01*
X173850790Y-101609580D01*
X174792934Y-102551724D01*
X174806471Y-102559116D01*
X174811740Y-102555430D01*
X174938927Y-102347879D01*
X174943408Y-102339085D01*
X175037984Y-102110758D01*
X175041033Y-102101373D01*
X175098728Y-101861060D01*
X175100271Y-101851313D01*
X175119662Y-101604930D01*
X175119662Y-101595070D01*
X175100271Y-101348687D01*
X175098728Y-101338940D01*
X175041033Y-101098627D01*
X175037984Y-101089242D01*
X174943408Y-100860915D01*
X174938927Y-100852121D01*
X174812660Y-100646072D01*
X174804599Y-100640810D01*
X174794393Y-100646817D01*
X173854022Y-101587188D01*
X173846408Y-101601132D01*
X173116356Y-101601132D01*
X173117592Y-101598868D01*
X173117461Y-101597035D01*
X173113210Y-101590420D01*
X172171066Y-100648276D01*
X172157529Y-100640884D01*
X172152260Y-100644570D01*
X172025073Y-100852121D01*
X172020592Y-100860915D01*
X171926016Y-101089242D01*
X171922967Y-101098627D01*
X171865272Y-101338940D01*
X171863729Y-101348687D01*
X171844338Y-101595070D01*
X171844338Y-101604930D01*
X170039662Y-101604930D01*
X170039662Y-101595070D01*
X170020271Y-101348687D01*
X170018728Y-101338940D01*
X169961033Y-101098627D01*
X169957984Y-101089242D01*
X169863408Y-100860915D01*
X169858927Y-100852121D01*
X169732660Y-100646072D01*
X169724599Y-100640810D01*
X169714393Y-100646817D01*
X168774022Y-101587188D01*
X168766408Y-101601132D01*
X168036356Y-101601132D01*
X168037592Y-101598868D01*
X168037461Y-101597035D01*
X168033210Y-101590420D01*
X167091066Y-100648276D01*
X167077529Y-100640884D01*
X167072260Y-100644570D01*
X166945073Y-100852121D01*
X166940592Y-100860915D01*
X166846016Y-101089242D01*
X166842967Y-101098627D01*
X166785272Y-101338940D01*
X166783729Y-101348687D01*
X166764338Y-101595070D01*
X166764338Y-101604930D01*
X135382000Y-101604930D01*
X135382000Y-100277401D01*
X167442810Y-100277401D01*
X167448817Y-100287607D01*
X168389188Y-101227978D01*
X168403132Y-101235592D01*
X168404965Y-101235461D01*
X168411580Y-101231210D01*
X169353724Y-100289066D01*
X169360094Y-100277401D01*
X172522810Y-100277401D01*
X172528817Y-100287607D01*
X173469188Y-101227978D01*
X173483132Y-101235592D01*
X173484965Y-101235461D01*
X173491580Y-101231210D01*
X174433724Y-100289066D01*
X174441116Y-100275529D01*
X174437430Y-100270260D01*
X174229879Y-100143073D01*
X174221085Y-100138592D01*
X173992758Y-100044016D01*
X173983373Y-100040967D01*
X173743060Y-99983272D01*
X173733313Y-99981729D01*
X173486930Y-99962338D01*
X173477070Y-99962338D01*
X173230687Y-99981729D01*
X173220940Y-99983272D01*
X172980627Y-100040967D01*
X172971242Y-100044016D01*
X172742915Y-100138592D01*
X172734121Y-100143073D01*
X172528072Y-100269340D01*
X172522810Y-100277401D01*
X169360094Y-100277401D01*
X169361116Y-100275529D01*
X169357430Y-100270260D01*
X169149879Y-100143073D01*
X169141085Y-100138592D01*
X168912758Y-100044016D01*
X168903373Y-100040967D01*
X168663060Y-99983272D01*
X168653313Y-99981729D01*
X168406930Y-99962338D01*
X168397070Y-99962338D01*
X168150687Y-99981729D01*
X168140940Y-99983272D01*
X167900627Y-100040967D01*
X167891242Y-100044016D01*
X167662915Y-100138592D01*
X167654121Y-100143073D01*
X167448072Y-100269340D01*
X167442810Y-100277401D01*
X135382000Y-100277401D01*
X135382000Y-97844471D01*
X179380884Y-97844471D01*
X179384570Y-97849740D01*
X179592121Y-97976927D01*
X179600915Y-97981408D01*
X179829242Y-98075984D01*
X179838627Y-98079033D01*
X180078940Y-98136728D01*
X180088687Y-98138271D01*
X180335070Y-98157662D01*
X180344930Y-98157662D01*
X180591313Y-98138271D01*
X180601060Y-98136728D01*
X180841373Y-98079033D01*
X180850758Y-98075984D01*
X181079085Y-97981408D01*
X181087879Y-97976927D01*
X181293928Y-97850660D01*
X181297968Y-97844471D01*
X184460884Y-97844471D01*
X184464570Y-97849740D01*
X184672121Y-97976927D01*
X184680915Y-97981408D01*
X184909242Y-98075984D01*
X184918627Y-98079033D01*
X185158940Y-98136728D01*
X185168687Y-98138271D01*
X185415070Y-98157662D01*
X185424930Y-98157662D01*
X185671313Y-98138271D01*
X185681060Y-98136728D01*
X185921373Y-98079033D01*
X185930758Y-98075984D01*
X186159085Y-97981408D01*
X186167879Y-97976927D01*
X186373928Y-97850660D01*
X186379190Y-97842599D01*
X186373183Y-97832393D01*
X185432812Y-96892022D01*
X185418868Y-96884408D01*
X185417035Y-96884539D01*
X185410420Y-96888790D01*
X184468276Y-97830934D01*
X184460884Y-97844471D01*
X181297968Y-97844471D01*
X181299190Y-97842599D01*
X181293183Y-97832393D01*
X180352812Y-96892022D01*
X180338868Y-96884408D01*
X180337035Y-96884539D01*
X180330420Y-96888790D01*
X179388276Y-97830934D01*
X179380884Y-97844471D01*
X135382000Y-97844471D01*
X135382000Y-96524930D01*
X178702338Y-96524930D01*
X178721729Y-96771313D01*
X178723272Y-96781060D01*
X178780967Y-97021373D01*
X178784016Y-97030758D01*
X178878592Y-97259085D01*
X178883073Y-97267879D01*
X179009340Y-97473928D01*
X179017401Y-97479190D01*
X179027607Y-97473183D01*
X179967978Y-96532812D01*
X179974356Y-96521132D01*
X180704408Y-96521132D01*
X180704539Y-96522965D01*
X180708790Y-96529580D01*
X181650934Y-97471724D01*
X181664471Y-97479116D01*
X181669740Y-97475430D01*
X181796927Y-97267879D01*
X181801408Y-97259085D01*
X181895984Y-97030758D01*
X181899033Y-97021373D01*
X181956728Y-96781060D01*
X181958271Y-96771313D01*
X181977662Y-96524930D01*
X183782338Y-96524930D01*
X183801729Y-96771313D01*
X183803272Y-96781060D01*
X183860967Y-97021373D01*
X183864016Y-97030758D01*
X183958592Y-97259085D01*
X183963073Y-97267879D01*
X184089340Y-97473928D01*
X184097401Y-97479190D01*
X184107607Y-97473183D01*
X185047978Y-96532812D01*
X185055592Y-96518868D01*
X185055461Y-96517035D01*
X185051210Y-96510420D01*
X184109066Y-95568276D01*
X184095529Y-95560884D01*
X184090260Y-95564570D01*
X183963073Y-95772121D01*
X183958592Y-95780915D01*
X183864016Y-96009242D01*
X183860967Y-96018627D01*
X183803272Y-96258940D01*
X183801729Y-96268687D01*
X183782338Y-96515070D01*
X183782338Y-96524930D01*
X181977662Y-96524930D01*
X181977662Y-96515070D01*
X181958271Y-96268687D01*
X181956728Y-96258940D01*
X181899033Y-96018627D01*
X181895984Y-96009242D01*
X181801408Y-95780915D01*
X181796927Y-95772121D01*
X181670660Y-95566072D01*
X181662599Y-95560810D01*
X181652393Y-95566817D01*
X180712022Y-96507188D01*
X180704408Y-96521132D01*
X179974356Y-96521132D01*
X179975592Y-96518868D01*
X179975461Y-96517035D01*
X179971210Y-96510420D01*
X179029066Y-95568276D01*
X179015529Y-95560884D01*
X179010260Y-95564570D01*
X178883073Y-95772121D01*
X178878592Y-95780915D01*
X178784016Y-96009242D01*
X178780967Y-96018627D01*
X178723272Y-96258940D01*
X178721729Y-96268687D01*
X178702338Y-96515070D01*
X178702338Y-96524930D01*
X135382000Y-96524930D01*
X135382000Y-95197401D01*
X179380810Y-95197401D01*
X179386817Y-95207607D01*
X180327188Y-96147978D01*
X180341132Y-96155592D01*
X180342965Y-96155461D01*
X180349580Y-96151210D01*
X181291724Y-95209066D01*
X181299116Y-95195529D01*
X181295430Y-95190260D01*
X181087879Y-95063073D01*
X181079085Y-95058592D01*
X180850758Y-94964016D01*
X180841373Y-94960967D01*
X180601060Y-94903272D01*
X180591313Y-94901729D01*
X180344930Y-94882338D01*
X180335070Y-94882338D01*
X180088687Y-94901729D01*
X180078940Y-94903272D01*
X179838627Y-94960967D01*
X179829242Y-94964016D01*
X179600915Y-95058592D01*
X179592121Y-95063073D01*
X179386072Y-95189340D01*
X179380810Y-95197401D01*
X135382000Y-95197401D01*
X135382000Y-53306695D01*
X135797251Y-53306695D01*
X135797548Y-53311848D01*
X135797548Y-53311851D01*
X135803011Y-53406590D01*
X135810110Y-53529715D01*
X135811247Y-53534761D01*
X135811248Y-53534767D01*
X135831119Y-53622939D01*
X135859222Y-53747639D01*
X135943266Y-53954616D01*
X135994019Y-54037438D01*
X136057291Y-54140688D01*
X136059987Y-54145088D01*
X136206250Y-54313938D01*
X136210230Y-54317242D01*
X136214981Y-54321187D01*
X136254616Y-54380090D01*
X136256113Y-54451071D01*
X136218997Y-54511593D01*
X136178725Y-54536112D01*
X136090095Y-54569338D01*
X136063295Y-54579385D01*
X135946739Y-54666739D01*
X135859385Y-54783295D01*
X135808255Y-54919684D01*
X135801500Y-54981866D01*
X135801500Y-56778134D01*
X135808255Y-56840316D01*
X135859385Y-56976705D01*
X135946739Y-57093261D01*
X136063295Y-57180615D01*
X136071703Y-57183767D01*
X136194730Y-57229888D01*
X136251494Y-57272530D01*
X136276194Y-57339091D01*
X136276500Y-57347870D01*
X136276500Y-77991210D01*
X136270333Y-78030146D01*
X136266458Y-78042072D01*
X136265768Y-78048633D01*
X136265768Y-78048635D01*
X136260314Y-78100525D01*
X136246496Y-78232000D01*
X136266458Y-78421928D01*
X136268498Y-78428206D01*
X136270333Y-78433854D01*
X136276500Y-78472790D01*
X136276500Y-90852543D01*
X136274949Y-90872255D01*
X136272850Y-90885507D01*
X136273195Y-90892094D01*
X136273195Y-90892098D01*
X136276327Y-90951850D01*
X136276500Y-90958445D01*
X136276500Y-90978306D01*
X136276844Y-90981577D01*
X136278576Y-90998059D01*
X136279093Y-91004628D01*
X136282570Y-91070971D01*
X136286042Y-91083929D01*
X136289645Y-91103372D01*
X136291046Y-91116702D01*
X136311578Y-91179894D01*
X136313444Y-91186196D01*
X136319595Y-91209151D01*
X136330638Y-91250363D01*
X136333634Y-91256242D01*
X136333637Y-91256251D01*
X136336728Y-91262317D01*
X136344292Y-91280579D01*
X136346392Y-91287043D01*
X136346395Y-91287051D01*
X136348436Y-91293331D01*
X136351738Y-91299050D01*
X136351740Y-91299055D01*
X136381654Y-91350867D01*
X136384787Y-91356637D01*
X136414953Y-91415839D01*
X136419109Y-91420971D01*
X136423391Y-91426259D01*
X136434589Y-91442552D01*
X136441296Y-91454169D01*
X136445713Y-91459075D01*
X136445717Y-91459080D01*
X136485747Y-91503538D01*
X136490031Y-91508554D01*
X136500441Y-91521409D01*
X136502528Y-91523986D01*
X136516573Y-91538031D01*
X136521114Y-91542816D01*
X136565566Y-91592185D01*
X136576426Y-91600075D01*
X136591454Y-91612912D01*
X139527088Y-94548546D01*
X139539925Y-94563574D01*
X139547815Y-94574434D01*
X139552725Y-94578855D01*
X139552726Y-94578856D01*
X139597184Y-94618886D01*
X139601969Y-94623427D01*
X139616014Y-94637472D01*
X139618588Y-94639556D01*
X139618591Y-94639559D01*
X139631446Y-94649969D01*
X139636462Y-94654253D01*
X139680920Y-94694283D01*
X139680925Y-94694287D01*
X139685831Y-94698704D01*
X139697097Y-94705209D01*
X139697448Y-94705411D01*
X139713741Y-94716609D01*
X139724161Y-94725047D01*
X139783363Y-94755213D01*
X139789133Y-94758346D01*
X139840945Y-94788260D01*
X139840950Y-94788262D01*
X139846669Y-94791564D01*
X139852949Y-94793605D01*
X139852957Y-94793608D01*
X139859421Y-94795708D01*
X139877683Y-94803272D01*
X139883749Y-94806363D01*
X139883758Y-94806366D01*
X139889637Y-94809362D01*
X139896015Y-94811071D01*
X139953804Y-94826556D01*
X139960106Y-94828422D01*
X140023298Y-94848954D01*
X140036205Y-94850311D01*
X140036628Y-94850355D01*
X140056071Y-94853958D01*
X140069029Y-94857430D01*
X140075619Y-94857775D01*
X140075623Y-94857776D01*
X140119573Y-94860079D01*
X140135372Y-94860907D01*
X140141931Y-94861423D01*
X140161694Y-94863500D01*
X140181555Y-94863500D01*
X140188150Y-94863673D01*
X140247902Y-94866805D01*
X140247906Y-94866805D01*
X140254493Y-94867150D01*
X140267747Y-94865051D01*
X140287456Y-94863500D01*
X148002543Y-94863500D01*
X148022255Y-94865051D01*
X148035507Y-94867150D01*
X148042094Y-94866805D01*
X148042098Y-94866805D01*
X148101850Y-94863673D01*
X148108445Y-94863500D01*
X148128306Y-94863500D01*
X148148069Y-94861423D01*
X148154628Y-94860907D01*
X148170427Y-94860079D01*
X148214377Y-94857776D01*
X148214381Y-94857775D01*
X148220971Y-94857430D01*
X148233929Y-94853958D01*
X148253372Y-94850355D01*
X148253795Y-94850311D01*
X148266702Y-94848954D01*
X148329894Y-94828422D01*
X148336196Y-94826556D01*
X148393985Y-94811071D01*
X148400363Y-94809362D01*
X148406242Y-94806366D01*
X148406251Y-94806363D01*
X148412317Y-94803272D01*
X148430579Y-94795708D01*
X148437043Y-94793608D01*
X148437051Y-94793605D01*
X148443331Y-94791564D01*
X148449050Y-94788262D01*
X148449055Y-94788260D01*
X148500867Y-94758346D01*
X148506637Y-94755213D01*
X148565839Y-94725047D01*
X148576259Y-94716609D01*
X148592552Y-94705411D01*
X148592903Y-94705209D01*
X148604169Y-94698704D01*
X148609075Y-94694287D01*
X148609080Y-94694283D01*
X148653538Y-94654253D01*
X148658554Y-94649969D01*
X148671409Y-94639559D01*
X148671412Y-94639556D01*
X148673986Y-94637472D01*
X148688031Y-94623427D01*
X148692816Y-94618886D01*
X148737274Y-94578856D01*
X148737275Y-94578855D01*
X148742185Y-94574434D01*
X148750075Y-94563574D01*
X148762912Y-94548546D01*
X149331458Y-93980000D01*
X181341758Y-93980000D01*
X181360696Y-94220634D01*
X181361850Y-94225441D01*
X181361851Y-94225447D01*
X181397267Y-94372961D01*
X181417045Y-94455343D01*
X181418938Y-94459914D01*
X181418939Y-94459916D01*
X181493350Y-94639559D01*
X181509416Y-94678347D01*
X181635536Y-94884156D01*
X181792299Y-95067701D01*
X181975844Y-95224464D01*
X182181653Y-95350584D01*
X182186223Y-95352477D01*
X182186227Y-95352479D01*
X182400084Y-95441061D01*
X182404657Y-95442955D01*
X182487039Y-95462733D01*
X182634553Y-95498149D01*
X182634559Y-95498150D01*
X182639366Y-95499304D01*
X182880000Y-95518242D01*
X183120634Y-95499304D01*
X183125441Y-95498150D01*
X183125447Y-95498149D01*
X183272961Y-95462733D01*
X183355343Y-95442955D01*
X183359916Y-95441061D01*
X183573773Y-95352479D01*
X183573777Y-95352477D01*
X183578347Y-95350584D01*
X183784156Y-95224464D01*
X183815843Y-95197401D01*
X184460810Y-95197401D01*
X184466817Y-95207607D01*
X185407188Y-96147978D01*
X185421132Y-96155592D01*
X185422965Y-96155461D01*
X185429580Y-96151210D01*
X186371724Y-95209066D01*
X186379116Y-95195529D01*
X186375430Y-95190260D01*
X186167879Y-95063073D01*
X186159085Y-95058592D01*
X185930758Y-94964016D01*
X185921373Y-94960967D01*
X185681060Y-94903272D01*
X185671313Y-94901729D01*
X185424930Y-94882338D01*
X185415070Y-94882338D01*
X185168687Y-94901729D01*
X185158940Y-94903272D01*
X184918627Y-94960967D01*
X184909242Y-94964016D01*
X184680915Y-95058592D01*
X184672121Y-95063073D01*
X184466072Y-95189340D01*
X184460810Y-95197401D01*
X183815843Y-95197401D01*
X183967701Y-95067701D01*
X184124464Y-94884156D01*
X184250584Y-94678347D01*
X184266651Y-94639559D01*
X184341061Y-94459916D01*
X184341062Y-94459914D01*
X184342955Y-94455343D01*
X184362733Y-94372961D01*
X184398149Y-94225447D01*
X184398150Y-94225441D01*
X184399304Y-94220634D01*
X184418242Y-93980000D01*
X184399304Y-93739366D01*
X184398150Y-93734559D01*
X184398149Y-93734553D01*
X184344110Y-93509469D01*
X184342955Y-93504657D01*
X184250584Y-93281653D01*
X184124464Y-93075844D01*
X183967701Y-92892299D01*
X183818034Y-92764471D01*
X184460884Y-92764471D01*
X184464570Y-92769740D01*
X184672121Y-92896927D01*
X184680915Y-92901408D01*
X184909242Y-92995984D01*
X184918627Y-92999033D01*
X185158940Y-93056728D01*
X185168687Y-93058271D01*
X185415070Y-93077662D01*
X185424930Y-93077662D01*
X185671313Y-93058271D01*
X185681060Y-93056728D01*
X185921373Y-92999033D01*
X185930758Y-92995984D01*
X186159085Y-92901408D01*
X186167879Y-92896927D01*
X186373928Y-92770660D01*
X186379190Y-92762599D01*
X186373183Y-92752393D01*
X185432812Y-91812022D01*
X185418868Y-91804408D01*
X185417035Y-91804539D01*
X185410420Y-91808790D01*
X184468276Y-92750934D01*
X184460884Y-92764471D01*
X183818034Y-92764471D01*
X183784156Y-92735536D01*
X183578347Y-92609416D01*
X183573777Y-92607523D01*
X183573773Y-92607521D01*
X183359916Y-92518939D01*
X183359914Y-92518938D01*
X183355343Y-92517045D01*
X183272961Y-92497267D01*
X183125447Y-92461851D01*
X183125441Y-92461850D01*
X183120634Y-92460696D01*
X182880000Y-92441758D01*
X182639366Y-92460696D01*
X182634559Y-92461850D01*
X182634553Y-92461851D01*
X182487039Y-92497267D01*
X182404657Y-92517045D01*
X182400086Y-92518938D01*
X182400084Y-92518939D01*
X182186227Y-92607521D01*
X182186223Y-92607523D01*
X182181653Y-92609416D01*
X181975844Y-92735536D01*
X181792299Y-92892299D01*
X181635536Y-93075844D01*
X181509416Y-93281653D01*
X181417045Y-93504657D01*
X181415890Y-93509469D01*
X181361851Y-93734553D01*
X181361850Y-93734559D01*
X181360696Y-93739366D01*
X181341758Y-93980000D01*
X149331458Y-93980000D01*
X150546986Y-92764471D01*
X179380884Y-92764471D01*
X179384570Y-92769740D01*
X179592121Y-92896927D01*
X179600915Y-92901408D01*
X179829242Y-92995984D01*
X179838627Y-92999033D01*
X180078940Y-93056728D01*
X180088687Y-93058271D01*
X180335070Y-93077662D01*
X180344930Y-93077662D01*
X180591313Y-93058271D01*
X180601060Y-93056728D01*
X180841373Y-92999033D01*
X180850758Y-92995984D01*
X181079085Y-92901408D01*
X181087879Y-92896927D01*
X181293928Y-92770660D01*
X181299190Y-92762599D01*
X181293183Y-92752393D01*
X180352812Y-91812022D01*
X180338868Y-91804408D01*
X180337035Y-91804539D01*
X180330420Y-91808790D01*
X179388276Y-92750934D01*
X179380884Y-92764471D01*
X150546986Y-92764471D01*
X151444542Y-91866915D01*
X151459577Y-91854074D01*
X151465084Y-91850073D01*
X151465090Y-91850068D01*
X151470434Y-91846185D01*
X151501195Y-91812022D01*
X151514895Y-91796806D01*
X151519436Y-91792021D01*
X151533472Y-91777985D01*
X151545969Y-91762553D01*
X151550253Y-91757538D01*
X151590283Y-91713080D01*
X151590287Y-91713075D01*
X151594704Y-91708169D01*
X151601412Y-91696551D01*
X151612607Y-91680263D01*
X151616890Y-91674974D01*
X151616891Y-91674973D01*
X151621048Y-91669839D01*
X151651214Y-91610634D01*
X151654337Y-91604881D01*
X151687564Y-91547331D01*
X151689606Y-91541047D01*
X151689608Y-91541042D01*
X151691708Y-91534579D01*
X151699272Y-91516317D01*
X151702363Y-91510251D01*
X151702366Y-91510242D01*
X151705362Y-91504363D01*
X151721287Y-91444930D01*
X178702338Y-91444930D01*
X178721729Y-91691313D01*
X178723272Y-91701060D01*
X178780967Y-91941373D01*
X178784016Y-91950758D01*
X178878592Y-92179085D01*
X178883073Y-92187879D01*
X179009340Y-92393928D01*
X179017401Y-92399190D01*
X179027607Y-92393183D01*
X179967978Y-91452812D01*
X179974356Y-91441132D01*
X180704408Y-91441132D01*
X180704539Y-91442965D01*
X180708790Y-91449580D01*
X181650934Y-92391724D01*
X181664471Y-92399116D01*
X181669740Y-92395430D01*
X181796927Y-92187879D01*
X181801408Y-92179085D01*
X181895984Y-91950758D01*
X181899033Y-91941373D01*
X181956728Y-91701060D01*
X181958271Y-91691313D01*
X181977662Y-91444930D01*
X183782338Y-91444930D01*
X183801729Y-91691313D01*
X183803272Y-91701060D01*
X183860967Y-91941373D01*
X183864016Y-91950758D01*
X183958592Y-92179085D01*
X183963073Y-92187879D01*
X184089340Y-92393928D01*
X184097401Y-92399190D01*
X184107607Y-92393183D01*
X185047978Y-91452812D01*
X185055592Y-91438868D01*
X185055461Y-91437035D01*
X185051210Y-91430420D01*
X184109066Y-90488276D01*
X184095529Y-90480884D01*
X184090260Y-90484570D01*
X183963073Y-90692121D01*
X183958592Y-90700915D01*
X183864016Y-90929242D01*
X183860967Y-90938627D01*
X183803272Y-91178940D01*
X183801729Y-91188687D01*
X183782338Y-91435070D01*
X183782338Y-91444930D01*
X181977662Y-91444930D01*
X181977662Y-91435070D01*
X181958271Y-91188687D01*
X181956728Y-91178940D01*
X181899033Y-90938627D01*
X181895984Y-90929242D01*
X181801408Y-90700915D01*
X181796927Y-90692121D01*
X181670660Y-90486072D01*
X181662599Y-90480810D01*
X181652393Y-90486817D01*
X180712022Y-91427188D01*
X180704408Y-91441132D01*
X179974356Y-91441132D01*
X179975592Y-91438868D01*
X179975461Y-91437035D01*
X179971210Y-91430420D01*
X179029066Y-90488276D01*
X179015529Y-90480884D01*
X179010260Y-90484570D01*
X178883073Y-90692121D01*
X178878592Y-90700915D01*
X178784016Y-90929242D01*
X178780967Y-90938627D01*
X178723272Y-91178940D01*
X178721729Y-91188687D01*
X178702338Y-91435070D01*
X178702338Y-91444930D01*
X151721287Y-91444930D01*
X151722556Y-91440196D01*
X151724422Y-91433894D01*
X151744954Y-91370702D01*
X151746355Y-91357372D01*
X151749958Y-91337929D01*
X151753430Y-91324971D01*
X151754789Y-91299055D01*
X151756907Y-91258633D01*
X151757424Y-91252059D01*
X151757602Y-91250363D01*
X151759500Y-91232306D01*
X151759500Y-91212445D01*
X151759673Y-91205850D01*
X151762805Y-91146098D01*
X151762805Y-91146094D01*
X151763150Y-91139507D01*
X151761051Y-91126253D01*
X151759500Y-91106544D01*
X151759500Y-90117401D01*
X179380810Y-90117401D01*
X179386817Y-90127607D01*
X180327188Y-91067978D01*
X180341132Y-91075592D01*
X180342965Y-91075461D01*
X180349580Y-91071210D01*
X181291724Y-90129066D01*
X181298094Y-90117401D01*
X184460810Y-90117401D01*
X184466817Y-90127607D01*
X185407188Y-91067978D01*
X185421132Y-91075592D01*
X185422965Y-91075461D01*
X185429580Y-91071210D01*
X186371724Y-90129066D01*
X186379116Y-90115529D01*
X186375430Y-90110260D01*
X186167879Y-89983073D01*
X186159085Y-89978592D01*
X185930758Y-89884016D01*
X185921373Y-89880967D01*
X185681060Y-89823272D01*
X185671313Y-89821729D01*
X185424930Y-89802338D01*
X185415070Y-89802338D01*
X185168687Y-89821729D01*
X185158940Y-89823272D01*
X184918627Y-89880967D01*
X184909242Y-89884016D01*
X184680915Y-89978592D01*
X184672121Y-89983073D01*
X184466072Y-90109340D01*
X184460810Y-90117401D01*
X181298094Y-90117401D01*
X181299116Y-90115529D01*
X181295430Y-90110260D01*
X181087879Y-89983073D01*
X181079085Y-89978592D01*
X180850758Y-89884016D01*
X180841373Y-89880967D01*
X180601060Y-89823272D01*
X180591313Y-89821729D01*
X180344930Y-89802338D01*
X180335070Y-89802338D01*
X180088687Y-89821729D01*
X180078940Y-89823272D01*
X179838627Y-89880967D01*
X179829242Y-89884016D01*
X179600915Y-89978592D01*
X179592121Y-89983073D01*
X179386072Y-90109340D01*
X179380810Y-90117401D01*
X151759500Y-90117401D01*
X151759500Y-88124790D01*
X151765667Y-88085854D01*
X151767502Y-88080206D01*
X151769542Y-88073928D01*
X151789504Y-87884000D01*
X151769542Y-87694072D01*
X151710527Y-87512444D01*
X151615040Y-87347056D01*
X151487253Y-87205134D01*
X151332752Y-87092882D01*
X151326724Y-87090198D01*
X151326722Y-87090197D01*
X151164319Y-87017891D01*
X151164318Y-87017891D01*
X151158288Y-87015206D01*
X151064887Y-86995353D01*
X150977944Y-86976872D01*
X150977939Y-86976872D01*
X150971487Y-86975500D01*
X150780513Y-86975500D01*
X150774061Y-86976872D01*
X150774056Y-86976872D01*
X150687113Y-86995353D01*
X150593712Y-87015206D01*
X150587682Y-87017891D01*
X150587681Y-87017891D01*
X150425278Y-87090197D01*
X150425276Y-87090198D01*
X150419248Y-87092882D01*
X150264747Y-87205134D01*
X150136960Y-87347056D01*
X150041473Y-87512444D01*
X149982458Y-87694072D01*
X149962496Y-87884000D01*
X149982458Y-88073928D01*
X149984498Y-88080206D01*
X149986333Y-88085854D01*
X149992500Y-88124790D01*
X149992500Y-90767853D01*
X149972498Y-90835974D01*
X149955595Y-90856948D01*
X147752947Y-93059595D01*
X147690635Y-93093621D01*
X147663852Y-93096500D01*
X140626148Y-93096500D01*
X140558027Y-93076498D01*
X140537053Y-93059595D01*
X138080405Y-90602947D01*
X138046379Y-90540635D01*
X138043500Y-90513852D01*
X138043500Y-78472790D01*
X138049667Y-78433854D01*
X138051502Y-78428206D01*
X138053542Y-78421928D01*
X138073504Y-78232000D01*
X138059686Y-78100525D01*
X138054232Y-78048635D01*
X138054232Y-78048633D01*
X138053542Y-78042072D01*
X138049667Y-78030146D01*
X138043500Y-77991210D01*
X138043500Y-58337802D01*
X138063502Y-58269681D01*
X138117158Y-58223188D01*
X138187432Y-58213084D01*
X138252012Y-58242578D01*
X138258595Y-58248707D01*
X143338996Y-63329109D01*
X143373022Y-63391421D01*
X143375211Y-63405032D01*
X143378458Y-63435928D01*
X143437473Y-63617556D01*
X143440776Y-63623278D01*
X143440777Y-63623279D01*
X143532960Y-63782944D01*
X143531820Y-63783602D01*
X143553294Y-63843785D01*
X143553500Y-63850980D01*
X143553500Y-76643971D01*
X143552067Y-76662921D01*
X143549050Y-76682753D01*
X143549643Y-76690045D01*
X143549643Y-76690048D01*
X143553085Y-76732360D01*
X143553500Y-76742575D01*
X143553500Y-76749951D01*
X143553925Y-76753595D01*
X143556605Y-76776587D01*
X143557038Y-76780962D01*
X143557438Y-76785875D01*
X143562633Y-76849746D01*
X143564886Y-76856700D01*
X143565936Y-76861959D01*
X143567164Y-76867154D01*
X143568011Y-76874416D01*
X143586566Y-76925532D01*
X143591577Y-76939338D01*
X143593002Y-76943492D01*
X143614267Y-77009133D01*
X143618064Y-77015391D01*
X143620298Y-77020270D01*
X143622680Y-77025027D01*
X143625177Y-77031905D01*
X143663056Y-77089679D01*
X143665357Y-77093327D01*
X143701184Y-77152369D01*
X143704898Y-77156574D01*
X143708197Y-77160309D01*
X143708185Y-77160320D01*
X143711297Y-77163830D01*
X143713030Y-77165903D01*
X143717040Y-77172019D01*
X143722347Y-77177046D01*
X143722350Y-77177050D01*
X143770236Y-77222412D01*
X143772678Y-77224790D01*
X145750665Y-79202777D01*
X145763051Y-79217189D01*
X145774945Y-79233351D01*
X145780528Y-79238094D01*
X145812887Y-79265585D01*
X145820403Y-79272515D01*
X145825608Y-79277720D01*
X145828486Y-79279997D01*
X145846607Y-79294334D01*
X145850007Y-79297122D01*
X145897047Y-79337085D01*
X145897052Y-79337088D01*
X145902631Y-79341828D01*
X145909154Y-79345158D01*
X145913601Y-79348124D01*
X145918136Y-79350925D01*
X145923879Y-79355469D01*
X145930512Y-79358569D01*
X145986417Y-79384697D01*
X145990369Y-79386629D01*
X146051846Y-79418021D01*
X146058958Y-79419761D01*
X146063961Y-79421622D01*
X146069034Y-79423310D01*
X146075663Y-79426408D01*
X146082823Y-79427897D01*
X146082825Y-79427898D01*
X146143248Y-79440466D01*
X146147536Y-79441437D01*
X146209134Y-79456510D01*
X146209140Y-79456511D01*
X146214588Y-79457844D01*
X146220187Y-79458191D01*
X146220191Y-79458192D01*
X146225162Y-79458500D01*
X146225161Y-79458515D01*
X146229835Y-79458797D01*
X146232537Y-79459038D01*
X146239695Y-79460527D01*
X146312904Y-79458546D01*
X146316312Y-79458500D01*
X153326358Y-79458500D01*
X153400419Y-79482564D01*
X153467248Y-79531118D01*
X153473276Y-79533802D01*
X153473278Y-79533803D01*
X153635681Y-79606109D01*
X153641712Y-79608794D01*
X153735113Y-79628647D01*
X153822056Y-79647128D01*
X153822061Y-79647128D01*
X153828513Y-79648500D01*
X154019487Y-79648500D01*
X154025939Y-79647128D01*
X154025944Y-79647128D01*
X154112887Y-79628647D01*
X154206288Y-79608794D01*
X154212319Y-79606109D01*
X154374722Y-79533803D01*
X154374724Y-79533802D01*
X154380752Y-79531118D01*
X154535253Y-79418866D01*
X154550778Y-79401624D01*
X154658621Y-79281852D01*
X154658622Y-79281851D01*
X154663040Y-79276944D01*
X154747653Y-79130390D01*
X154755223Y-79117279D01*
X154755224Y-79117278D01*
X154758527Y-79111556D01*
X154817542Y-78929928D01*
X154820789Y-78899032D01*
X154847802Y-78833376D01*
X154857004Y-78823108D01*
X154974846Y-78705266D01*
X160307000Y-78705266D01*
X160307337Y-78711782D01*
X160317075Y-78805632D01*
X160319968Y-78819028D01*
X160370488Y-78970453D01*
X160376653Y-78983615D01*
X160460426Y-79118992D01*
X160469460Y-79130390D01*
X160582129Y-79242863D01*
X160593540Y-79251875D01*
X160729063Y-79335412D01*
X160742241Y-79341556D01*
X160893766Y-79391815D01*
X160907132Y-79394681D01*
X160999770Y-79404172D01*
X161006185Y-79404500D01*
X161017885Y-79404500D01*
X161033124Y-79400025D01*
X161034329Y-79398635D01*
X161036000Y-79390952D01*
X161036000Y-79386385D01*
X161544000Y-79386385D01*
X161548475Y-79401624D01*
X161549865Y-79402829D01*
X161557548Y-79404500D01*
X161573766Y-79404500D01*
X161580282Y-79404163D01*
X161674132Y-79394425D01*
X161687528Y-79391532D01*
X161838953Y-79341012D01*
X161852115Y-79334847D01*
X161987492Y-79251074D01*
X161998890Y-79242040D01*
X162111363Y-79129371D01*
X162120375Y-79117960D01*
X162203912Y-78982437D01*
X162210056Y-78969259D01*
X162260315Y-78817734D01*
X162263181Y-78804368D01*
X162272672Y-78711730D01*
X162273000Y-78705315D01*
X162273000Y-78631115D01*
X162268525Y-78615876D01*
X162267135Y-78614671D01*
X162259452Y-78613000D01*
X161562115Y-78613000D01*
X161546876Y-78617475D01*
X161545671Y-78618865D01*
X161544000Y-78626548D01*
X161544000Y-79386385D01*
X161036000Y-79386385D01*
X161036000Y-78631115D01*
X161031525Y-78615876D01*
X161030135Y-78614671D01*
X161022452Y-78613000D01*
X160325115Y-78613000D01*
X160309876Y-78617475D01*
X160308671Y-78618865D01*
X160307000Y-78626548D01*
X160307000Y-78705266D01*
X154974846Y-78705266D01*
X158024707Y-75655405D01*
X158087019Y-75621379D01*
X158113802Y-75618500D01*
X160408817Y-75618500D01*
X160476938Y-75638502D01*
X160523431Y-75692158D01*
X160533535Y-75762432D01*
X160504041Y-75827012D01*
X160498006Y-75833501D01*
X160463071Y-75868497D01*
X160371791Y-76016580D01*
X160317026Y-76181691D01*
X160316326Y-76188527D01*
X160316325Y-76188530D01*
X160314292Y-76208371D01*
X160306500Y-76284428D01*
X160306500Y-76983572D01*
X160306837Y-76986818D01*
X160306837Y-76986822D01*
X160310308Y-77020270D01*
X160317293Y-77087593D01*
X160372346Y-77252607D01*
X160463884Y-77400531D01*
X160469065Y-77405703D01*
X160471139Y-77407773D01*
X160472105Y-77409538D01*
X160473613Y-77411441D01*
X160473287Y-77411699D01*
X160505219Y-77470054D01*
X160500218Y-77540875D01*
X160471292Y-77585970D01*
X160468636Y-77588631D01*
X160459625Y-77600040D01*
X160376088Y-77735563D01*
X160369944Y-77748741D01*
X160319685Y-77900266D01*
X160316819Y-77913632D01*
X160307328Y-78006270D01*
X160307000Y-78012685D01*
X160307000Y-78086885D01*
X160311475Y-78102124D01*
X160312865Y-78103329D01*
X160320548Y-78105000D01*
X162254885Y-78105000D01*
X162270124Y-78100525D01*
X162271329Y-78099135D01*
X162273000Y-78091452D01*
X162273000Y-78012734D01*
X162272663Y-78006218D01*
X162262925Y-77912368D01*
X162260032Y-77898972D01*
X162209512Y-77747547D01*
X162203347Y-77734385D01*
X162119574Y-77599008D01*
X162110536Y-77587606D01*
X162108861Y-77585933D01*
X162108081Y-77584507D01*
X162105993Y-77581873D01*
X162106444Y-77581516D01*
X162074781Y-77523651D01*
X162079784Y-77452831D01*
X162108701Y-77407746D01*
X162111756Y-77404685D01*
X162116929Y-77399503D01*
X162120770Y-77393272D01*
X162204369Y-77257650D01*
X162204370Y-77257648D01*
X162208209Y-77251420D01*
X162262974Y-77086309D01*
X162267922Y-77038020D01*
X162273172Y-76986771D01*
X162273500Y-76983572D01*
X162273500Y-76595762D01*
X162293502Y-76527641D01*
X162347158Y-76481148D01*
X162417432Y-76471044D01*
X162425913Y-76472562D01*
X162431130Y-76473681D01*
X162523770Y-76483172D01*
X162530185Y-76483500D01*
X162541885Y-76483500D01*
X162557124Y-76479025D01*
X162558329Y-76477635D01*
X162560000Y-76469952D01*
X162560000Y-76465385D01*
X163068000Y-76465385D01*
X163072475Y-76480624D01*
X163073865Y-76481829D01*
X163081548Y-76483500D01*
X163097766Y-76483500D01*
X163104282Y-76483163D01*
X163198132Y-76473425D01*
X163211528Y-76470532D01*
X163362953Y-76420012D01*
X163376115Y-76413847D01*
X163511492Y-76330074D01*
X163522890Y-76321040D01*
X163604522Y-76239266D01*
X169959000Y-76239266D01*
X169959337Y-76245782D01*
X169969075Y-76339632D01*
X169971968Y-76353028D01*
X170022488Y-76504453D01*
X170028653Y-76517615D01*
X170112426Y-76652992D01*
X170121460Y-76664390D01*
X170234129Y-76776863D01*
X170245540Y-76785875D01*
X170381063Y-76869412D01*
X170394241Y-76875556D01*
X170545766Y-76925815D01*
X170559132Y-76928681D01*
X170651770Y-76938172D01*
X170658185Y-76938500D01*
X170669885Y-76938500D01*
X170685124Y-76934025D01*
X170686329Y-76932635D01*
X170688000Y-76924952D01*
X170688000Y-76920385D01*
X171196000Y-76920385D01*
X171200475Y-76935624D01*
X171201865Y-76936829D01*
X171209548Y-76938500D01*
X171225766Y-76938500D01*
X171232282Y-76938163D01*
X171326132Y-76928425D01*
X171339528Y-76925532D01*
X171490953Y-76875012D01*
X171504115Y-76868847D01*
X171639492Y-76785074D01*
X171650890Y-76776040D01*
X171763363Y-76663371D01*
X171772375Y-76651960D01*
X171855912Y-76516437D01*
X171862056Y-76503259D01*
X171912315Y-76351734D01*
X171915181Y-76338368D01*
X171924672Y-76245730D01*
X171925000Y-76239315D01*
X171925000Y-76165115D01*
X171920525Y-76149876D01*
X171919135Y-76148671D01*
X171911452Y-76147000D01*
X171214115Y-76147000D01*
X171198876Y-76151475D01*
X171197671Y-76152865D01*
X171196000Y-76160548D01*
X171196000Y-76920385D01*
X170688000Y-76920385D01*
X170688000Y-76165115D01*
X170683525Y-76149876D01*
X170682135Y-76148671D01*
X170674452Y-76147000D01*
X169977115Y-76147000D01*
X169961876Y-76151475D01*
X169960671Y-76152865D01*
X169959000Y-76160548D01*
X169959000Y-76239266D01*
X163604522Y-76239266D01*
X163635363Y-76208371D01*
X163644375Y-76196960D01*
X163727912Y-76061437D01*
X163734056Y-76048259D01*
X163784315Y-75896734D01*
X163787181Y-75883368D01*
X163796672Y-75790730D01*
X163797000Y-75784315D01*
X163797000Y-75710115D01*
X163792525Y-75694876D01*
X163791135Y-75693671D01*
X163783452Y-75692000D01*
X163086115Y-75692000D01*
X163070876Y-75696475D01*
X163069671Y-75697865D01*
X163068000Y-75705548D01*
X163068000Y-76465385D01*
X162560000Y-76465385D01*
X162560000Y-75310000D01*
X162580002Y-75241879D01*
X162633658Y-75195386D01*
X162686000Y-75184000D01*
X163778885Y-75184000D01*
X163794124Y-75179525D01*
X163795329Y-75178135D01*
X163797000Y-75170452D01*
X163797000Y-75091734D01*
X163796663Y-75085218D01*
X163786925Y-74991368D01*
X163784032Y-74977972D01*
X163733512Y-74826547D01*
X163727347Y-74813385D01*
X163643574Y-74678008D01*
X163634536Y-74666606D01*
X163632861Y-74664933D01*
X163632081Y-74663507D01*
X163629993Y-74660873D01*
X163630444Y-74660516D01*
X163598781Y-74602651D01*
X163603784Y-74531831D01*
X163632701Y-74486746D01*
X163635756Y-74483685D01*
X163640929Y-74478503D01*
X163689658Y-74399451D01*
X163728369Y-74336650D01*
X163728370Y-74336648D01*
X163732209Y-74330420D01*
X163786974Y-74165309D01*
X163797500Y-74062572D01*
X163797500Y-73363428D01*
X163794786Y-73337270D01*
X163787419Y-73266265D01*
X163787418Y-73266261D01*
X163786707Y-73259407D01*
X163764024Y-73191416D01*
X163733972Y-73101341D01*
X163731654Y-73094393D01*
X163660817Y-72979921D01*
X163643969Y-72952695D01*
X163643968Y-72952694D01*
X163640116Y-72946469D01*
X163562696Y-72869184D01*
X163528618Y-72806905D01*
X163526130Y-72790227D01*
X163523961Y-72763553D01*
X163523960Y-72763550D01*
X163523367Y-72756254D01*
X163521112Y-72749293D01*
X163520060Y-72744026D01*
X163518836Y-72738851D01*
X163517989Y-72731584D01*
X163494415Y-72666639D01*
X163493000Y-72662515D01*
X163473989Y-72603830D01*
X163471733Y-72596866D01*
X163467936Y-72590609D01*
X163465717Y-72585761D01*
X163463321Y-72580975D01*
X163460823Y-72574095D01*
X163456813Y-72567978D01*
X163456810Y-72567973D01*
X163422966Y-72516353D01*
X163420619Y-72512633D01*
X163387730Y-72458432D01*
X163387726Y-72458426D01*
X163384816Y-72453631D01*
X163377803Y-72445690D01*
X163377815Y-72445679D01*
X163374697Y-72442164D01*
X163372973Y-72440102D01*
X163368960Y-72433981D01*
X163315779Y-72383602D01*
X163313338Y-72381225D01*
X163113336Y-72181223D01*
X163100950Y-72166812D01*
X163093394Y-72156545D01*
X163089055Y-72150649D01*
X163083477Y-72145910D01*
X163083474Y-72145907D01*
X163051113Y-72118415D01*
X163043597Y-72111485D01*
X163038392Y-72106280D01*
X163035531Y-72104017D01*
X163035526Y-72104012D01*
X163017370Y-72089648D01*
X163013969Y-72086859D01*
X162961369Y-72042172D01*
X162962953Y-72040308D01*
X162924847Y-71994792D01*
X162915938Y-71924356D01*
X162946523Y-71860286D01*
X163000457Y-71824879D01*
X163118453Y-71785512D01*
X163131615Y-71779347D01*
X163266992Y-71695574D01*
X163278390Y-71686540D01*
X163390863Y-71573871D01*
X163399875Y-71562460D01*
X163483412Y-71426937D01*
X163489556Y-71413759D01*
X163539815Y-71262234D01*
X163542681Y-71248868D01*
X163552172Y-71156230D01*
X163552500Y-71149815D01*
X163552500Y-71138115D01*
X163548025Y-71122876D01*
X163546635Y-71121671D01*
X163538952Y-71120000D01*
X162379000Y-71120000D01*
X162310879Y-71099998D01*
X162264386Y-71046342D01*
X162253000Y-70994000D01*
X162253000Y-70738000D01*
X162273002Y-70669879D01*
X162326658Y-70623386D01*
X162379000Y-70612000D01*
X163534385Y-70612000D01*
X163549624Y-70607525D01*
X163550829Y-70606135D01*
X163552500Y-70598452D01*
X163552500Y-70582234D01*
X163552163Y-70575718D01*
X163542425Y-70481868D01*
X163539531Y-70468468D01*
X163525204Y-70425524D01*
X163522620Y-70354575D01*
X163558804Y-70293491D01*
X163601734Y-70267211D01*
X163609136Y-70264524D01*
X163613299Y-70263095D01*
X163678933Y-70241833D01*
X163685191Y-70238036D01*
X163690070Y-70235802D01*
X163694827Y-70233420D01*
X163701705Y-70230923D01*
X163759479Y-70193044D01*
X163763127Y-70190743D01*
X163822169Y-70154916D01*
X163830109Y-70147903D01*
X163830120Y-70147915D01*
X163833630Y-70144803D01*
X163835703Y-70143070D01*
X163841819Y-70139060D01*
X163846846Y-70133753D01*
X163846850Y-70133750D01*
X163892193Y-70085884D01*
X163894571Y-70083441D01*
X164663905Y-69314108D01*
X164726217Y-69280083D01*
X164797033Y-69285148D01*
X164853868Y-69327695D01*
X164878679Y-69394215D01*
X164879000Y-69403204D01*
X164879000Y-69434266D01*
X164879337Y-69440782D01*
X164889075Y-69534632D01*
X164891968Y-69548028D01*
X164942488Y-69699453D01*
X164948653Y-69712615D01*
X165032426Y-69847992D01*
X165041460Y-69859390D01*
X165154129Y-69971863D01*
X165165540Y-69980875D01*
X165301063Y-70064412D01*
X165314241Y-70070556D01*
X165465766Y-70120815D01*
X165479132Y-70123681D01*
X165571770Y-70133172D01*
X165578185Y-70133500D01*
X165589885Y-70133500D01*
X165605124Y-70129025D01*
X165606329Y-70127635D01*
X165608000Y-70119952D01*
X165608000Y-70115385D01*
X166116000Y-70115385D01*
X166120475Y-70130624D01*
X166121865Y-70131829D01*
X166129548Y-70133500D01*
X166145766Y-70133500D01*
X166152282Y-70133163D01*
X166246132Y-70123425D01*
X166259528Y-70120532D01*
X166410953Y-70070012D01*
X166424115Y-70063847D01*
X166559492Y-69980074D01*
X166570890Y-69971040D01*
X166683363Y-69858371D01*
X166692375Y-69846960D01*
X166775912Y-69711437D01*
X166782056Y-69698259D01*
X166832315Y-69546734D01*
X166835181Y-69533368D01*
X166844672Y-69440730D01*
X166845000Y-69434315D01*
X166845000Y-69360115D01*
X166840525Y-69344876D01*
X166839135Y-69343671D01*
X166831452Y-69342000D01*
X166134115Y-69342000D01*
X166118876Y-69346475D01*
X166117671Y-69347865D01*
X166116000Y-69355548D01*
X166116000Y-70115385D01*
X165608000Y-70115385D01*
X165608000Y-69117766D01*
X168018000Y-69117766D01*
X168018337Y-69124282D01*
X168028075Y-69218132D01*
X168030968Y-69231528D01*
X168081488Y-69382953D01*
X168087653Y-69396115D01*
X168171426Y-69531492D01*
X168180460Y-69542890D01*
X168293129Y-69655363D01*
X168304540Y-69664375D01*
X168440063Y-69747912D01*
X168453241Y-69754056D01*
X168604766Y-69804315D01*
X168618132Y-69807181D01*
X168710770Y-69816672D01*
X168717185Y-69817000D01*
X168791385Y-69817000D01*
X168806624Y-69812525D01*
X168807829Y-69811135D01*
X168809500Y-69803452D01*
X168809500Y-69106115D01*
X168805025Y-69090876D01*
X168803635Y-69089671D01*
X168795952Y-69088000D01*
X168036115Y-69088000D01*
X168020876Y-69092475D01*
X168019671Y-69093865D01*
X168018000Y-69101548D01*
X168018000Y-69117766D01*
X165608000Y-69117766D01*
X165608000Y-68960000D01*
X165628002Y-68891879D01*
X165681658Y-68845386D01*
X165734000Y-68834000D01*
X166826885Y-68834000D01*
X166842124Y-68829525D01*
X166843329Y-68828135D01*
X166845000Y-68820452D01*
X166845000Y-68741734D01*
X166844663Y-68735218D01*
X166834925Y-68641368D01*
X166832032Y-68627972D01*
X166781512Y-68476547D01*
X166775347Y-68463385D01*
X166761001Y-68440202D01*
X166742164Y-68371750D01*
X166763326Y-68303980D01*
X166817767Y-68258410D01*
X166868146Y-68247900D01*
X167919118Y-68247900D01*
X167987239Y-68267902D01*
X168033732Y-68321558D01*
X168043836Y-68391832D01*
X168038712Y-68413566D01*
X168030684Y-68437771D01*
X168027819Y-68451132D01*
X168018328Y-68543770D01*
X168018000Y-68550185D01*
X168018000Y-68561885D01*
X168022475Y-68577124D01*
X168023865Y-68578329D01*
X168031548Y-68580000D01*
X169191500Y-68580000D01*
X169259621Y-68600002D01*
X169306114Y-68653658D01*
X169317500Y-68706000D01*
X169317500Y-69798885D01*
X169321975Y-69814124D01*
X169323365Y-69815329D01*
X169331048Y-69817000D01*
X169409766Y-69817000D01*
X169416282Y-69816663D01*
X169510132Y-69806925D01*
X169523528Y-69804032D01*
X169674953Y-69753512D01*
X169688115Y-69747347D01*
X169823492Y-69663574D01*
X169834894Y-69654536D01*
X169836567Y-69652861D01*
X169837993Y-69652081D01*
X169840627Y-69649993D01*
X169840984Y-69650444D01*
X169898849Y-69618781D01*
X169969669Y-69623784D01*
X170014754Y-69652701D01*
X170016593Y-69654536D01*
X170022997Y-69660929D01*
X170029227Y-69664769D01*
X170029228Y-69664770D01*
X170127473Y-69725329D01*
X170171080Y-69752209D01*
X170336191Y-69806974D01*
X170343027Y-69807674D01*
X170343030Y-69807675D01*
X170390370Y-69812525D01*
X170438928Y-69817500D01*
X171138072Y-69817500D01*
X171141318Y-69817163D01*
X171141322Y-69817163D01*
X171235235Y-69807419D01*
X171235239Y-69807418D01*
X171242093Y-69806707D01*
X171248629Y-69804526D01*
X171248631Y-69804526D01*
X171393049Y-69756344D01*
X171407107Y-69751654D01*
X171548518Y-69664147D01*
X171616968Y-69645309D01*
X171688881Y-69669356D01*
X171701698Y-69678668D01*
X171707726Y-69681352D01*
X171707728Y-69681353D01*
X171869801Y-69753512D01*
X171876162Y-69756344D01*
X171958700Y-69773888D01*
X172056506Y-69794678D01*
X172056511Y-69794678D01*
X172062963Y-69796050D01*
X172253937Y-69796050D01*
X172260392Y-69794678D01*
X172260401Y-69794677D01*
X172358202Y-69773888D01*
X172428993Y-69779289D01*
X172485626Y-69822105D01*
X172510120Y-69888743D01*
X172510400Y-69897134D01*
X172510400Y-70029643D01*
X172508849Y-70049355D01*
X172506750Y-70062607D01*
X172507095Y-70069198D01*
X172506750Y-70075792D01*
X172506439Y-70075776D01*
X172506256Y-70082807D01*
X172501296Y-70130000D01*
X172501986Y-70136565D01*
X172519084Y-70299240D01*
X172521258Y-70319928D01*
X172580273Y-70501556D01*
X172675760Y-70666944D01*
X172803547Y-70808866D01*
X172897721Y-70877288D01*
X172926250Y-70898015D01*
X172958048Y-70921118D01*
X172964076Y-70923802D01*
X172964078Y-70923803D01*
X173126481Y-70996109D01*
X173132512Y-70998794D01*
X173219797Y-71017347D01*
X173312856Y-71037128D01*
X173312861Y-71037128D01*
X173319313Y-71038500D01*
X173510287Y-71038500D01*
X173516739Y-71037128D01*
X173516744Y-71037128D01*
X173662053Y-71006241D01*
X173697088Y-70998794D01*
X173703124Y-70996107D01*
X173709398Y-70994068D01*
X173709975Y-70995842D01*
X173749237Y-70987500D01*
X173942058Y-70987500D01*
X174008175Y-71006241D01*
X174027848Y-71018368D01*
X174027851Y-71018370D01*
X174034080Y-71022209D01*
X174199191Y-71076974D01*
X174206027Y-71077674D01*
X174206030Y-71077675D01*
X174253370Y-71082525D01*
X174301928Y-71087500D01*
X175001072Y-71087500D01*
X175004318Y-71087163D01*
X175004322Y-71087163D01*
X175098235Y-71077419D01*
X175098239Y-71077418D01*
X175105093Y-71076707D01*
X175111629Y-71074526D01*
X175111631Y-71074526D01*
X175244395Y-71030232D01*
X175270107Y-71021654D01*
X175418031Y-70930116D01*
X175425274Y-70922861D01*
X175427038Y-70921895D01*
X175428941Y-70920387D01*
X175429199Y-70920713D01*
X175487554Y-70888781D01*
X175558375Y-70893782D01*
X175603470Y-70922708D01*
X175606131Y-70925364D01*
X175617540Y-70934375D01*
X175753063Y-71017912D01*
X175766241Y-71024056D01*
X175917766Y-71074315D01*
X175931132Y-71077181D01*
X176023770Y-71086672D01*
X176030185Y-71087000D01*
X176104385Y-71087000D01*
X176119624Y-71082525D01*
X176120829Y-71081135D01*
X176122500Y-71073452D01*
X176122500Y-71068885D01*
X176630500Y-71068885D01*
X176634975Y-71084124D01*
X176636365Y-71085329D01*
X176644048Y-71087000D01*
X176722766Y-71087000D01*
X176729282Y-71086663D01*
X176823132Y-71076925D01*
X176836528Y-71074032D01*
X176987953Y-71023512D01*
X177001115Y-71017347D01*
X177136492Y-70933574D01*
X177147890Y-70924540D01*
X177260363Y-70811871D01*
X177269375Y-70800460D01*
X177352912Y-70664937D01*
X177359056Y-70651759D01*
X177409315Y-70500234D01*
X177412181Y-70486868D01*
X177421672Y-70394230D01*
X177422000Y-70387815D01*
X177422000Y-70376115D01*
X177417525Y-70360876D01*
X177416135Y-70359671D01*
X177408452Y-70358000D01*
X176648615Y-70358000D01*
X176633376Y-70362475D01*
X176632171Y-70363865D01*
X176630500Y-70371548D01*
X176630500Y-71068885D01*
X176122500Y-71068885D01*
X176122500Y-69831885D01*
X176630500Y-69831885D01*
X176634975Y-69847124D01*
X176636365Y-69848329D01*
X176644048Y-69850000D01*
X177403885Y-69850000D01*
X177419124Y-69845525D01*
X177420329Y-69844135D01*
X177422000Y-69836452D01*
X177422000Y-69820234D01*
X177421663Y-69813718D01*
X177411925Y-69719868D01*
X177409032Y-69706472D01*
X177358512Y-69555047D01*
X177352347Y-69541885D01*
X177268574Y-69406508D01*
X177259540Y-69395110D01*
X177146871Y-69282637D01*
X177135460Y-69273625D01*
X176999937Y-69190088D01*
X176986759Y-69183944D01*
X176835234Y-69133685D01*
X176821868Y-69130819D01*
X176729230Y-69121328D01*
X176722815Y-69121000D01*
X176648615Y-69121000D01*
X176633376Y-69125475D01*
X176632171Y-69126865D01*
X176630500Y-69134548D01*
X176630500Y-69831885D01*
X176122500Y-69831885D01*
X176122500Y-69139115D01*
X176118025Y-69123876D01*
X176116635Y-69122671D01*
X176108952Y-69121000D01*
X176030234Y-69121000D01*
X176023718Y-69121337D01*
X175929868Y-69131075D01*
X175916472Y-69133968D01*
X175765047Y-69184488D01*
X175751885Y-69190653D01*
X175616508Y-69274426D01*
X175605106Y-69283464D01*
X175603433Y-69285139D01*
X175602007Y-69285919D01*
X175599373Y-69288007D01*
X175599016Y-69287556D01*
X175541151Y-69319219D01*
X175470331Y-69314216D01*
X175425246Y-69285299D01*
X175422185Y-69282244D01*
X175417003Y-69277071D01*
X175338062Y-69228411D01*
X175275150Y-69189631D01*
X175275148Y-69189630D01*
X175268920Y-69185791D01*
X175103809Y-69131026D01*
X175096973Y-69130326D01*
X175096970Y-69130325D01*
X175037985Y-69124282D01*
X175001072Y-69120500D01*
X174403400Y-69120500D01*
X174335279Y-69100498D01*
X174288786Y-69046842D01*
X174277400Y-68994500D01*
X174277400Y-68381290D01*
X174283567Y-68342354D01*
X174285402Y-68336706D01*
X174287442Y-68330428D01*
X174293489Y-68272900D01*
X174306714Y-68147065D01*
X174307404Y-68140500D01*
X174287442Y-67950572D01*
X174228427Y-67768944D01*
X174132940Y-67603556D01*
X174005153Y-67461634D01*
X173864478Y-67359427D01*
X173849445Y-67346587D01*
X173298712Y-66795854D01*
X173285875Y-66780826D01*
X173277985Y-66769966D01*
X173228616Y-66725514D01*
X173223831Y-66720973D01*
X173209786Y-66706928D01*
X173207209Y-66704841D01*
X173194354Y-66694431D01*
X173189338Y-66690147D01*
X173144880Y-66650117D01*
X173144875Y-66650113D01*
X173139969Y-66645696D01*
X173128352Y-66638989D01*
X173112059Y-66627791D01*
X173106771Y-66623509D01*
X173101639Y-66619353D01*
X173042437Y-66589187D01*
X173036667Y-66586054D01*
X172984855Y-66556140D01*
X172984850Y-66556138D01*
X172979131Y-66552836D01*
X172972851Y-66550795D01*
X172972843Y-66550792D01*
X172966379Y-66548692D01*
X172948117Y-66541128D01*
X172942051Y-66538037D01*
X172942042Y-66538034D01*
X172936163Y-66535038D01*
X172925472Y-66532173D01*
X172871996Y-66517844D01*
X172865694Y-66515978D01*
X172802502Y-66495446D01*
X172789172Y-66494045D01*
X172769729Y-66490442D01*
X172756771Y-66486970D01*
X172750181Y-66486625D01*
X172750177Y-66486624D01*
X172706227Y-66484321D01*
X172690428Y-66483493D01*
X172683869Y-66482977D01*
X172664106Y-66480900D01*
X172644245Y-66480900D01*
X172637650Y-66480727D01*
X172577898Y-66477595D01*
X172577894Y-66477595D01*
X172571307Y-66477250D01*
X172558053Y-66479349D01*
X172538344Y-66480900D01*
X170739052Y-66480900D01*
X170670931Y-66460898D01*
X170624438Y-66407242D01*
X170614334Y-66336968D01*
X170619457Y-66315240D01*
X170644974Y-66238309D01*
X170655500Y-66135572D01*
X170655500Y-65436428D01*
X170644707Y-65332407D01*
X170589654Y-65167393D01*
X170498116Y-65019469D01*
X170490861Y-65012226D01*
X170489895Y-65010462D01*
X170488387Y-65008559D01*
X170488713Y-65008301D01*
X170456781Y-64949946D01*
X170461782Y-64879125D01*
X170490708Y-64834030D01*
X170493364Y-64831369D01*
X170502375Y-64819960D01*
X170585912Y-64684437D01*
X170592056Y-64671259D01*
X170642315Y-64519734D01*
X170645181Y-64506368D01*
X170654672Y-64413730D01*
X170655000Y-64407315D01*
X170655000Y-64333115D01*
X170650525Y-64317876D01*
X170649135Y-64316671D01*
X170641452Y-64315000D01*
X168707115Y-64315000D01*
X168691876Y-64319475D01*
X168690671Y-64320865D01*
X168689000Y-64328548D01*
X168689000Y-64407266D01*
X168689337Y-64413782D01*
X168699075Y-64507632D01*
X168701968Y-64521028D01*
X168752488Y-64672453D01*
X168758653Y-64685615D01*
X168842426Y-64820992D01*
X168851464Y-64832394D01*
X168853139Y-64834067D01*
X168853919Y-64835493D01*
X168856007Y-64838127D01*
X168855556Y-64838484D01*
X168887219Y-64896349D01*
X168882216Y-64967169D01*
X168853299Y-65012254D01*
X168851260Y-65014297D01*
X168845071Y-65020497D01*
X168841231Y-65026727D01*
X168841230Y-65026728D01*
X168758364Y-65161162D01*
X168753791Y-65168580D01*
X168699026Y-65333691D01*
X168688500Y-65436428D01*
X168688500Y-66135572D01*
X168699293Y-66239593D01*
X168701476Y-66246135D01*
X168701476Y-66246137D01*
X168724458Y-66315023D01*
X168727043Y-66385973D01*
X168690860Y-66447057D01*
X168627396Y-66478882D01*
X168604935Y-66480900D01*
X166612607Y-66480900D01*
X166546491Y-66462160D01*
X166423150Y-66386131D01*
X166423148Y-66386130D01*
X166416920Y-66382291D01*
X166251809Y-66327526D01*
X166244973Y-66326826D01*
X166244970Y-66326825D01*
X166193474Y-66321549D01*
X166149072Y-66317000D01*
X165574928Y-66317000D01*
X165571682Y-66317337D01*
X165571678Y-66317337D01*
X165477765Y-66327081D01*
X165477761Y-66327082D01*
X165470907Y-66327793D01*
X165464371Y-66329974D01*
X165464369Y-66329974D01*
X165443406Y-66336968D01*
X165305893Y-66382846D01*
X165240474Y-66423328D01*
X165177910Y-66462044D01*
X165111607Y-66480900D01*
X163205257Y-66480900D01*
X163185545Y-66479349D01*
X163184122Y-66479124D01*
X163172293Y-66477250D01*
X163165706Y-66477595D01*
X163165702Y-66477595D01*
X163105950Y-66480727D01*
X163099355Y-66480900D01*
X163079494Y-66480900D01*
X163059731Y-66482977D01*
X163053172Y-66483493D01*
X163037373Y-66484321D01*
X162993423Y-66486624D01*
X162993419Y-66486625D01*
X162986829Y-66486970D01*
X162973871Y-66490442D01*
X162954428Y-66494045D01*
X162941098Y-66495446D01*
X162877906Y-66515978D01*
X162871604Y-66517844D01*
X162818128Y-66532173D01*
X162807437Y-66535038D01*
X162801558Y-66538034D01*
X162801549Y-66538037D01*
X162795483Y-66541128D01*
X162777221Y-66548692D01*
X162770757Y-66550792D01*
X162770749Y-66550795D01*
X162764469Y-66552836D01*
X162758750Y-66556138D01*
X162758745Y-66556140D01*
X162706933Y-66586054D01*
X162701163Y-66589187D01*
X162641961Y-66619353D01*
X162636829Y-66623509D01*
X162631542Y-66627790D01*
X162615246Y-66638990D01*
X162609346Y-66642396D01*
X162609343Y-66642398D01*
X162603631Y-66645696D01*
X162598726Y-66650112D01*
X162598721Y-66650116D01*
X162554253Y-66690154D01*
X162549247Y-66694431D01*
X162533815Y-66706928D01*
X162519779Y-66720964D01*
X162514994Y-66725505D01*
X162465615Y-66769966D01*
X162457725Y-66780826D01*
X162444888Y-66795855D01*
X161835146Y-67405596D01*
X161772834Y-67439621D01*
X161746051Y-67442500D01*
X152225457Y-67442500D01*
X152205745Y-67440949D01*
X152199008Y-67439882D01*
X152199009Y-67439882D01*
X152192493Y-67438850D01*
X152185906Y-67439195D01*
X152185902Y-67439195D01*
X152126150Y-67442327D01*
X152119555Y-67442500D01*
X152099694Y-67442500D01*
X152079931Y-67444577D01*
X152073372Y-67445093D01*
X152057573Y-67445921D01*
X152013623Y-67448224D01*
X152013619Y-67448225D01*
X152007029Y-67448570D01*
X151994071Y-67452042D01*
X151974628Y-67455645D01*
X151961298Y-67457046D01*
X151898106Y-67477578D01*
X151891804Y-67479444D01*
X151838328Y-67493773D01*
X151827637Y-67496638D01*
X151821758Y-67499634D01*
X151821749Y-67499637D01*
X151815683Y-67502728D01*
X151797421Y-67510292D01*
X151790957Y-67512392D01*
X151790949Y-67512395D01*
X151784669Y-67514436D01*
X151778950Y-67517738D01*
X151778945Y-67517740D01*
X151727133Y-67547654D01*
X151721363Y-67550787D01*
X151662161Y-67580953D01*
X151657029Y-67585109D01*
X151651741Y-67589391D01*
X151635448Y-67600589D01*
X151623831Y-67607296D01*
X151618925Y-67611713D01*
X151618920Y-67611717D01*
X151574462Y-67651747D01*
X151569446Y-67656031D01*
X151556591Y-67666441D01*
X151554014Y-67668528D01*
X151539969Y-67682573D01*
X151535184Y-67687114D01*
X151485815Y-67731566D01*
X151477925Y-67742426D01*
X151465088Y-67757454D01*
X148345254Y-70877288D01*
X148330226Y-70890125D01*
X148319366Y-70898015D01*
X148314945Y-70902925D01*
X148314944Y-70902926D01*
X148274914Y-70947384D01*
X148270373Y-70952169D01*
X148256328Y-70966214D01*
X148254244Y-70968788D01*
X148254241Y-70968791D01*
X148243831Y-70981646D01*
X148239547Y-70986662D01*
X148199517Y-71031120D01*
X148199513Y-71031125D01*
X148195096Y-71036031D01*
X148189143Y-71046342D01*
X148188389Y-71047648D01*
X148177191Y-71063941D01*
X148168753Y-71074361D01*
X148138587Y-71133563D01*
X148135454Y-71139333D01*
X148105540Y-71191145D01*
X148105538Y-71191150D01*
X148102236Y-71196869D01*
X148100195Y-71203149D01*
X148100192Y-71203157D01*
X148098092Y-71209621D01*
X148090528Y-71227883D01*
X148087437Y-71233949D01*
X148087434Y-71233958D01*
X148084438Y-71239837D01*
X148082729Y-71246215D01*
X148067244Y-71304004D01*
X148065378Y-71310306D01*
X148044846Y-71373498D01*
X148044156Y-71380066D01*
X148043445Y-71386828D01*
X148039842Y-71406271D01*
X148036370Y-71419229D01*
X148036025Y-71425819D01*
X148036024Y-71425823D01*
X148032893Y-71485567D01*
X148032377Y-71492131D01*
X148030300Y-71511894D01*
X148030300Y-71531755D01*
X148030127Y-71538350D01*
X148028196Y-71575204D01*
X148026650Y-71604693D01*
X148027682Y-71611207D01*
X148028749Y-71617944D01*
X148030300Y-71637656D01*
X148030300Y-72630710D01*
X148024133Y-72669646D01*
X148020258Y-72681572D01*
X148019568Y-72688133D01*
X148019568Y-72688135D01*
X148008838Y-72790227D01*
X148000296Y-72871500D01*
X148000986Y-72878065D01*
X148018990Y-73049360D01*
X148020258Y-73061428D01*
X148079273Y-73243056D01*
X148082576Y-73248778D01*
X148082577Y-73248779D01*
X148086941Y-73256338D01*
X148174760Y-73408444D01*
X148179178Y-73413351D01*
X148179179Y-73413352D01*
X148294807Y-73541770D01*
X148302547Y-73550366D01*
X148457048Y-73662618D01*
X148463076Y-73665302D01*
X148463078Y-73665303D01*
X148576252Y-73715691D01*
X148631512Y-73740294D01*
X148724912Y-73760147D01*
X148811856Y-73778628D01*
X148811861Y-73778628D01*
X148818313Y-73780000D01*
X149009287Y-73780000D01*
X149015739Y-73778628D01*
X149015744Y-73778628D01*
X149102688Y-73760147D01*
X149196088Y-73740294D01*
X149251348Y-73715691D01*
X149364522Y-73665303D01*
X149364524Y-73665302D01*
X149370552Y-73662618D01*
X149525053Y-73550366D01*
X149532793Y-73541770D01*
X149648421Y-73413352D01*
X149648422Y-73413351D01*
X149652840Y-73408444D01*
X149740659Y-73256338D01*
X149745023Y-73248779D01*
X149745024Y-73248778D01*
X149748327Y-73243056D01*
X149807342Y-73061428D01*
X149808611Y-73049360D01*
X149826614Y-72878065D01*
X149827304Y-72871500D01*
X149818762Y-72790227D01*
X149808032Y-72688135D01*
X149808032Y-72688133D01*
X149807342Y-72681572D01*
X149803467Y-72669646D01*
X149797300Y-72630710D01*
X149797300Y-71976348D01*
X149817302Y-71908227D01*
X149834205Y-71887253D01*
X152475053Y-69246405D01*
X152537365Y-69212379D01*
X152564148Y-69209500D01*
X159771338Y-69209500D01*
X159839459Y-69229502D01*
X159885952Y-69283158D01*
X159896056Y-69353432D01*
X159891170Y-69374438D01*
X159886798Y-69387892D01*
X159886797Y-69387897D01*
X159884758Y-69394172D01*
X159884068Y-69400733D01*
X159884068Y-69400735D01*
X159871578Y-69519570D01*
X159864796Y-69584100D01*
X159865486Y-69590665D01*
X159883044Y-69757716D01*
X159884758Y-69774028D01*
X159943773Y-69955656D01*
X159952557Y-69970871D01*
X159969295Y-70039864D01*
X159946075Y-70106956D01*
X159932615Y-70122883D01*
X159892571Y-70162997D01*
X159888731Y-70169227D01*
X159888730Y-70169228D01*
X159829989Y-70264524D01*
X159801291Y-70311080D01*
X159746526Y-70476191D01*
X159745826Y-70483027D01*
X159745825Y-70483030D01*
X159743927Y-70501556D01*
X159736000Y-70578928D01*
X159736000Y-71153072D01*
X159736337Y-71156318D01*
X159736337Y-71156322D01*
X159745940Y-71248868D01*
X159746793Y-71257093D01*
X159801846Y-71422107D01*
X159893384Y-71570031D01*
X160016497Y-71692929D01*
X160017148Y-71693331D01*
X160056655Y-71749050D01*
X160063500Y-71790016D01*
X160063500Y-72960971D01*
X160062067Y-72979921D01*
X160059050Y-72999753D01*
X160059643Y-73007045D01*
X160059643Y-73007048D01*
X160063085Y-73049360D01*
X160063500Y-73059575D01*
X160063500Y-73066951D01*
X160063925Y-73070595D01*
X160066605Y-73093587D01*
X160067038Y-73097962D01*
X160069020Y-73122328D01*
X160072633Y-73166746D01*
X160074886Y-73173700D01*
X160075936Y-73178959D01*
X160077164Y-73184154D01*
X160078011Y-73191416D01*
X160080506Y-73198289D01*
X160080506Y-73198290D01*
X160101577Y-73256338D01*
X160103002Y-73260492D01*
X160124267Y-73326133D01*
X160128064Y-73332391D01*
X160130298Y-73337270D01*
X160132680Y-73342027D01*
X160135177Y-73348905D01*
X160173056Y-73406679D01*
X160175357Y-73410327D01*
X160211184Y-73469369D01*
X160214898Y-73473574D01*
X160218197Y-73477309D01*
X160218185Y-73477320D01*
X160221297Y-73480830D01*
X160223030Y-73482903D01*
X160227040Y-73489019D01*
X160232347Y-73494046D01*
X160232350Y-73494050D01*
X160280215Y-73539392D01*
X160282658Y-73541770D01*
X160534596Y-73793709D01*
X160568621Y-73856021D01*
X160571500Y-73882804D01*
X160571500Y-74055500D01*
X160551498Y-74123621D01*
X160497842Y-74170114D01*
X160445500Y-74181500D01*
X157828028Y-74181500D01*
X157809078Y-74180067D01*
X157796480Y-74178150D01*
X157796476Y-74178150D01*
X157789246Y-74177050D01*
X157781954Y-74177643D01*
X157781951Y-74177643D01*
X157739639Y-74181085D01*
X157729424Y-74181500D01*
X157722049Y-74181500D01*
X157695385Y-74184609D01*
X157691053Y-74185037D01*
X157661659Y-74187428D01*
X157629553Y-74190039D01*
X157629550Y-74190040D01*
X157622254Y-74190633D01*
X157615289Y-74192889D01*
X157610019Y-74193942D01*
X157604851Y-74195163D01*
X157597584Y-74196011D01*
X157590711Y-74198506D01*
X157590710Y-74198506D01*
X157532662Y-74219577D01*
X157528508Y-74221002D01*
X157462867Y-74242267D01*
X157456609Y-74246064D01*
X157451730Y-74248298D01*
X157446973Y-74250680D01*
X157440095Y-74253177D01*
X157382321Y-74291056D01*
X157378673Y-74293357D01*
X157319631Y-74329184D01*
X157311691Y-74336197D01*
X157311680Y-74336185D01*
X157308170Y-74339297D01*
X157306097Y-74341030D01*
X157299981Y-74345040D01*
X157294954Y-74350347D01*
X157294950Y-74350350D01*
X157249588Y-74398236D01*
X157247210Y-74400678D01*
X153839507Y-77808381D01*
X153776610Y-77842532D01*
X153641712Y-77871206D01*
X153635682Y-77873891D01*
X153635681Y-77873891D01*
X153473278Y-77946197D01*
X153473276Y-77946198D01*
X153467248Y-77948882D01*
X153461907Y-77952762D01*
X153461906Y-77952763D01*
X153400419Y-77997436D01*
X153326358Y-78021500D01*
X146653802Y-78021500D01*
X146585681Y-78001498D01*
X146564707Y-77984595D01*
X145027405Y-76447293D01*
X144993379Y-76384981D01*
X144990500Y-76358198D01*
X144990500Y-64395802D01*
X145010502Y-64327681D01*
X145064158Y-64281188D01*
X145134432Y-64271084D01*
X145199012Y-64300578D01*
X145205595Y-64306707D01*
X145369665Y-64470777D01*
X145382051Y-64485189D01*
X145393945Y-64501351D01*
X145401338Y-64507632D01*
X145431887Y-64533585D01*
X145439403Y-64540515D01*
X145444608Y-64545720D01*
X145447486Y-64547997D01*
X145465607Y-64562334D01*
X145469007Y-64565122D01*
X145516047Y-64605085D01*
X145516052Y-64605088D01*
X145521631Y-64609828D01*
X145528155Y-64613159D01*
X145532597Y-64616121D01*
X145537134Y-64618923D01*
X145542879Y-64623469D01*
X145605474Y-64652724D01*
X145609356Y-64654622D01*
X145633081Y-64666737D01*
X145664324Y-64682691D01*
X145664327Y-64682692D01*
X145670846Y-64686021D01*
X145677960Y-64687762D01*
X145682981Y-64689629D01*
X145688029Y-64691309D01*
X145694663Y-64694409D01*
X145701828Y-64695899D01*
X145701830Y-64695900D01*
X145762269Y-64708471D01*
X145766541Y-64709438D01*
X145833588Y-64725844D01*
X145839190Y-64726192D01*
X145839193Y-64726192D01*
X145844162Y-64726500D01*
X145844161Y-64726515D01*
X145848835Y-64726797D01*
X145851537Y-64727038D01*
X145858695Y-64728527D01*
X145931904Y-64726546D01*
X145935312Y-64726500D01*
X150024358Y-64726500D01*
X150098419Y-64750564D01*
X150165248Y-64799118D01*
X150171276Y-64801802D01*
X150171278Y-64801803D01*
X150333681Y-64874109D01*
X150339712Y-64876794D01*
X150431711Y-64896349D01*
X150520056Y-64915128D01*
X150520061Y-64915128D01*
X150526513Y-64916500D01*
X150717487Y-64916500D01*
X150723939Y-64915128D01*
X150723944Y-64915128D01*
X150812289Y-64896349D01*
X150904288Y-64876794D01*
X150910319Y-64874109D01*
X151072722Y-64801803D01*
X151072724Y-64801802D01*
X151078752Y-64799118D01*
X151233253Y-64686866D01*
X151361040Y-64544944D01*
X151456527Y-64379556D01*
X151515542Y-64197928D01*
X151535504Y-64008000D01*
X151515542Y-63818072D01*
X151506058Y-63788885D01*
X168689000Y-63788885D01*
X168693475Y-63804124D01*
X168694865Y-63805329D01*
X168702548Y-63807000D01*
X169399885Y-63807000D01*
X169415124Y-63802525D01*
X169416329Y-63801135D01*
X169418000Y-63793452D01*
X169418000Y-63788885D01*
X169926000Y-63788885D01*
X169930475Y-63804124D01*
X169931865Y-63805329D01*
X169939548Y-63807000D01*
X170636885Y-63807000D01*
X170652124Y-63802525D01*
X170653329Y-63801135D01*
X170655000Y-63793452D01*
X170655000Y-63714734D01*
X170654663Y-63708218D01*
X170644925Y-63614368D01*
X170642032Y-63600972D01*
X170591512Y-63449547D01*
X170585347Y-63436385D01*
X170501574Y-63301008D01*
X170492540Y-63289610D01*
X170379871Y-63177137D01*
X170368460Y-63168125D01*
X170232937Y-63084588D01*
X170219759Y-63078444D01*
X170068234Y-63028185D01*
X170054868Y-63025319D01*
X169962230Y-63015828D01*
X169955815Y-63015500D01*
X169944115Y-63015500D01*
X169928876Y-63019975D01*
X169927671Y-63021365D01*
X169926000Y-63029048D01*
X169926000Y-63788885D01*
X169418000Y-63788885D01*
X169418000Y-63033615D01*
X169413525Y-63018376D01*
X169412135Y-63017171D01*
X169404452Y-63015500D01*
X169388234Y-63015500D01*
X169381718Y-63015837D01*
X169287868Y-63025575D01*
X169274472Y-63028468D01*
X169123047Y-63078988D01*
X169109885Y-63085153D01*
X168974508Y-63168926D01*
X168963110Y-63177960D01*
X168850637Y-63290629D01*
X168841625Y-63302040D01*
X168758088Y-63437563D01*
X168751944Y-63450741D01*
X168701685Y-63602266D01*
X168698819Y-63615632D01*
X168689328Y-63708270D01*
X168689000Y-63714685D01*
X168689000Y-63788885D01*
X151506058Y-63788885D01*
X151456527Y-63636444D01*
X151443782Y-63614368D01*
X151364341Y-63476774D01*
X151361040Y-63471056D01*
X151323500Y-63429363D01*
X151237675Y-63334045D01*
X151237674Y-63334044D01*
X151233253Y-63329134D01*
X151078752Y-63216882D01*
X151072724Y-63214198D01*
X151072722Y-63214197D01*
X150910319Y-63141891D01*
X150910318Y-63141891D01*
X150904288Y-63139206D01*
X150810887Y-63119353D01*
X150723944Y-63100872D01*
X150723939Y-63100872D01*
X150717487Y-63099500D01*
X150526513Y-63099500D01*
X150520061Y-63100872D01*
X150520056Y-63100872D01*
X150433113Y-63119353D01*
X150339712Y-63139206D01*
X150333682Y-63141891D01*
X150333681Y-63141891D01*
X150171278Y-63214197D01*
X150171276Y-63214198D01*
X150165248Y-63216882D01*
X150159907Y-63220762D01*
X150159906Y-63220763D01*
X150098419Y-63265436D01*
X150024358Y-63289500D01*
X146272802Y-63289500D01*
X146204681Y-63269498D01*
X146183707Y-63252595D01*
X145714335Y-62783223D01*
X145701948Y-62768810D01*
X145694396Y-62758548D01*
X145690055Y-62752649D01*
X145652113Y-62720415D01*
X145644597Y-62713485D01*
X145639392Y-62708280D01*
X145636531Y-62706017D01*
X145636526Y-62706012D01*
X145618370Y-62691648D01*
X145614969Y-62688859D01*
X145567948Y-62648911D01*
X145567944Y-62648908D01*
X145562369Y-62644172D01*
X145555853Y-62640845D01*
X145551406Y-62637879D01*
X145546863Y-62635073D01*
X145541122Y-62630531D01*
X145534491Y-62627432D01*
X145534488Y-62627430D01*
X145478595Y-62601308D01*
X145474643Y-62599377D01*
X145419673Y-62571308D01*
X145413154Y-62567979D01*
X145406045Y-62566240D01*
X145401039Y-62564378D01*
X145395969Y-62562692D01*
X145389338Y-62559592D01*
X145335797Y-62548455D01*
X145321748Y-62545533D01*
X145317460Y-62544562D01*
X145255866Y-62529490D01*
X145255860Y-62529489D01*
X145250412Y-62528156D01*
X145244813Y-62527809D01*
X145244809Y-62527808D01*
X145239838Y-62527500D01*
X145239839Y-62527485D01*
X145235165Y-62527203D01*
X145232463Y-62526962D01*
X145225305Y-62525473D01*
X145152096Y-62527454D01*
X145148688Y-62527500D01*
X144869642Y-62527500D01*
X144795581Y-62503436D01*
X144734094Y-62458763D01*
X144734093Y-62458762D01*
X144728752Y-62454882D01*
X144722724Y-62452198D01*
X144722722Y-62452197D01*
X144560319Y-62379891D01*
X144560318Y-62379891D01*
X144554288Y-62377206D01*
X144419391Y-62348532D01*
X144356494Y-62314381D01*
X139436624Y-57394512D01*
X139402598Y-57332200D01*
X139407663Y-57261385D01*
X139438794Y-57219211D01*
X139446000Y-57199065D01*
X139446000Y-52023102D01*
X139442082Y-52009758D01*
X139427806Y-52007771D01*
X139389324Y-52013660D01*
X139379288Y-52016051D01*
X139176868Y-52082212D01*
X139167359Y-52086209D01*
X138978463Y-52184542D01*
X138969738Y-52190036D01*
X138799433Y-52317905D01*
X138791726Y-52324748D01*
X138644590Y-52478717D01*
X138638109Y-52486722D01*
X138533498Y-52640074D01*
X138478587Y-52685076D01*
X138408062Y-52693247D01*
X138344315Y-52661993D01*
X138323618Y-52637509D01*
X138242822Y-52512617D01*
X138242820Y-52512614D01*
X138240014Y-52508277D01*
X138089670Y-52343051D01*
X138085619Y-52339852D01*
X138085615Y-52339848D01*
X137918414Y-52207800D01*
X137918410Y-52207798D01*
X137914359Y-52204598D01*
X137878028Y-52184542D01*
X137862136Y-52175769D01*
X137718789Y-52096638D01*
X137713920Y-52094914D01*
X137713916Y-52094912D01*
X137513087Y-52023795D01*
X137513083Y-52023794D01*
X137508212Y-52022069D01*
X137503119Y-52021162D01*
X137503116Y-52021161D01*
X137293373Y-51983800D01*
X137293367Y-51983799D01*
X137288284Y-51982894D01*
X137214452Y-51981992D01*
X137070081Y-51980228D01*
X137070079Y-51980228D01*
X137064911Y-51980165D01*
X136844091Y-52013955D01*
X136631756Y-52083357D01*
X136433607Y-52186507D01*
X136429474Y-52189610D01*
X136429471Y-52189612D01*
X136259100Y-52317530D01*
X136254965Y-52320635D01*
X136100629Y-52482138D01*
X135974743Y-52666680D01*
X135880688Y-52869305D01*
X135820989Y-53084570D01*
X135797251Y-53306695D01*
X135382000Y-53306695D01*
X135382000Y-51688000D01*
X135402002Y-51619879D01*
X135455658Y-51573386D01*
X135508000Y-51562000D01*
X187072000Y-51562000D01*
X187140121Y-51582002D01*
G37*
G04 #@! TD.AperFunction*
M02*
