G04 #@! TF.GenerationSoftware,KiCad,Pcbnew,6.0.9-8da3e8f707~116~ubuntu20.04.1*
G04 #@! TF.CreationDate,2022-12-06T17:06:51+01:00*
G04 #@! TF.ProjectId,iqdac,69716461-632e-46b6-9963-61645f706362,rev?*
G04 #@! TF.SameCoordinates,Original*
G04 #@! TF.FileFunction,Paste,Top*
G04 #@! TF.FilePolarity,Positive*
%FSLAX46Y46*%
G04 Gerber Fmt 4.6, Leading zero omitted, Abs format (unit mm)*
G04 Created by KiCad (PCBNEW 6.0.9-8da3e8f707~116~ubuntu20.04.1) date 2022-12-06 17:06:51*
%MOMM*%
%LPD*%
G01*
G04 APERTURE LIST*
G04 Aperture macros list*
%AMRoundRect*
0 Rectangle with rounded corners*
0 $1 Rounding radius*
0 $2 $3 $4 $5 $6 $7 $8 $9 X,Y pos of 4 corners*
0 Add a 4 corners polygon primitive as box body*
4,1,4,$2,$3,$4,$5,$6,$7,$8,$9,$2,$3,0*
0 Add four circle primitives for the rounded corners*
1,1,$1+$1,$2,$3*
1,1,$1+$1,$4,$5*
1,1,$1+$1,$6,$7*
1,1,$1+$1,$8,$9*
0 Add four rect primitives between the rounded corners*
20,1,$1+$1,$2,$3,$4,$5,0*
20,1,$1+$1,$4,$5,$6,$7,0*
20,1,$1+$1,$6,$7,$8,$9,0*
20,1,$1+$1,$8,$9,$2,$3,0*%
G04 Aperture macros list end*
%ADD10RoundRect,0.237500X-0.237500X0.250000X-0.237500X-0.250000X0.237500X-0.250000X0.237500X0.250000X0*%
%ADD11RoundRect,0.250000X0.255000X0.255000X-0.255000X0.255000X-0.255000X-0.255000X0.255000X-0.255000X0*%
%ADD12RoundRect,0.075000X0.662500X0.075000X-0.662500X0.075000X-0.662500X-0.075000X0.662500X-0.075000X0*%
%ADD13RoundRect,0.075000X0.075000X0.662500X-0.075000X0.662500X-0.075000X-0.662500X0.075000X-0.662500X0*%
%ADD14RoundRect,0.237500X0.237500X-0.300000X0.237500X0.300000X-0.237500X0.300000X-0.237500X-0.300000X0*%
%ADD15RoundRect,0.237500X0.287500X0.237500X-0.287500X0.237500X-0.287500X-0.237500X0.287500X-0.237500X0*%
%ADD16R,1.500000X2.000000*%
%ADD17R,3.800000X2.000000*%
%ADD18RoundRect,0.237500X0.300000X0.237500X-0.300000X0.237500X-0.300000X-0.237500X0.300000X-0.237500X0*%
%ADD19RoundRect,0.237500X-0.250000X-0.237500X0.250000X-0.237500X0.250000X0.237500X-0.250000X0.237500X0*%
%ADD20R,1.650000X2.540000*%
%ADD21RoundRect,0.237500X-0.300000X-0.237500X0.300000X-0.237500X0.300000X0.237500X-0.300000X0.237500X0*%
%ADD22RoundRect,0.237500X0.250000X0.237500X-0.250000X0.237500X-0.250000X-0.237500X0.250000X-0.237500X0*%
%ADD23RoundRect,0.237500X-0.287500X-0.237500X0.287500X-0.237500X0.287500X0.237500X-0.287500X0.237500X0*%
%ADD24RoundRect,0.237500X-0.237500X0.300000X-0.237500X-0.300000X0.237500X-0.300000X0.237500X0.300000X0*%
%ADD25RoundRect,0.250000X-0.700000X0.362500X-0.700000X-0.362500X0.700000X-0.362500X0.700000X0.362500X0*%
%ADD26RoundRect,0.250000X-0.362500X-0.700000X0.362500X-0.700000X0.362500X0.700000X-0.362500X0.700000X0*%
%ADD27R,2.750000X3.050000*%
%ADD28R,1.200000X2.200000*%
%ADD29RoundRect,0.250000X0.362500X0.700000X-0.362500X0.700000X-0.362500X-0.700000X0.362500X-0.700000X0*%
%ADD30RoundRect,0.237500X0.237500X-0.250000X0.237500X0.250000X-0.237500X0.250000X-0.237500X-0.250000X0*%
G04 APERTURE END LIST*
D10*
X152400000Y-58119000D03*
X152400000Y-59944000D03*
D11*
X166475000Y-71525000D03*
X168975000Y-71525000D03*
X165225000Y-71525000D03*
X167725000Y-72775000D03*
X167725000Y-75275000D03*
X168975000Y-72775000D03*
X165225000Y-74025000D03*
X165225000Y-75275000D03*
X166475000Y-75275000D03*
X166475000Y-72775000D03*
X165225000Y-72775000D03*
X167725000Y-71525000D03*
X166475000Y-74025000D03*
X168975000Y-75275000D03*
X168975000Y-74025000D03*
X167725000Y-74025000D03*
D12*
X174762500Y-79400000D03*
X174762500Y-78900000D03*
X174762500Y-78400000D03*
X174762500Y-77900000D03*
X174762500Y-77400000D03*
X174762500Y-76900000D03*
X174762500Y-76400000D03*
X174762500Y-75900000D03*
X174762500Y-75400000D03*
X174762500Y-74900000D03*
X174762500Y-74400000D03*
X174762500Y-73900000D03*
X174762500Y-73400000D03*
X174762500Y-72900000D03*
X174762500Y-72400000D03*
X174762500Y-71900000D03*
X174762500Y-71400000D03*
X174762500Y-70900000D03*
X174762500Y-70400000D03*
X174762500Y-69900000D03*
X174762500Y-69400000D03*
X174762500Y-68900000D03*
X174762500Y-68400000D03*
X174762500Y-67900000D03*
X174762500Y-67400000D03*
D13*
X173100000Y-65737500D03*
X172600000Y-65737500D03*
X172100000Y-65737500D03*
X171600000Y-65737500D03*
X171100000Y-65737500D03*
X170600000Y-65737500D03*
X170100000Y-65737500D03*
X169600000Y-65737500D03*
X169100000Y-65737500D03*
X168600000Y-65737500D03*
X168100000Y-65737500D03*
X167600000Y-65737500D03*
X167100000Y-65737500D03*
X166600000Y-65737500D03*
X166100000Y-65737500D03*
X165600000Y-65737500D03*
X165100000Y-65737500D03*
X164600000Y-65737500D03*
X164100000Y-65737500D03*
X163600000Y-65737500D03*
X163100000Y-65737500D03*
X162600000Y-65737500D03*
X162100000Y-65737500D03*
X161600000Y-65737500D03*
X161100000Y-65737500D03*
D12*
X159437500Y-67400000D03*
X159437500Y-67900000D03*
X159437500Y-68400000D03*
X159437500Y-68900000D03*
X159437500Y-69400000D03*
X159437500Y-69900000D03*
X159437500Y-70400000D03*
X159437500Y-70900000D03*
X159437500Y-71400000D03*
X159437500Y-71900000D03*
X159437500Y-72400000D03*
X159437500Y-72900000D03*
X159437500Y-73400000D03*
X159437500Y-73900000D03*
X159437500Y-74400000D03*
X159437500Y-74900000D03*
X159437500Y-75400000D03*
X159437500Y-75900000D03*
X159437500Y-76400000D03*
X159437500Y-76900000D03*
X159437500Y-77400000D03*
X159437500Y-77900000D03*
X159437500Y-78400000D03*
X159437500Y-78900000D03*
X159437500Y-79400000D03*
D13*
X161100000Y-81062500D03*
X161600000Y-81062500D03*
X162100000Y-81062500D03*
X162600000Y-81062500D03*
X163100000Y-81062500D03*
X163600000Y-81062500D03*
X164100000Y-81062500D03*
X164600000Y-81062500D03*
X165100000Y-81062500D03*
X165600000Y-81062500D03*
X166100000Y-81062500D03*
X166600000Y-81062500D03*
X167100000Y-81062500D03*
X167600000Y-81062500D03*
X168100000Y-81062500D03*
X168600000Y-81062500D03*
X169100000Y-81062500D03*
X169600000Y-81062500D03*
X170100000Y-81062500D03*
X170600000Y-81062500D03*
X171100000Y-81062500D03*
X171600000Y-81062500D03*
X172100000Y-81062500D03*
X172600000Y-81062500D03*
X173100000Y-81062500D03*
D14*
X162064000Y-102309000D03*
X162064000Y-100584000D03*
D15*
X185392000Y-67056000D03*
X183642000Y-67056000D03*
D16*
X159272000Y-87782000D03*
X156972000Y-87782000D03*
D17*
X156972000Y-94082000D03*
D16*
X154672000Y-87782000D03*
D14*
X166370000Y-85952500D03*
X166370000Y-84227500D03*
D18*
X144372500Y-61825000D03*
X142647500Y-61825000D03*
D19*
X177395500Y-84074000D03*
X179220500Y-84074000D03*
D20*
X140970000Y-96520000D03*
X143510000Y-96520000D03*
X146050000Y-96520000D03*
X146050000Y-91440000D03*
X143510000Y-91440000D03*
X140970000Y-91440000D03*
D19*
X139041500Y-78232000D03*
X140866500Y-78232000D03*
D21*
X174397500Y-87376000D03*
X176122500Y-87376000D03*
D14*
X181356000Y-83920500D03*
X181356000Y-82195500D03*
D19*
X141073500Y-87630000D03*
X142898500Y-87630000D03*
D22*
X170076500Y-92964000D03*
X168251500Y-92964000D03*
D14*
X148844000Y-77062500D03*
X148844000Y-75337500D03*
D21*
X137567500Y-61825000D03*
X139292500Y-61825000D03*
D23*
X147840500Y-100559000D03*
X149590500Y-100559000D03*
D24*
X181610000Y-76708000D03*
X181610000Y-78433000D03*
D22*
X149098000Y-63754000D03*
X147273000Y-63754000D03*
D15*
X185392000Y-69088000D03*
X183642000Y-69088000D03*
D19*
X179681500Y-65024000D03*
X181506500Y-65024000D03*
D23*
X153162000Y-100571500D03*
X154912000Y-100571500D03*
D19*
X179681500Y-69088000D03*
X181506500Y-69088000D03*
D14*
X177292000Y-95705000D03*
X177292000Y-93980000D03*
D15*
X185392000Y-65024000D03*
X183642000Y-65024000D03*
D14*
X153416000Y-77062500D03*
X153416000Y-75337500D03*
D10*
X171450000Y-84177500D03*
X171450000Y-86002500D03*
D21*
X137567500Y-59285000D03*
X139292500Y-59285000D03*
D25*
X185420000Y-73660000D03*
X185420000Y-76985000D03*
D14*
X147828000Y-72845000D03*
X147828000Y-71120000D03*
X164592000Y-92404500D03*
X164592000Y-90679500D03*
X146050000Y-102309000D03*
X146050000Y-100584000D03*
D22*
X149606000Y-62230000D03*
X147781000Y-62230000D03*
X170076500Y-90424000D03*
X168251500Y-90424000D03*
D19*
X179681500Y-67056000D03*
X181506500Y-67056000D03*
X172419000Y-93980000D03*
X174244000Y-93980000D03*
D26*
X163691500Y-95504000D03*
X167016500Y-95504000D03*
D14*
X162082000Y-92404500D03*
X162082000Y-90679500D03*
D21*
X177445500Y-82042000D03*
X179170500Y-82042000D03*
D14*
X145642500Y-72847500D03*
X145642500Y-71122500D03*
X168910000Y-85952500D03*
X168910000Y-84227500D03*
D27*
X141480000Y-72795000D03*
X138430000Y-69445000D03*
X141480000Y-69445000D03*
X138430000Y-72795000D03*
D28*
X142235000Y-64820000D03*
X137675000Y-64820000D03*
D29*
X152284500Y-80010000D03*
X148959500Y-80010000D03*
D23*
X158496000Y-100571500D03*
X160246000Y-100571500D03*
D10*
X163830000Y-84177500D03*
X163830000Y-86002500D03*
D24*
X179578000Y-76708000D03*
X179578000Y-78433000D03*
D15*
X145023500Y-78192000D03*
X143273500Y-78192000D03*
D14*
X151396500Y-102309000D03*
X151396500Y-100584000D03*
D10*
X174244000Y-95758000D03*
X174244000Y-97583000D03*
D14*
X151130000Y-77062500D03*
X151130000Y-75337500D03*
D30*
X166116000Y-60348500D03*
X166116000Y-58523500D03*
D14*
X156718000Y-102309000D03*
X156718000Y-100584000D03*
D30*
X185420000Y-62634500D03*
X185420000Y-60809500D03*
D21*
X174397500Y-89408000D03*
X176122500Y-89408000D03*
D19*
X144780000Y-87630000D03*
X146605000Y-87630000D03*
M02*
