M48
; DRILL file {KiCad 6.0.9-8da3e8f707~116~ubuntu20.04.1} date ned 04 dec 2022 00:02:25
; FORMAT={-:-/ absolute / metric / decimal}
; #@! TF.CreationDate,2022-12-04T00:02:25+01:00
; #@! TF.GenerationSoftware,Kicad,Pcbnew,6.0.9-8da3e8f707~116~ubuntu20.04.1
; #@! TF.FileFunction,Plated,1,2,PTH
FMAT,2
METRIC
; #@! TA.AperFunction,Plated,PTH,ViaDrill
T1C0.400
; #@! TA.AperFunction,Plated,PTH,ComponentDrill
T2C1.000
; #@! TA.AperFunction,Plated,PTH,ComponentDrill
T3C1.500
; #@! TA.AperFunction,Plated,PTH,ComponentDrill
T4C1.700
%
G90
G05
T1
X137.16Y-78.232
X139.446Y-87.63
X140.97Y-62.484
X142.24Y-98.806
X144.272Y-63.246
X145.542Y-82.55
X146.812Y-69.85
X147.066Y-85.598
X147.396Y-103.721
X148.914Y-72.871
X149.987Y-73.838
X150.622Y-64.008
X150.876Y-87.884
X150.876Y-98.298
X153.083Y-103.48
X153.924Y-78.74
X156.844Y-98.285
X157.353Y-72.644
X157.648Y-78.4
X158.239Y-103.48
X159.258Y-82.55
X159.258Y-85.598
X160.778Y-69.584
X161.29Y-74.9
X162.1Y-72.644
X162.133Y-68.358
X162.814Y-77.724
X163.068Y-89.154
X163.322Y-98.298
X163.322Y-103.492
X164.585Y-68.377
X165.862Y-72.136
X165.862Y-74.676
X167.1Y-73.4
X168.402Y-72.136
X168.402Y-74.676
X169.616Y-67.364
X169.854Y-82.524
X170.942Y-77.47
X171.6Y-63.5
X172.158Y-68.888
X172.593Y-74.295
X172.764Y-82.945
X173.394Y-68.141
X173.415Y-70.13
X173.418Y-73.125
X175.768Y-97.536
X176.107Y-67.375
X176.127Y-72.136
X177.851Y-88.519
X180.594Y-79.756
X185.42Y-63.754
T2
X137.16Y-53.34
X137.16Y-55.88
X139.7Y-53.34
X139.7Y-55.88
X142.24Y-53.34
X142.24Y-55.88
X144.78Y-53.34
X144.78Y-55.88
X147.32Y-53.34
X147.32Y-55.88
X149.86Y-53.34
X149.86Y-55.88
X152.4Y-53.34
X152.4Y-55.88
X154.94Y-53.34
X154.94Y-55.88
X157.48Y-53.34
X157.48Y-55.88
X160.02Y-53.34
X160.02Y-55.88
X162.56Y-53.34
X162.56Y-55.88
X165.1Y-53.34
X165.1Y-55.88
X167.64Y-53.34
X167.64Y-55.88
X170.18Y-53.34
X170.18Y-55.88
X172.72Y-53.34
X172.72Y-55.88
X175.26Y-53.34
X175.26Y-55.88
X177.8Y-53.34
X177.8Y-55.88
X180.34Y-53.34
X180.34Y-55.88
X182.88Y-53.34
X182.88Y-55.88
X185.42Y-53.34
X185.42Y-55.88
T3
X170.942Y-104.14
X182.88Y-93.98
T4
X168.402Y-101.6
X168.402Y-106.68
X173.482Y-101.6
X173.482Y-106.68
X180.34Y-91.44
X180.34Y-96.52
X185.42Y-91.44
X185.42Y-96.52
T0
M30
