G04 #@! TF.GenerationSoftware,KiCad,Pcbnew,6.0.9-8da3e8f707~116~ubuntu20.04.1*
G04 #@! TF.CreationDate,2022-12-06T17:06:51+01:00*
G04 #@! TF.ProjectId,iqdac,69716461-632e-46b6-9963-61645f706362,rev?*
G04 #@! TF.SameCoordinates,Original*
G04 #@! TF.FileFunction,Soldermask,Bot*
G04 #@! TF.FilePolarity,Negative*
%FSLAX46Y46*%
G04 Gerber Fmt 4.6, Leading zero omitted, Abs format (unit mm)*
G04 Created by KiCad (PCBNEW 6.0.9-8da3e8f707~116~ubuntu20.04.1) date 2022-12-06 17:06:51*
%MOMM*%
%LPD*%
G01*
G04 APERTURE LIST*
G04 Aperture macros list*
%AMRoundRect*
0 Rectangle with rounded corners*
0 $1 Rounding radius*
0 $2 $3 $4 $5 $6 $7 $8 $9 X,Y pos of 4 corners*
0 Add a 4 corners polygon primitive as box body*
4,1,4,$2,$3,$4,$5,$6,$7,$8,$9,$2,$3,0*
0 Add four circle primitives for the rounded corners*
1,1,$1+$1,$2,$3*
1,1,$1+$1,$4,$5*
1,1,$1+$1,$6,$7*
1,1,$1+$1,$8,$9*
0 Add four rect primitives between the rounded corners*
20,1,$1+$1,$2,$3,$4,$5,0*
20,1,$1+$1,$4,$5,$6,$7,0*
20,1,$1+$1,$6,$7,$8,$9,0*
20,1,$1+$1,$8,$9,$2,$3,0*%
G04 Aperture macros list end*
%ADD10C,2.050000*%
%ADD11C,2.250000*%
%ADD12C,2.500000*%
%ADD13R,1.700000X1.700000*%
%ADD14O,1.700000X1.700000*%
%ADD15RoundRect,0.237500X0.300000X0.237500X-0.300000X0.237500X-0.300000X-0.237500X0.300000X-0.237500X0*%
%ADD16RoundRect,0.237500X0.237500X-0.300000X0.237500X0.300000X-0.237500X0.300000X-0.237500X-0.300000X0*%
%ADD17RoundRect,0.237500X-0.237500X0.300000X-0.237500X-0.300000X0.237500X-0.300000X0.237500X0.300000X0*%
%ADD18RoundRect,0.237500X-0.300000X-0.237500X0.300000X-0.237500X0.300000X0.237500X-0.300000X0.237500X0*%
G04 APERTURE END LIST*
D10*
X182880000Y-93980000D03*
D11*
X180340000Y-91440000D03*
X185420000Y-91440000D03*
X185420000Y-96520000D03*
X180340000Y-96520000D03*
D12*
X182880000Y-104140000D03*
X139700000Y-104140000D03*
D10*
X170942000Y-104140000D03*
D11*
X173482000Y-106680000D03*
X168402000Y-101600000D03*
X173482000Y-101600000D03*
X168402000Y-106680000D03*
D13*
X137160000Y-55880000D03*
D14*
X137160000Y-53340000D03*
X139700000Y-55880000D03*
X139700000Y-53340000D03*
X142240000Y-55880000D03*
X142240000Y-53340000D03*
X144780000Y-55880000D03*
X144780000Y-53340000D03*
X147320000Y-55880000D03*
X147320000Y-53340000D03*
X149860000Y-55880000D03*
X149860000Y-53340000D03*
X152400000Y-55880000D03*
X152400000Y-53340000D03*
X154940000Y-55880000D03*
X154940000Y-53340000D03*
X157480000Y-55880000D03*
X157480000Y-53340000D03*
X160020000Y-55880000D03*
X160020000Y-53340000D03*
X162560000Y-55880000D03*
X162560000Y-53340000D03*
X165100000Y-55880000D03*
X165100000Y-53340000D03*
X167640000Y-55880000D03*
X167640000Y-53340000D03*
X170180000Y-55880000D03*
X170180000Y-53340000D03*
X172720000Y-55880000D03*
X172720000Y-53340000D03*
X175260000Y-55880000D03*
X175260000Y-53340000D03*
X177800000Y-55880000D03*
X177800000Y-53340000D03*
X180340000Y-55880000D03*
X180340000Y-53340000D03*
X182880000Y-55880000D03*
X182880000Y-53340000D03*
X185420000Y-55880000D03*
X185420000Y-53340000D03*
D15*
X176376500Y-70104000D03*
X174651500Y-70104000D03*
D16*
X161290000Y-78359000D03*
X161290000Y-76634000D03*
X162814000Y-75438000D03*
X162814000Y-73713000D03*
X170942000Y-75893000D03*
X170942000Y-74168000D03*
D17*
X169672000Y-64061000D03*
X169672000Y-65786000D03*
D15*
X162507000Y-70866000D03*
X160782000Y-70866000D03*
D18*
X169063500Y-68834000D03*
X170788500Y-68834000D03*
D16*
X165862000Y-69088000D03*
X165862000Y-67363000D03*
M02*
