%TF.GenerationSoftware,KiCad,Pcbnew,6.0.9-8da3e8f707~116~ubuntu20.04.1*%
%TF.CreationDate,2022-12-04T00:02:30+01:00*%
%TF.ProjectId,iqdac,69716461-632e-46b6-9963-61645f706362,rev?*%
%TF.SameCoordinates,Original*%
%TF.FileFunction,Drillmap*%
%TF.FilePolarity,Positive*%
%FSLAX45Y45*%
G04 Gerber Fmt 4.5, Leading zero omitted, Abs format (unit mm)*
G04 Created by KiCad (PCBNEW 6.0.9-8da3e8f707~116~ubuntu20.04.1) date 2022-12-04 00:02:30*
%MOMM*%
%LPD*%
G01*
G04 APERTURE LIST*
%ADD10C,0.100000*%
%ADD11C,0.200000*%
%ADD12C,0.250000*%
G04 APERTURE END LIST*
D10*
X13462000Y-10795000D02*
G75*
G03*
X13589000Y-10922000I127000J0D01*
G01*
X13462000Y-5207000D02*
X13462000Y-10795000D01*
X18796000Y-5207000D02*
G75*
G03*
X18669000Y-5080000I-127000J0D01*
G01*
X18669000Y-5080000D02*
X13589000Y-5080000D01*
X18796000Y-10795000D02*
X18796000Y-5207000D01*
X13589000Y-10922000D02*
X18669000Y-10922000D01*
X18669000Y-10922000D02*
G75*
G03*
X18796000Y-10795000I0J127000D01*
G01*
X13589000Y-5080000D02*
G75*
G03*
X13462000Y-5207000I0J-127000D01*
G01*
D11*
D12*
X13845000Y-10289000D02*
X14095000Y-10539000D01*
X14095000Y-10289000D02*
X13845000Y-10539000D01*
X18163000Y-10289000D02*
X18413000Y-10539000D01*
X18413000Y-10289000D02*
X18163000Y-10539000D01*
D11*
X13714619Y-11237476D02*
X13714619Y-11037476D01*
X13762238Y-11037476D01*
X13790809Y-11047000D01*
X13809857Y-11066048D01*
X13819381Y-11085095D01*
X13828905Y-11123190D01*
X13828905Y-11151762D01*
X13819381Y-11189857D01*
X13809857Y-11208905D01*
X13790809Y-11227952D01*
X13762238Y-11237476D01*
X13714619Y-11237476D01*
X13914619Y-11237476D02*
X13914619Y-11104143D01*
X13914619Y-11142238D02*
X13924143Y-11123190D01*
X13933667Y-11113667D01*
X13952714Y-11104143D01*
X13971762Y-11104143D01*
X14038428Y-11237476D02*
X14038428Y-11104143D01*
X14038428Y-11037476D02*
X14028905Y-11047000D01*
X14038428Y-11056524D01*
X14047952Y-11047000D01*
X14038428Y-11037476D01*
X14038428Y-11056524D01*
X14162238Y-11237476D02*
X14143190Y-11227952D01*
X14133667Y-11208905D01*
X14133667Y-11037476D01*
X14267000Y-11237476D02*
X14247952Y-11227952D01*
X14238428Y-11208905D01*
X14238428Y-11037476D01*
X14495571Y-11237476D02*
X14495571Y-11037476D01*
X14562238Y-11180333D01*
X14628905Y-11037476D01*
X14628905Y-11237476D01*
X14809857Y-11237476D02*
X14809857Y-11132714D01*
X14800333Y-11113667D01*
X14781286Y-11104143D01*
X14743190Y-11104143D01*
X14724143Y-11113667D01*
X14809857Y-11227952D02*
X14790809Y-11237476D01*
X14743190Y-11237476D01*
X14724143Y-11227952D01*
X14714619Y-11208905D01*
X14714619Y-11189857D01*
X14724143Y-11170810D01*
X14743190Y-11161286D01*
X14790809Y-11161286D01*
X14809857Y-11151762D01*
X14905095Y-11104143D02*
X14905095Y-11304143D01*
X14905095Y-11113667D02*
X14924143Y-11104143D01*
X14962238Y-11104143D01*
X14981286Y-11113667D01*
X14990809Y-11123190D01*
X15000333Y-11142238D01*
X15000333Y-11199381D01*
X14990809Y-11218428D01*
X14981286Y-11227952D01*
X14962238Y-11237476D01*
X14924143Y-11237476D01*
X14905095Y-11227952D01*
X15086048Y-11218428D02*
X15095571Y-11227952D01*
X15086048Y-11237476D01*
X15076524Y-11227952D01*
X15086048Y-11218428D01*
X15086048Y-11237476D01*
X15086048Y-11113667D02*
X15095571Y-11123190D01*
X15086048Y-11132714D01*
X15076524Y-11123190D01*
X15086048Y-11113667D01*
X15086048Y-11132714D01*
X13257000Y-11467000D02*
X13457000Y-11667000D01*
X13457000Y-11467000D02*
X13257000Y-11667000D01*
X13705095Y-11476524D02*
X13714619Y-11467000D01*
X13733667Y-11457476D01*
X13781286Y-11457476D01*
X13800333Y-11467000D01*
X13809857Y-11476524D01*
X13819381Y-11495571D01*
X13819381Y-11514619D01*
X13809857Y-11543190D01*
X13695571Y-11657476D01*
X13819381Y-11657476D01*
X13905095Y-11638428D02*
X13914619Y-11647952D01*
X13905095Y-11657476D01*
X13895571Y-11647952D01*
X13905095Y-11638428D01*
X13905095Y-11657476D01*
X14095571Y-11457476D02*
X14000333Y-11457476D01*
X13990809Y-11552714D01*
X14000333Y-11543190D01*
X14019381Y-11533667D01*
X14067000Y-11533667D01*
X14086048Y-11543190D01*
X14095571Y-11552714D01*
X14105095Y-11571762D01*
X14105095Y-11619381D01*
X14095571Y-11638428D01*
X14086048Y-11647952D01*
X14067000Y-11657476D01*
X14019381Y-11657476D01*
X14000333Y-11647952D01*
X13990809Y-11638428D01*
X14228905Y-11457476D02*
X14247952Y-11457476D01*
X14267000Y-11467000D01*
X14276524Y-11476524D01*
X14286048Y-11495571D01*
X14295571Y-11533667D01*
X14295571Y-11581286D01*
X14286048Y-11619381D01*
X14276524Y-11638428D01*
X14267000Y-11647952D01*
X14247952Y-11657476D01*
X14228905Y-11657476D01*
X14209857Y-11647952D01*
X14200333Y-11638428D01*
X14190809Y-11619381D01*
X14181286Y-11581286D01*
X14181286Y-11533667D01*
X14190809Y-11495571D01*
X14200333Y-11476524D01*
X14209857Y-11467000D01*
X14228905Y-11457476D01*
X14419381Y-11457476D02*
X14438428Y-11457476D01*
X14457476Y-11467000D01*
X14467000Y-11476524D01*
X14476524Y-11495571D01*
X14486048Y-11533667D01*
X14486048Y-11581286D01*
X14476524Y-11619381D01*
X14467000Y-11638428D01*
X14457476Y-11647952D01*
X14438428Y-11657476D01*
X14419381Y-11657476D01*
X14400333Y-11647952D01*
X14390809Y-11638428D01*
X14381286Y-11619381D01*
X14371762Y-11581286D01*
X14371762Y-11533667D01*
X14381286Y-11495571D01*
X14390809Y-11476524D01*
X14400333Y-11467000D01*
X14419381Y-11457476D01*
X14571762Y-11657476D02*
X14571762Y-11524143D01*
X14571762Y-11543190D02*
X14581286Y-11533667D01*
X14600333Y-11524143D01*
X14628905Y-11524143D01*
X14647952Y-11533667D01*
X14657476Y-11552714D01*
X14657476Y-11657476D01*
X14657476Y-11552714D02*
X14667000Y-11533667D01*
X14686048Y-11524143D01*
X14714619Y-11524143D01*
X14733667Y-11533667D01*
X14743190Y-11552714D01*
X14743190Y-11657476D01*
X14838428Y-11657476D02*
X14838428Y-11524143D01*
X14838428Y-11543190D02*
X14847952Y-11533667D01*
X14867000Y-11524143D01*
X14895571Y-11524143D01*
X14914619Y-11533667D01*
X14924143Y-11552714D01*
X14924143Y-11657476D01*
X14924143Y-11552714D02*
X14933667Y-11533667D01*
X14952714Y-11524143D01*
X14981286Y-11524143D01*
X15000333Y-11533667D01*
X15009857Y-11552714D01*
X15009857Y-11657476D01*
X15400333Y-11447952D02*
X15228905Y-11705095D01*
X15657476Y-11457476D02*
X15676524Y-11457476D01*
X15695571Y-11467000D01*
X15705095Y-11476524D01*
X15714619Y-11495571D01*
X15724143Y-11533667D01*
X15724143Y-11581286D01*
X15714619Y-11619381D01*
X15705095Y-11638428D01*
X15695571Y-11647952D01*
X15676524Y-11657476D01*
X15657476Y-11657476D01*
X15638428Y-11647952D01*
X15628905Y-11638428D01*
X15619381Y-11619381D01*
X15609857Y-11581286D01*
X15609857Y-11533667D01*
X15619381Y-11495571D01*
X15628905Y-11476524D01*
X15638428Y-11467000D01*
X15657476Y-11457476D01*
X15809857Y-11638428D02*
X15819381Y-11647952D01*
X15809857Y-11657476D01*
X15800333Y-11647952D01*
X15809857Y-11638428D01*
X15809857Y-11657476D01*
X15943190Y-11457476D02*
X15962238Y-11457476D01*
X15981286Y-11467000D01*
X15990809Y-11476524D01*
X16000333Y-11495571D01*
X16009857Y-11533667D01*
X16009857Y-11581286D01*
X16000333Y-11619381D01*
X15990809Y-11638428D01*
X15981286Y-11647952D01*
X15962238Y-11657476D01*
X15943190Y-11657476D01*
X15924143Y-11647952D01*
X15914619Y-11638428D01*
X15905095Y-11619381D01*
X15895571Y-11581286D01*
X15895571Y-11533667D01*
X15905095Y-11495571D01*
X15914619Y-11476524D01*
X15924143Y-11467000D01*
X15943190Y-11457476D01*
X16105095Y-11657476D02*
X16143190Y-11657476D01*
X16162238Y-11647952D01*
X16171762Y-11638428D01*
X16190809Y-11609857D01*
X16200333Y-11571762D01*
X16200333Y-11495571D01*
X16190809Y-11476524D01*
X16181286Y-11467000D01*
X16162238Y-11457476D01*
X16124143Y-11457476D01*
X16105095Y-11467000D01*
X16095571Y-11476524D01*
X16086048Y-11495571D01*
X16086048Y-11543190D01*
X16095571Y-11562238D01*
X16105095Y-11571762D01*
X16124143Y-11581286D01*
X16162238Y-11581286D01*
X16181286Y-11571762D01*
X16190809Y-11562238D01*
X16200333Y-11543190D01*
X16314619Y-11543190D02*
X16295571Y-11533667D01*
X16286048Y-11524143D01*
X16276524Y-11505095D01*
X16276524Y-11495571D01*
X16286048Y-11476524D01*
X16295571Y-11467000D01*
X16314619Y-11457476D01*
X16352714Y-11457476D01*
X16371762Y-11467000D01*
X16381286Y-11476524D01*
X16390809Y-11495571D01*
X16390809Y-11505095D01*
X16381286Y-11524143D01*
X16371762Y-11533667D01*
X16352714Y-11543190D01*
X16314619Y-11543190D01*
X16295571Y-11552714D01*
X16286048Y-11562238D01*
X16276524Y-11581286D01*
X16276524Y-11619381D01*
X16286048Y-11638428D01*
X16295571Y-11647952D01*
X16314619Y-11657476D01*
X16352714Y-11657476D01*
X16371762Y-11647952D01*
X16381286Y-11638428D01*
X16390809Y-11619381D01*
X16390809Y-11581286D01*
X16381286Y-11562238D01*
X16371762Y-11552714D01*
X16352714Y-11543190D01*
X16562238Y-11524143D02*
X16562238Y-11657476D01*
X16514619Y-11447952D02*
X16467000Y-11590809D01*
X16590809Y-11590809D01*
X16657476Y-11457476D02*
X16657476Y-11495571D01*
X16733667Y-11457476D02*
X16733667Y-11495571D01*
X17028905Y-11733667D02*
X17019381Y-11724143D01*
X17000333Y-11695571D01*
X16990810Y-11676524D01*
X16981286Y-11647952D01*
X16971762Y-11600333D01*
X16971762Y-11562238D01*
X16981286Y-11514619D01*
X16990810Y-11486048D01*
X17000333Y-11467000D01*
X17019381Y-11438428D01*
X17028905Y-11428905D01*
X17095571Y-11476524D02*
X17105095Y-11467000D01*
X17124143Y-11457476D01*
X17171762Y-11457476D01*
X17190810Y-11467000D01*
X17200333Y-11476524D01*
X17209857Y-11495571D01*
X17209857Y-11514619D01*
X17200333Y-11543190D01*
X17086048Y-11657476D01*
X17209857Y-11657476D01*
X17447952Y-11657476D02*
X17447952Y-11457476D01*
X17533667Y-11657476D02*
X17533667Y-11552714D01*
X17524143Y-11533667D01*
X17505095Y-11524143D01*
X17476524Y-11524143D01*
X17457476Y-11533667D01*
X17447952Y-11543190D01*
X17657476Y-11657476D02*
X17638429Y-11647952D01*
X17628905Y-11638428D01*
X17619381Y-11619381D01*
X17619381Y-11562238D01*
X17628905Y-11543190D01*
X17638429Y-11533667D01*
X17657476Y-11524143D01*
X17686048Y-11524143D01*
X17705095Y-11533667D01*
X17714619Y-11543190D01*
X17724143Y-11562238D01*
X17724143Y-11619381D01*
X17714619Y-11638428D01*
X17705095Y-11647952D01*
X17686048Y-11657476D01*
X17657476Y-11657476D01*
X17838429Y-11657476D02*
X17819381Y-11647952D01*
X17809857Y-11628905D01*
X17809857Y-11457476D01*
X17990810Y-11647952D02*
X17971762Y-11657476D01*
X17933667Y-11657476D01*
X17914619Y-11647952D01*
X17905095Y-11628905D01*
X17905095Y-11552714D01*
X17914619Y-11533667D01*
X17933667Y-11524143D01*
X17971762Y-11524143D01*
X17990810Y-11533667D01*
X18000333Y-11552714D01*
X18000333Y-11571762D01*
X17905095Y-11590809D01*
X18076524Y-11647952D02*
X18095571Y-11657476D01*
X18133667Y-11657476D01*
X18152714Y-11647952D01*
X18162238Y-11628905D01*
X18162238Y-11619381D01*
X18152714Y-11600333D01*
X18133667Y-11590809D01*
X18105095Y-11590809D01*
X18086048Y-11581286D01*
X18076524Y-11562238D01*
X18076524Y-11552714D01*
X18086048Y-11533667D01*
X18105095Y-11524143D01*
X18133667Y-11524143D01*
X18152714Y-11533667D01*
X18228905Y-11733667D02*
X18238429Y-11724143D01*
X18257476Y-11695571D01*
X18267000Y-11676524D01*
X18276524Y-11647952D01*
X18286048Y-11600333D01*
X18286048Y-11562238D01*
X18276524Y-11514619D01*
X18267000Y-11486048D01*
X18257476Y-11467000D01*
X18238429Y-11438428D01*
X18228905Y-11428905D01*
X18590810Y-11733667D02*
X18581286Y-11724143D01*
X18562238Y-11695571D01*
X18552714Y-11676524D01*
X18543190Y-11647952D01*
X18533667Y-11600333D01*
X18533667Y-11562238D01*
X18543190Y-11514619D01*
X18552714Y-11486048D01*
X18562238Y-11467000D01*
X18581286Y-11438428D01*
X18590810Y-11428905D01*
X18667000Y-11524143D02*
X18667000Y-11657476D01*
X18667000Y-11543190D02*
X18676524Y-11533667D01*
X18695571Y-11524143D01*
X18724143Y-11524143D01*
X18743190Y-11533667D01*
X18752714Y-11552714D01*
X18752714Y-11657476D01*
X18876524Y-11657476D02*
X18857476Y-11647952D01*
X18847952Y-11638428D01*
X18838429Y-11619381D01*
X18838429Y-11562238D01*
X18847952Y-11543190D01*
X18857476Y-11533667D01*
X18876524Y-11524143D01*
X18905095Y-11524143D01*
X18924143Y-11533667D01*
X18933667Y-11543190D01*
X18943190Y-11562238D01*
X18943190Y-11619381D01*
X18933667Y-11638428D01*
X18924143Y-11647952D01*
X18905095Y-11657476D01*
X18876524Y-11657476D01*
X19000333Y-11524143D02*
X19076524Y-11524143D01*
X19028905Y-11457476D02*
X19028905Y-11628905D01*
X19038429Y-11647952D01*
X19057476Y-11657476D01*
X19076524Y-11657476D01*
X19295571Y-11524143D02*
X19295571Y-11724143D01*
X19295571Y-11533667D02*
X19314619Y-11524143D01*
X19352714Y-11524143D01*
X19371762Y-11533667D01*
X19381286Y-11543190D01*
X19390810Y-11562238D01*
X19390810Y-11619381D01*
X19381286Y-11638428D01*
X19371762Y-11647952D01*
X19352714Y-11657476D01*
X19314619Y-11657476D01*
X19295571Y-11647952D01*
X19505095Y-11657476D02*
X19486048Y-11647952D01*
X19476524Y-11628905D01*
X19476524Y-11457476D01*
X19667000Y-11657476D02*
X19667000Y-11552714D01*
X19657476Y-11533667D01*
X19638429Y-11524143D01*
X19600333Y-11524143D01*
X19581286Y-11533667D01*
X19667000Y-11647952D02*
X19647952Y-11657476D01*
X19600333Y-11657476D01*
X19581286Y-11647952D01*
X19571762Y-11628905D01*
X19571762Y-11609857D01*
X19581286Y-11590809D01*
X19600333Y-11581286D01*
X19647952Y-11581286D01*
X19667000Y-11571762D01*
X19733667Y-11524143D02*
X19809857Y-11524143D01*
X19762238Y-11457476D02*
X19762238Y-11628905D01*
X19771762Y-11647952D01*
X19790810Y-11657476D01*
X19809857Y-11657476D01*
X19952714Y-11647952D02*
X19933667Y-11657476D01*
X19895571Y-11657476D01*
X19876524Y-11647952D01*
X19867000Y-11628905D01*
X19867000Y-11552714D01*
X19876524Y-11533667D01*
X19895571Y-11524143D01*
X19933667Y-11524143D01*
X19952714Y-11533667D01*
X19962238Y-11552714D01*
X19962238Y-11571762D01*
X19867000Y-11590809D01*
X20133667Y-11657476D02*
X20133667Y-11457476D01*
X20133667Y-11647952D02*
X20114619Y-11657476D01*
X20076524Y-11657476D01*
X20057476Y-11647952D01*
X20047952Y-11638428D01*
X20038429Y-11619381D01*
X20038429Y-11562238D01*
X20047952Y-11543190D01*
X20057476Y-11533667D01*
X20076524Y-11524143D01*
X20114619Y-11524143D01*
X20133667Y-11533667D01*
X20209857Y-11733667D02*
X20219381Y-11724143D01*
X20238429Y-11695571D01*
X20247952Y-11676524D01*
X20257476Y-11647952D01*
X20267000Y-11600333D01*
X20267000Y-11562238D01*
X20257476Y-11514619D01*
X20247952Y-11486048D01*
X20238429Y-11467000D01*
X20219381Y-11438428D01*
X20209857Y-11428905D01*
M02*
